<?xml version="1.0" encoding="UTF-8"?>
<!DOCTYPE svg PUBLIC "-//W3C//DTD SVG 1.1//EN" "http://www.w3.org/Graphics/SVG/1.1/DTD/svg11.dtd">
<!-- Creator: CorelDRAW -->
<svg xmlns="http://www.w3.org/2000/svg" xml:space="preserve" width="10in" height="10in" version="1.1" style="shape-rendering:geometricPrecision; text-rendering:geometricPrecision; image-rendering:optimizeQuality; fill-rule:evenodd; clip-rule:evenodd"
viewBox="0 0 10000 10000"
 xmlns:xlink="http://www.w3.org/1999/xlink"
 xmlns:xodm="http://www.corel.com/coreldraw/odm/2003">
 <defs>
  <style type="text/css">
   <![CDATA[
    .str0 {stroke:#3145AD;stroke-width:16.67;stroke-miterlimit:2.61313}
    .fil9 {fill:#1B3165}
    .fil13 {fill:#1C3165}
    .fil19 {fill:#1F1F1F}
    .fil10 {fill:#253793}
    .fil14 {fill:#2B40A3}
    .fil3 {fill:#4E64CA}
    .fil6 {fill:#87A6E3}
    .fil1 {fill:#B7CEF0}
    .fil7 {fill:#253793}
    .fil15 {fill:#FBFBFB}
    .fil0 {fill:#FDFDFD}
    .fil2 {fill:white}
    .fil8 {fill:white}
    .fil18 {fill:#0C0C0C;fill-rule:nonzero}
    .fil17 {fill:#1B3165;fill-rule:nonzero}
    .fil12 {fill:#243793;fill-rule:nonzero}
    .fil16 {fill:#3145AD;fill-rule:nonzero}
    .fil4 {fill:#4E64CA;fill-rule:nonzero}
    .fil11 {fill:#87A6E3;fill-rule:nonzero}
    .fil5 {fill:white;fill-rule:nonzero}
   ]]>
  </style>
 </defs>
 <g id="Layer_x0020_1">
  <metadata id="CorelCorpID_0Corel-Layer"/>
  <rect class="fil0" width="10000" height="10000"/>
  <g id="_1138385192">
   <path class="fil1" d="M6572.24 1971.15c-1293.33,0 -2417.15,725.14 -2987.52,1790.93 -29.65,-0.67 -59.4,-1 -89.23,-1 -1907.64,0 -3454.08,1364.51 -3454.08,3047.72 0,407.44 90.84,796.1 255.26,1151.36l8441.93 0c745.46,-621.17 1220,-1556.45 1220,-2602.65 0,-1870.23 -1516.13,-3386.35 -3386.35,-3386.35z"/>
   <g>
    <g>
     <polygon class="fil2" points="8673.2,5008.46 8678.85,5204.71 8495.78,5202.67 8499.3,5126.02 8501.7,5033.77 "/>
     <path class="fil3" d="M8666.93 5013.85l5.37 186.15 -173.4 -1.94 3.3 -71.84 0 -0.09 2.3 -88.31 162.43 -23.97zm14.83 190.73l-5.66 -196.25 -0.15 -5.26 -5.19 0.77 -171.49 25.31 -3.88 0.57 -0.1 3.94 -2.4 92.16 0 0 -3.52 76.65 -0.22 4.81 4.84 0.05 183.07 2.04 4.84 0.06 -0.14 -4.84z"/>
     <path class="fil2" d="M8524.28 4682.07c5.54,-5.91 196.51,-5.14 169.87,201.83 0,0 50.18,-29.79 37.63,45.47 0,0 0,26.66 -37.63,25.09 0,0 -43.31,173.86 -156.51,157.49 -113.19,-16.37 -105.35,-124.56 -105.35,-124.56l0 -185.03c0,0 -22.47,-126.8 91.99,-120.29z"/>
     <path class="fil3" d="M8527.68 4685.26c0.74,-0.78 11.3,-0.87 27.42,1.21 12.87,1.66 28.59,5.13 44.75,11.61 16.07,6.45 32.57,15.89 47.07,29.49 30.84,28.95 52.74,76.98 42.61,155.73l-1.21 9.42 8.19 -4.79c0.12,-0.07 41.56,-24.7 30.67,40.67l-0.06 0.64c0,0.06 0.04,21.93 -32.79,20.56l-3.75 -0.15 -0.94 3.66c-0.13,0.48 -42.32,169.78 -151.33,154.02 -108.88,-15.74 -101.37,-119.35 -101.35,-119.65l0.02 -0.29 0 -185.02 -0.07 -0.79c-0.06,-0.34 -21.44,-121.02 87.13,-114.85l2.17 0.12 1.49 -1.59zm28.59 -8.04c-14.42,-1.86 -26.1,-1.17 -31.82,0.18 -116.34,-6.55 -98.21,116.89 -96.84,125.29l0 184.69 0 0c-0.35,6.16 -4.89,112.66 109.37,129.19 107.65,15.57 153.72,-132.37 160.72,-157.38 36.26,-0.16 38.58,-26.02 38.73,-29.34 10.75,-65.05 -21.17,-59.78 -36.69,-53.75 8.01,-77.43 -14.8,-125.65 -46.43,-155.33 -15.43,-14.48 -32.95,-24.52 -50,-31.35 -16.96,-6.81 -33.5,-10.46 -47.05,-12.2z"/>
     <path class="fil4" d="M8427.61 4881.82c7.15,-2.01 6.19,-0.16 9.36,-5.92l-0 -60.2c12.96,-39.33 38.44,-64.41 38.44,-64.41 -7.46,-6.48 -9.31,-10.36 -14.12,-18.88 -7.02,-12.4 -13.13,-24.2 -14.19,-38.19 -12.62,11.54 -21.52,25.77 -26.03,36.15 -3.13,7.2 -4.8,14.87 -5.06,22.71 -0.97,29.86 5.78,107.4 11.6,128.74z"/>
     <path class="fil4" d="M8615.42 4744.33c8.06,28.32 39.74,49.68 67.38,60.92 1.92,18.66 16.7,63.71 17.3,72.26l0.18 -0.24c7.44,-3.74 17.4,-6.21 25.23,-2.29 0.79,0.39 1.52,0.84 2.24,1.33 2.23,-15.39 14.43,-107.31 13.3,-112.61 -1.22,-5.87 -9.01,-22.25 -27.32,-45.38 10.76,4.89 13.26,2.31 13.26,2.31 0,0 -5.48,-2.65 -23.62,-24.45 -18.16,-21.82 -45.11,-40.28 -81.35,-45.88 -9.38,-1.44 -21.92,-0.86 -35.86,0.98 -39.84,5.25 -91.02,20.57 -112.24,26.73 -9.6,2.77 -19.02,9.15 -27.86,17.13 -0.27,0.22 -0.52,0.44 -0.79,0.69 1.06,14 5.59,27.76 12.62,40.16 4.81,8.52 15.09,14.92 17.51,15.3 6.88,1.7 20.76,2.65 35.04,0.69 2.04,-0.27 4.15,-0.56 6.33,-0.86 20.82,-2.84 49.06,-6.6 82.43,-10.84 0.35,-0.04 15.85,4.1 16.2,4.06z"/>
     <path class="fil4" d="M8614.72 4710.71c12.22,37.16 -19.2,69.72 -55.71,70.07 -23.8,0.23 -48.59,-7.46 -68.46,-20.41 -41.42,-27 -50.78,-86.91 -24.11,-127.7 3.88,-5.93 8.86,-11.1 14.09,-15.85 -0.64,10.67 -1.41,17.45 3.75,27.68 -0.27,-7.78 5.37,-30.02 14.26,-38.09 5.33,16.18 23.77,40.33 55.1,50.87 -5.09,-6.13 -3.13,-19.56 -0.52,-27.12 0.81,7.5 36.89,30.39 46.69,35.19 0,0 14.89,45.29 14.92,45.37z"/>
     <path class="fil4" d="M8445.12 4655.54c-3.04,13.7 -2.68,28.2 0.45,42.09 2.14,9.55 5.93,18.82 11.2,27.19 0.02,0 0.02,0 0.02,0 2.41,3.81 5.12,7.4 8.15,10.78 9.6,10.75 21.87,18.93 35.12,24.06 6.59,2.71 13.44,4.57 20.28,6.21 3.47,0.66 6.96,1.15 10.42,1.76 3.48,0.39 6.96,0.72 10.44,1 -3.39,-0.85 -6.79,-1.64 -10.19,-2.36 -3.35,-0.96 -6.7,-1.85 -10.03,-2.88 -6.6,-2.1 -13.15,-4.33 -19.33,-7.39 -12.42,-5.83 -23.87,-13.65 -32.84,-23.86 -2.47,-2.69 -4.71,-5.55 -6.78,-8.56 -5.61,-8.16 -9.78,-17.37 -12.61,-26.97 -2,-6.56 -3.22,-13.36 -3.88,-20.25 -0.47,-3.89 -0.69,-7.8 -0.71,-11.73 -0.02,-3 0.09,-6.05 0.29,-9.09z"/>
     <path class="fil4" d="M8485.82 4696.41c0.46,10.22 2.75,20.39 6.32,30.07 3.56,9.71 8.65,18.92 15.13,27.13 6.41,8.29 14.87,14.96 24.1,19.78 9.15,5.22 19.72,6.86 29.79,7.69 -2.45,-0.78 -4.89,-1.5 -7.33,-2.16 -2.44,-0.64 -4.86,-1.31 -7.12,-2.47l-6.91 -2.89 -6.46 -3.7c-8.32,-5.27 -16.04,-11.6 -22.04,-19.5 -6.19,-7.7 -11.24,-16.33 -15.44,-25.41 -4.08,-9.13 -7.61,-18.63 -10.05,-28.54z"/>
     <path class="fil4" d="M8610.96 4720.24c2.91,9.61 4.09,19.17 2.19,28.29 -0.94,4.52 -2.33,9.02 -4.61,13.2 -0.93,2.22 -2.39,4.13 -3.56,6.29 -1.29,2.08 -2.83,4 -4.13,6.23 2.09,-1.39 4.17,-2.89 6.08,-4.59 1.7,-1.88 3.72,-3.59 5.06,-5.82 3.21,-4.12 5.09,-9.19 6.24,-14.32 1.02,-5.19 0.88,-10.59 -0.41,-15.63 -1.24,-5.04 -3.5,-9.83 -6.87,-13.65z"/>
     <path class="fil5" d="M8678.92 4772.86c4.81,58.9 9.39,119.87 9.39,119.87l11.96 -15.47 15.88 -39.45 -6.5 -74.12c0,0 -31.39,1.18 -30.74,9.17z"/>
     <path class="fil4" d="M8623.45 4718.34c2.91,9.61 4.09,19.16 2.19,28.29 -0.94,4.52 -2.33,9.02 -4.61,13.2 -0.93,2.21 -2.39,4.13 -3.56,6.29 -1.29,2.08 -2.83,4 -4.13,6.23 2.09,-1.39 4.17,-2.89 6.08,-4.59 1.7,-1.88 3.72,-3.59 5.06,-5.82 3.21,-4.12 5.09,-9.19 6.24,-14.32 1.02,-5.19 0.88,-10.59 -0.41,-15.63 -1.24,-5.04 -3.5,-9.83 -6.87,-13.64z"/>
    </g>
    <path class="fil2" d="M7984.98 5435.56c-0.22,7.38 56.32,161.28 63.89,184 23.17,69.52 112.76,-131.08 127.25,-156.17 19.28,-52.06 71.34,-57.84 71.34,-57.84l-5.79 190.87c0,0 -88.69,148.46 -160.02,212.08 -111.6,99.54 -148.75,-330.13 -161.91,-339.85 -12.67,-9.52 0.78,-11.31 -15.93,-18.61 -13.52,-5.9 -33.66,-24.15 -65.01,-30.17 -22.17,-9.7 -29.26,-24.46 -29.25,-24.44 -12.24,-14.19 -16.84,-32.48 -16.84,-49.34 0,-7.76 0.96,-15.2 2.6,-21.77 1.62,-6.5 3.88,-12.15 6.49,-16.43 2.98,-4.87 6.22,-7.8 9.17,-7.8 5.28,0 10.03,8.15 15.45,18.25 -0.12,-0.03 18.93,25.67 25.02,35.28 3.87,3.03 8.24,5.42 13.22,6.86 9.87,2.86 23.34,2.54 33.68,-1.69 3.71,-1.52 7.06,-3.53 9.74,-6.07 2.82,-2.66 4.94,-5.89 6.05,-9.72 1.46,-5.06 1.14,-11.05 -1.69,-17.98l-0.02 0c-1.53,-3.75 -1.46,-6.35 -0.24,-7.79 1.43,-1.69 4.57,-2.28 8.75,-1.67 4.93,0.72 10.96,3.14 17.24,7.43 11.56,7.88 23.69,21.87 31.39,42.91 -0.33,-0.56 16.7,29.24 15.43,69.67z"/>
    <path class="fil3" d="M7977.48 5420.89c-0.19,6.07 28.41,85.73 48.83,142.63 9.17,25.53 16.68,46.46 19.14,53.83 5.3,15.92 13.78,20.42 24.21,16.94 31.48,-10.49 80.85,-109.31 105.22,-158.1l-0.01 -0.01c5.59,-11.19 9.84,-19.7 12.23,-23.83l0.27 -0.57c16.31,-44.05 55.48,-55.59 68.44,-58.26l-5.98 197.06c-7.24,12.02 -96.31,158.88 -168.59,223.33 -24.65,21.98 -45.56,17.73 -63.3,-2.17 -46.01,-51.59 -72.67,-203.07 -88.13,-290.96 -6.67,-37.9 -11.31,-64.29 -15.71,-67.61l0 -0.01c-6.76,-5.08 -14.08,-10.3 -22,-15.26 -7.94,-4.98 -16.43,-9.65 -25.43,-13.59 -5.95,-2.59 -11.87,-4.45 -17.72,-6.3 -8.45,-2.65 -16.8,-5.27 -24.38,-9.91 -23.67,-14.45 -31.87,-39.52 -31.87,-62.04 0,-7.76 0.96,-15.2 2.6,-21.77 1.62,-6.5 3.88,-12.15 6.49,-16.43 2.98,-4.87 6.22,-7.8 9.17,-7.8 5.71,0 10.79,9.52 16.78,20.74 8.37,15.66 18.29,34.25 36.91,39.65 9.87,2.86 23.34,2.54 33.68,-1.69 3.71,-1.52 7.06,-3.53 9.74,-6.07 2.82,-2.66 4.94,-5.89 6.04,-9.72 1.47,-5.06 1.15,-11.05 -1.69,-17.98l-0.02 0c-1.53,-3.75 -1.46,-6.35 -0.24,-7.79 1.43,-1.69 4.57,-2.27 8.75,-1.67 4.93,0.72 10.96,3.14 17.24,7.43 19.66,13.41 41,44.5 39.32,97.9l0 0.02zm55.73 140.16c-20.22,-56.33 -48.53,-135.19 -48.41,-139.95 1.78,-56.5 -21.27,-89.7 -42.5,-104.18 -7.25,-4.94 -14.38,-7.76 -20.35,-8.63 -6.73,-0.98 -12.26,0.5 -15.38,4.2 -2.98,3.52 -3.62,8.7 -0.93,15.28l-0.02 0c2.17,5.31 2.48,9.67 1.46,13.18 -0.72,2.5 -2.13,4.63 -4.03,6.43 -2.03,1.92 -4.6,3.46 -7.48,4.63 -8.85,3.61 -20.4,3.89 -28.88,1.43 -15.65,-4.54 -24.78,-21.64 -32.48,-36.06 -7.12,-13.34 -13.17,-24.66 -23.25,-24.66 -5.69,0 -11.1,4.26 -15.43,11.34 -3,4.91 -5.56,11.27 -7.35,18.5 -1.78,7.15 -2.83,15.19 -2.83,23.52 0,24.68 9.11,52.24 35.4,68.3 8.37,5.11 17.14,7.87 26.02,10.65 5.7,1.79 11.45,3.6 16.98,6.01 8.71,3.81 16.87,8.3 24.48,13.07 7.64,4.78 14.81,9.9 21.49,14.92l0.03 0.01c2,1.48 6.45,26.73 12.83,63.01 15.59,88.65 42.48,241.44 89.87,294.58 20.74,23.25 45.09,28.28 73.68,2.77 76.09,-67.86 170.21,-225.41 170.48,-225.87l0.52 -1.78 6.14 -202.51 0.13 -4.27 -4.24 0.52c-0.16,0.02 -57.24,6.37 -78.57,63.45 -2.41,4.22 -6.69,12.78 -12.28,23.97l-0.02 0c-23.93,47.91 -72.4,144.91 -100.94,154.43 -6.1,2.04 -11.3,-1.3 -14.96,-12.29 -2.53,-7.6 -10.04,-28.51 -19.19,-54.01z"/>
    <rect class="fil2" x="8923.11" y="7753.2" width="107.42" height="76.52"/>
    <path class="fil6" d="M9030.53 7834.04l-107.42 0 -4.33 0 0 -4.32 0 -76.52 0 -4.33 4.33 0 107.42 0 4.32 0 0 4.33 0 76.52 0 4.32 -4.32 0zm-103.1 -8.65l98.77 0 0 -67.87 -98.77 0 0 67.87z"/>
    <rect class="fil2" x="8282.5" y="7758.23" width="107.42" height="76.52"/>
    <path class="fil6" d="M8389.92 7839.07l-107.42 0 -4.33 0 0 -4.32 0 -76.52 0 -4.33 4.33 0 107.42 0 4.32 0 0 4.33 0 76.52 0 4.32 -4.32 0zm-103.1 -8.65l98.77 0 0 -67.87 -98.77 0 0 67.87z"/>
    <polygon class="fil7" points="8265.42,7771.13 8295.68,6016.26 8823,6016.26 9046.11,7771.13 8915.72,7771.13 8555.02,6375.02 8404.67,7771.13 "/>
    <polygon class="fil7" points="9042.08,7739.4 9046.11,7771.13 8915.72,7771.13 8907.52,7739.4 "/>
    <path class="fil8" d="M8846.46 6080.94c0,0 -62.64,-89.69 2.33,-536.01l36.72 87.57 194.91 -104.52 -143.07 -244.44c-13.68,-23.38 -8.63,-22.39 -33.59,-32.04l-226.97 -88.04c-15.23,19.48 -51.45,32.62 -91.25,32.62 -39.8,0 -74.7,-13.47 -89.89,-33.02l-210.84 56.5c-27.3,7.3 -20.73,4.55 -33.21,29.69l-164.81 331.69 170.94 74.11 21.15 -113.66c0,0 -11.3,463.27 5.65,539.54l561.93 0z"/>
    <path class="fil9" d="M8288.28 5515.46c-0.02,0.03 -12.32,11.48 -9.41,25.94l0 0 0 0c-3.79,-18.81 0.89,-31.88 0.92,-31.92l8.49 5.97z"/>
    <path class="fil9" d="M8875.39 5476.59c-0.09,0.13 -35.74,46.55 -26.6,68.34l0 0 0 0c-11.37,-27.11 17.94,-74.05 18.03,-74.19l8.57 5.85z"/>
    <path class="fil9" d="M8826.14 6005.01c-2.15,-15.56 -3.99,-34.01 -5.22,-55.81 -3.83,-0.67 -7.76,-1.05 -11.83,-1.05 -14.74,0 -27.57,4.98 -40.93,10.49 -5.48,2.26 -15.15,6.57 -21.1,6.57 -5.96,0 -15.62,-4.3 -21.1,-6.57 -13.35,-5.51 -26.19,-10.49 -40.92,-10.49 -14.74,0 -27.57,4.98 -40.93,10.49 -5.48,2.26 -15.15,6.57 -21.1,6.57 -5.96,0 -15.62,-4.3 -21.1,-6.57 -13.35,-5.51 -26.19,-10.49 -40.92,-10.49 -14.74,0 -27.57,4.98 -40.93,10.49 -5.48,2.26 -15.15,6.57 -21.1,6.57 -5.95,0 -15.62,-4.3 -21.1,-6.57 -13.35,-5.51 -26.19,-10.49 -40.92,-10.49 -14.73,0 -27.57,4.98 -40.93,10.49 -5.48,2.26 -15.15,6.57 -21.1,6.57 -5.95,0 -15.62,-4.31 -21.1,-6.57 -13.35,-5.51 -26.19,-10.49 -40.92,-10.49 -13.12,0 -24.74,3.95 -36.56,8.71 0.44,19.93 1.03,38.52 1.79,55.14 4.56,-1.59 9.09,-3.42 13.67,-5.31 5.48,-2.26 15.15,-6.56 21.1,-6.56 5.96,0 15.62,4.3 21.1,6.56 13.35,5.51 26.19,10.49 40.92,10.49 14.74,0 27.57,-4.98 40.93,-10.49 5.48,-2.26 15.15,-6.57 21.1,-6.57 5.96,0 15.62,4.3 21.1,6.57 13.35,5.51 26.19,10.49 40.92,10.49 14.74,0 27.57,-4.98 40.93,-10.49 5.48,-2.26 15.15,-6.57 21.1,-6.57 5.95,0 15.62,4.3 21.1,6.57 13.35,5.51 26.19,10.49 40.92,10.49 14.73,0 27.57,-4.98 40.93,-10.49 5.48,-2.26 15.15,-6.57 21.1,-6.57 5.95,0 15.62,4.3 21.1,6.57 13.35,5.51 26.19,10.49 40.92,10.49 14.73,0 27.57,-4.98 40.93,-10.49 5.48,-2.26 15.15,-6.57 21.1,-6.57 4.67,0 11.63,2.65 17.05,4.88z"/>
    <path class="fil9" d="M8708.11 5175.92l-31.32 -12.44c-15.23,19.48 -51.45,32.62 -91.25,32.62 -39.8,0 -74.7,-13.47 -89.89,-33.02l-35.74 9.57c11.73,33.82 63.12,59.29 124.73,59.29 59.62,0 109.65,-23.84 123.46,-56.02z"/>
    <polygon class="fil9" points="8108.45,5537.36 8086.79,5580.95 8257.73,5655.06 8266.11,5610.06 "/>
    <path class="fil2" d="M9026.87 5533.14l68.85 135.94c0,0 68.85,144.78 -67.09,151.84 -135.94,7.06 -406.07,56.5 -406.07,56.5 0,0 -24.72,-24.72 -60.02,4.41 -35.31,29.13 -98.87,-80.33 -4.42,-92.69 0,0 49.44,-7.06 77.69,32.66l299.26 -107.7c0,0 39.72,-1.77 17.65,-39.72 -22.07,-37.96 -46.78,-73.27 -46.78,-73.27l120.94 -67.97z"/>
    <path class="fil3" d="M9030.72 5531.19l68.85 135.94 0.07 0.12c0.2,0.43 71.61,150.57 -70.79,157.96 -135.69,7.05 -404.74,56.29 -405.52,56.43l-2.18 0.4 -1.59 -1.53c-0.06,-0.06 -22,-22.02 -54.3,4.63 -10.65,8.79 -23.24,7.18 -34.31,-0.4 -8.94,-6.12 -16.88,-16.29 -21.69,-27.83 -4.84,-11.62 -6.58,-24.74 -3.08,-36.69 4.96,-16.94 20.16,-31.29 51.37,-35.37l0.04 -0.01c0.15,-0.02 49.72,-7.1 79.76,31.81l296.25 -106.62 1.27 -0.25c0.09,0 32.6,-1.45 14.11,-33.26 -22.01,-37.86 -46.51,-72.87 -46.58,-72.96l-2.73 -3.9 4.15 -2.33 120.94 -67.97 3.92 -2.2 2.04 4.02zm61.09 139.71l-66.76 -131.8 -112.89 63.45c7.02,10.22 26.51,39.09 44.28,69.66 23.82,40.97 -14.79,45.68 -20.5,46.14l-298.69 107.5 -3.07 1.11 -1.89 -2.66c-26.72,-37.57 -73.52,-30.89 -73.65,-30.87l0 -0.01c-27.11,3.56 -40.12,15.37 -44.18,29.22 -2.9,9.92 -1.37,21.03 2.78,30.98 4.19,10.03 10.99,18.81 18.59,24.01 7.96,5.44 16.8,6.78 23.96,0.87 32.74,-27 57.47,-10.98 64.03,-5.69 24.97,-4.53 275.09,-49.47 404.58,-56.2 129.48,-6.72 63.58,-145.31 63.39,-145.71l0.01 0z"/>
    <polygon class="fil9" points="8868.4,5591.7 8885.51,5632.5 9080.43,5527.98 9054.75,5484.11 "/>
    <path class="fil9" d="M8846.46 6080.94c0,0 -6.59,-9.45 -13.27,-37.41l-553.22 0c1.22,16.3 2.73,29.13 4.57,37.41l561.93 0z"/>
    <path class="fil10" d="M8406.38 7821.85l0 138.31 -339.3 0c-24.96,-45.38 32.35,-53.72 61.69,-64.33 52.42,-18.97 119.07,-58.22 137.27,-73.98l140.35 0z"/>
    <path class="fil10" d="M9044.35 7821.85l0 138.31 -245.84 0c-18.08,-45.38 23.44,-53.72 44.7,-64.33 37.98,-18.96 52.51,-56.54 65.69,-72.3l135.46 -1.69z"/>
   </g>
   <g>
    <g>
     <polygon class="fil2" points="6534.65,4487.66 6537.7,4593.31 6439.13,4592.22 6441.03,4550.95 6442.32,4501.28 "/>
     <path class="fil3" d="M6531.28 4490.56l2.89 100.22 -93.35 -1.04 1.78 -38.68 0 -0.05 1.24 -47.54 87.45 -12.91zm7.98 102.69l-3.05 -105.66 -0.08 -2.83 -2.79 0.41 -92.33 13.63 -2.09 0.31 -0.06 2.12 -1.29 49.61 0 0 -1.9 41.27 -0.12 2.59 2.61 0.03 98.56 1.1 2.61 0.03 -0.07 -2.61z"/>
     <path class="fil2" d="M6454.48 4311.93c2.98,-3.18 105.8,-2.77 91.46,108.66 0,0 27.02,-16.04 20.26,24.48 0,0 0,14.35 -20.26,13.51 0,0 -23.32,93.6 -84.26,84.79 -60.94,-8.81 -56.72,-67.06 -56.72,-67.06l0 -99.61c0,0 -12.1,-68.27 49.53,-64.76z"/>
     <path class="fil3" d="M6456.31 4313.65c0.39,-0.43 6.08,-0.47 14.76,0.65 6.93,0.89 15.39,2.76 24.09,6.25 8.66,3.47 17.54,8.56 25.34,15.88 16.61,15.59 28.39,41.44 22.94,83.85l-0.65 5.07 4.41 -2.58c0.06,-0.04 22.37,-13.3 16.51,21.9l-0.03 0.34c0,0.03 0.02,11.81 -17.65,11.07l-2.02 -0.08 -0.51 1.97c-0.07,0.26 -22.79,91.41 -81.48,82.92 -58.62,-8.48 -54.58,-64.26 -54.57,-64.42l0.01 -0.16 0 -99.61 -0.04 -0.43c-0.03,-0.18 -11.54,-65.15 46.91,-61.83l1.17 0.07 0.8 -0.85zm15.39 -4.33c-7.76,-1 -14.06,-0.63 -17.13,0.1 -62.64,-3.53 -52.87,62.93 -52.14,67.45l0 99.44 0 0c-0.19,3.32 -2.63,60.66 58.89,69.56 57.96,8.38 82.76,-71.27 86.53,-84.73 19.52,-0.09 20.77,-14 20.85,-15.8 5.79,-35.02 -11.39,-32.18 -19.75,-28.93 4.31,-41.69 -7.97,-67.65 -25,-83.63 -8.31,-7.8 -17.74,-13.2 -26.92,-16.88 -9.13,-3.67 -18.04,-5.63 -25.33,-6.57z"/>
     <path class="fil4" d="M6402.43 4419.48c3.84,-1.09 3.33,-0.09 5.04,-3.19l0 -32.41c6.98,-21.18 20.69,-34.68 20.69,-34.68 -4.02,-3.49 -5.01,-5.57 -7.6,-10.16 -3.78,-6.68 -7.07,-13.03 -7.64,-20.56 -6.8,6.22 -11.59,13.87 -14.02,19.46 -1.69,3.87 -2.58,8 -2.72,12.23 -0.52,16.07 3.11,57.82 6.25,69.31z"/>
     <path class="fil4" d="M6503.54 4345.45c4.34,15.25 21.4,26.75 36.28,32.8 1.03,10.04 8.99,34.3 9.31,38.9l0.1 -0.13c4,-2.01 9.37,-3.34 13.58,-1.23 0.43,0.21 0.82,0.45 1.2,0.71 1.2,-8.28 7.77,-57.78 7.17,-60.63 -0.66,-3.16 -4.85,-11.98 -14.71,-24.43 5.79,2.63 7.14,1.24 7.14,1.24 0,0 -2.95,-1.43 -12.71,-13.17 -9.78,-11.75 -24.29,-21.69 -43.8,-24.7 -5.05,-0.78 -11.8,-0.46 -19.31,0.53 -21.45,2.83 -49.01,11.07 -60.43,14.39 -5.17,1.49 -10.24,4.93 -15,9.22 -0.15,0.12 -0.28,0.24 -0.43,0.37 0.57,7.54 3.01,14.95 6.8,21.62 2.59,4.59 8.13,8.04 9.43,8.24 3.71,0.92 11.18,1.43 18.87,0.37 1.09,-0.14 2.23,-0.3 3.41,-0.46 11.21,-1.53 26.41,-3.55 44.38,-5.83 0.19,-0.02 8.54,2.21 8.72,2.18z"/>
     <path class="fil4" d="M6503.17 4327.35c6.58,20 -10.34,37.53 -29.99,37.72 -12.81,0.12 -26.17,-4.02 -36.86,-10.99 -22.3,-14.54 -27.34,-46.79 -12.98,-68.75 2.09,-3.19 4.78,-5.98 7.59,-8.53 -0.35,5.74 -0.76,9.39 2.02,14.9 -0.15,-4.19 2.89,-16.16 7.68,-20.51 2.87,8.7 12.8,21.71 29.67,27.39 -2.74,-3.3 -1.69,-10.53 -0.28,-14.6 0.44,4.04 19.86,16.36 25.14,18.94 0,0 8.02,24.38 8.04,24.43z"/>
     <path class="fil4" d="M6411.86 4297.65c-1.63,7.38 -1.44,15.18 0.24,22.67 1.15,5.14 3.19,10.13 6.03,14.63 0.01,0 0.01,0 0.01,0 1.3,2.05 2.76,3.98 4.39,5.8 5.17,5.79 11.78,10.19 18.91,12.95 3.55,1.46 7.24,2.46 10.92,3.34 1.87,0.36 3.75,0.62 5.61,0.95 1.87,0.2 3.75,0.39 5.62,0.54 -1.82,-0.46 -3.65,-0.89 -5.48,-1.27 -1.8,-0.52 -3.61,-1 -5.4,-1.55 -3.55,-1.13 -7.08,-2.33 -10.41,-3.98 -6.69,-3.14 -12.85,-7.35 -17.68,-12.84 -1.33,-1.45 -2.54,-2.99 -3.65,-4.61 -3.02,-4.39 -5.26,-9.35 -6.8,-14.52 -1.07,-3.53 -1.73,-7.19 -2.09,-10.91 -0.25,-2.09 -0.37,-4.2 -0.38,-6.31 -0.01,-1.62 0.04,-3.26 0.15,-4.9z"/>
     <path class="fil4" d="M6433.77 4319.65c0.25,5.5 1.48,10.98 3.41,16.19 1.92,5.23 4.66,10.19 8.15,14.61 3.45,4.46 8.01,8.06 12.98,10.65 4.93,2.81 10.62,3.69 16.04,4.14 -1.32,-0.42 -2.64,-0.81 -3.95,-1.16 -1.31,-0.34 -2.62,-0.71 -3.83,-1.33l-3.72 -1.56 -3.48 -1.99c-4.48,-2.84 -8.64,-6.25 -11.87,-10.5 -3.33,-4.14 -6.05,-8.79 -8.31,-13.68 -2.2,-4.92 -4.09,-10.03 -5.41,-15.37z"/>
     <path class="fil4" d="M6501.14 4332.48c1.57,5.17 2.2,10.31 1.18,15.23 -0.51,2.43 -1.26,4.85 -2.48,7.11 -0.5,1.19 -1.29,2.22 -1.91,3.39 -0.7,1.12 -1.52,2.15 -2.22,3.35 1.12,-0.75 2.24,-1.56 3.27,-2.48 0.92,-1.01 2,-1.93 2.72,-3.13 1.73,-2.22 2.74,-4.95 3.36,-7.71 0.55,-2.79 0.47,-5.7 -0.22,-8.41 -0.67,-2.71 -1.88,-5.29 -3.7,-7.35z"/>
     <path class="fil5" d="M6537.74 4360.81c2.59,31.71 5.06,64.54 5.06,64.54l6.44 -8.33 8.55 -21.24 -3.5 -39.91c0,0 -16.9,0.64 -16.55,4.94z"/>
     <path class="fil4" d="M6507.87 4331.46c1.56,5.18 2.2,10.32 1.18,15.23 -0.51,2.43 -1.26,4.85 -2.48,7.11 -0.5,1.19 -1.29,2.22 -1.92,3.39 -0.69,1.12 -1.52,2.15 -2.22,3.35 1.13,-0.75 2.25,-1.56 3.27,-2.47 0.92,-1.01 2,-1.93 2.72,-3.13 1.73,-2.22 2.74,-4.95 3.36,-7.71 0.55,-2.79 0.47,-5.7 -0.22,-8.41 -0.67,-2.71 -1.88,-5.29 -3.7,-7.35z"/>
    </g>
    <path class="fil2" d="M6164.13 4717.6c-0.12,3.98 30.32,86.83 34.4,99.07 12.48,37.43 60.71,-70.57 68.51,-84.08 10.38,-28.03 38.41,-31.14 38.41,-31.14l-3.11 102.76c0,0 -47.75,79.93 -86.16,114.19 -60.08,53.59 -80.08,-177.74 -87.17,-182.98 -6.82,-5.12 0.42,-6.09 -8.58,-10.02 -7.28,-3.18 -18.12,-13 -35,-16.24 -11.93,-5.22 -15.75,-13.17 -15.75,-13.16 -6.59,-7.65 -9.07,-17.49 -9.07,-26.57 0,-4.18 0.52,-8.18 1.4,-11.72 0.87,-3.5 2.09,-6.54 3.49,-8.85 1.6,-2.63 3.35,-4.2 4.93,-4.2 2.84,0 5.4,4.38 8.32,9.82 -0.06,-0.01 10.19,13.82 13.47,19 2.09,1.63 4.44,2.92 7.12,3.7 5.31,1.54 12.57,1.36 18.13,-0.91 2,-0.81 3.8,-1.9 5.25,-3.26 1.52,-1.43 2.66,-3.17 3.25,-5.24 0.79,-2.72 0.62,-5.94 -0.91,-9.68l-0.01 0c-0.83,-2.02 -0.79,-3.42 -0.13,-4.19 0.77,-0.91 2.46,-1.22 4.71,-0.9 2.66,0.39 5.9,1.69 9.28,4 6.22,4.24 12.76,11.78 16.9,23.1 -0.18,-0.3 8.99,15.74 8.31,37.51z"/>
    <path class="fil3" d="M6160.09 4709.7c-0.1,3.27 15.29,46.16 26.29,76.79 4.93,13.75 8.98,25.02 10.3,28.99 2.85,8.57 7.42,10.99 13.04,9.12 16.94,-5.65 43.53,-58.85 56.65,-85.12l-0.01 -0c3.01,-6.02 5.3,-10.6 6.58,-12.83l0.15 -0.31c8.78,-23.71 29.87,-29.93 36.85,-31.36l-3.22 106.09c-3.9,6.48 -51.85,85.54 -90.77,120.24 -13.27,11.83 -24.52,9.55 -34.08,-1.17 -24.77,-27.78 -39.12,-109.33 -47.45,-156.65 -3.59,-20.4 -6.09,-34.61 -8.46,-36.4l0 -0c-3.64,-2.74 -7.58,-5.55 -11.85,-8.22 -4.28,-2.68 -8.84,-5.2 -13.69,-7.31 -3.2,-1.4 -6.39,-2.4 -9.54,-3.39 -4.55,-1.43 -9.04,-2.84 -13.13,-5.33 -12.74,-7.78 -17.16,-21.28 -17.16,-33.4 0,-4.18 0.52,-8.18 1.4,-11.72 0.87,-3.5 2.09,-6.54 3.49,-8.85 1.6,-2.63 3.35,-4.2 4.93,-4.2 3.07,0 5.81,5.13 9.04,11.17 4.5,8.43 9.84,18.44 19.87,21.35 5.31,1.54 12.57,1.36 18.13,-0.91 2,-0.81 3.8,-1.9 5.25,-3.26 1.52,-1.43 2.66,-3.17 3.25,-5.24 0.79,-2.72 0.62,-5.94 -0.91,-9.68l-0.01 0c-0.83,-2.02 -0.79,-3.42 -0.13,-4.19 0.77,-0.91 2.46,-1.22 4.71,-0.9 2.66,0.39 5.9,1.69 9.28,4 10.59,7.22 22.07,23.96 21.17,52.71l0 0.01zm30 75.46c-10.89,-30.33 -26.13,-72.79 -26.06,-75.35 0.96,-30.42 -11.46,-48.3 -22.89,-56.09 -3.9,-2.66 -7.74,-4.18 -10.95,-4.65 -3.63,-0.53 -6.6,0.27 -8.28,2.26 -1.6,1.89 -1.95,4.68 -0.5,8.22l-0 0c1.17,2.86 1.33,5.21 0.78,7.1 -0.39,1.34 -1.15,2.49 -2.17,3.46 -1.09,1.03 -2.48,1.86 -4.02,2.49 -4.76,1.95 -10.98,2.09 -15.55,0.77 -8.43,-2.44 -13.34,-11.65 -17.49,-19.41 -3.83,-7.18 -7.09,-13.27 -12.52,-13.27 -3.06,0 -5.98,2.29 -8.3,6.1 -1.61,2.64 -2.99,6.07 -3.96,9.96 -0.96,3.85 -1.52,8.18 -1.52,12.67 0,13.29 4.9,28.13 19.06,36.77 4.51,2.75 9.23,4.24 14.01,5.74 3.07,0.96 6.17,1.94 9.14,3.24 4.69,2.05 9.09,4.46 13.19,7.04 4.11,2.57 7.98,5.33 11.57,8.03l0.02 0.01c1.08,0.79 3.47,14.39 6.91,33.92 8.4,47.73 22.87,129.99 48.39,158.6 11.16,12.52 24.28,15.22 39.67,1.49 40.96,-36.54 91.64,-121.36 91.78,-121.61l0.28 -0.96 3.3 -109.03 0.07 -2.3 -2.28 0.28c-0.09,0.01 -30.81,3.43 -42.3,34.16 -1.3,2.27 -3.6,6.88 -6.61,12.91l-0.01 0c-12.89,25.79 -38.98,78.02 -54.35,83.14 -3.29,1.09 -6.09,-0.7 -8.06,-6.62 -1.37,-4.09 -5.41,-15.35 -10.33,-29.07z"/>
    <rect class="fil2" x="6669.2" y="5965.4" width="57.83" height="41.2"/>
    <path class="fil6" d="M6727.04 6008.93l-57.83 0 -2.33 0 0 -2.33 0 -41.2 0 -2.33 2.33 0 57.83 0 2.33 0 0 2.33 0 41.2 0 2.33 -2.33 0zm-55.51 -4.66l53.18 0 0 -36.54 -53.18 0 0 36.54z"/>
    <rect class="fil2" x="6324.3" y="5968.11" width="57.83" height="41.2"/>
    <path class="fil6" d="M6382.14 6011.63l-57.83 0 -2.33 0 0 -2.33 0 -41.2 0 -2.33 2.33 0 57.83 0 2.33 0 0 2.33 0 41.2 0 2.33 -2.33 0zm-55.51 -4.66l53.18 0 0 -36.54 -53.18 0 0 36.54z"/>
    <polygon class="fil7" points="6315.11,5975.05 6331.4,5030.25 6615.31,5030.25 6735.43,5975.05 6665.22,5975.05 6471.02,5223.4 6390.08,5975.05 "/>
    <polygon class="fil7" points="6733.26,5957.97 6735.43,5975.05 6665.22,5975.05 6660.81,5957.97 "/>
    <path class="fil8" d="M6627.93 5065.07c0,0 -33.72,-48.29 1.26,-288.59l19.77 47.15 104.94 -56.27 -77.03 -131.61c-7.36,-12.59 -4.64,-12.06 -18.09,-17.25l-122.2 -47.4c-8.2,10.49 -27.7,17.56 -49.13,17.56 -21.43,0 -40.22,-7.26 -48.39,-17.78l-113.52 30.42c-14.69,3.93 -11.16,2.45 -17.88,15.98l-88.73 178.58 92.03 39.9 11.39 -61.19c0,0 -6.08,249.42 3.04,290.48l302.54 0z"/>
    <path class="fil9" d="M6327.42 4760.62c-0.01,0.01 -6.63,6.18 -5.06,13.97l0 0 0 0c-2.04,-10.13 0.48,-17.17 0.49,-17.19l4.57 3.22z"/>
    <path class="fil9" d="M6643.51 4739.7c-0.05,0.07 -19.24,25.06 -14.32,36.8l0 0 0 0c-6.12,-14.59 9.66,-39.87 9.71,-39.94l4.61 3.15z"/>
    <path class="fil9" d="M6617 5024.19c-1.16,-8.38 -2.15,-18.31 -2.81,-30.05 -2.06,-0.36 -4.18,-0.56 -6.37,-0.56 -7.93,0 -14.84,2.69 -22.03,5.65 -2.95,1.22 -8.15,3.53 -11.36,3.53 -3.2,0 -8.41,-2.31 -11.36,-3.53 -7.19,-2.96 -14.1,-5.65 -22.04,-5.65 -7.93,0 -14.84,2.69 -22.03,5.65 -2.95,1.22 -8.15,3.53 -11.36,3.53 -3.2,0 -8.41,-2.31 -11.36,-3.53 -7.19,-2.96 -14.1,-5.65 -22.04,-5.65 -7.93,0 -14.84,2.69 -22.03,5.65 -2.95,1.22 -8.15,3.53 -11.36,3.53 -3.2,0 -8.41,-2.31 -11.36,-3.53 -7.19,-2.96 -14.1,-5.65 -22.03,-5.65 -7.93,0 -14.84,2.69 -22.03,5.65 -2.95,1.22 -8.15,3.53 -11.36,3.53 -3.2,0 -8.41,-2.31 -11.36,-3.53 -7.19,-2.97 -14.1,-5.65 -22.03,-5.65 -7.06,0 -13.32,2.13 -19.69,4.69 0.24,10.73 0.56,20.74 0.96,29.69 2.46,-0.85 4.89,-1.84 7.36,-2.86 2.95,-1.22 8.16,-3.54 11.36,-3.54 3.2,0 8.41,2.32 11.36,3.54 7.19,2.96 14.1,5.65 22.03,5.65 7.93,0 14.84,-2.69 22.03,-5.65 2.95,-1.22 8.16,-3.54 11.36,-3.54 3.21,0 8.41,2.32 11.36,3.54 7.19,2.96 14.1,5.65 22.03,5.65 7.93,0 14.84,-2.69 22.04,-5.65 2.95,-1.22 8.15,-3.54 11.36,-3.54 3.21,0 8.41,2.32 11.36,3.54 7.19,2.96 14.1,5.65 22.03,5.65 7.93,0 14.84,-2.69 22.04,-5.65 2.95,-1.22 8.15,-3.54 11.36,-3.54 3.21,0 8.41,2.32 11.36,3.54 7.19,2.96 14.1,5.65 22.03,5.65 7.93,0 14.84,-2.69 22.04,-5.65 2.95,-1.22 8.15,-3.54 11.36,-3.54 2.52,0 6.26,1.43 9.19,2.63z"/>
    <path class="fil9" d="M6553.44 4577.81l-16.86 -6.7c-8.2,10.49 -27.7,17.56 -49.13,17.56 -21.43,0 -40.22,-7.26 -48.39,-17.78l-19.24 5.15c6.31,18.21 33.98,31.92 67.15,31.92 32.1,0 59.04,-12.83 66.47,-30.16z"/>
    <polygon class="fil9" points="6230.6,4772.41 6218.94,4795.88 6310.97,4835.78 6315.48,4811.55 "/>
    <path class="fil2" d="M6350.96 4810.52l95.23 0c5.02,0 7.44,4.41 9.13,9.13l50.09 139.59c1.7,4.72 -4.11,9.13 -9.13,9.13l-95.23 0c-5.02,0 -7.44,-4.41 -9.13,-9.13l-50.09 -139.59c-1.7,-4.73 4.11,-9.13 9.13,-9.13z"/>
    <path class="fil3" d="M6350.96 4808.85l95.23 0c3.07,0 5.33,1.33 7.08,3.39 1.6,1.87 2.72,4.33 3.62,6.85l50.09 139.59c0.28,0.77 0.41,1.52 0.41,2.25 0,1.95 -0.87,3.75 -2.25,5.23 -1.28,1.37 -3.02,2.48 -4.88,3.15 -1.3,0.47 -2.66,0.73 -3.97,0.73l-95.23 0c-3.07,0 -5.33,-1.33 -7.07,-3.38 -1.6,-1.87 -2.72,-4.33 -3.62,-6.86l-50.1 -139.59 -0.01 0c-0.27,-0.76 -0.4,-1.52 -0.4,-2.26 0,-1.95 0.87,-3.75 2.24,-5.23 1.28,-1.37 3.02,-2.48 4.88,-3.15 1.3,-0.47 2.67,-0.73 3.98,-0.73zm95.23 3.34l-95.23 0c-0.95,0 -1.93,0.19 -2.85,0.52 -1.37,0.49 -2.65,1.3 -3.56,2.29 -0.82,0.89 -1.34,1.91 -1.34,2.96 0,0.37 0.06,0.75 0.2,1.13l-0 0 50.09 139.59c0.79,2.2 1.73,4.31 3.02,5.81 1.14,1.33 2.6,2.21 4.55,2.21l95.23 0c0.94,0 1.93,-0.19 2.85,-0.52 1.37,-0.49 2.65,-1.3 3.57,-2.29 0.82,-0.89 1.34,-1.91 1.34,-2.96 0,-0.38 -0.06,-0.76 -0.19,-1.13l-50.1 -139.59c-0.79,-2.2 -1.73,-4.31 -3.02,-5.81 -1.14,-1.34 -2.6,-2.21 -4.55,-2.21z"/>
    <path class="fil2" d="M6725.07 4770.14l37.07 73.19c0,0 37.07,77.94 -36.12,81.74 -73.19,3.8 -218.63,30.42 -218.63,30.42 0,0 -13.31,-13.31 -32.32,2.38 -19.01,15.69 -53.23,-43.25 -2.37,-49.9 0,0 26.61,-3.8 41.82,17.58l161.12 -57.98c0,0 21.39,-0.95 9.5,-21.39 -11.88,-20.44 -25.19,-39.45 -25.19,-39.45l65.11 -36.59z"/>
    <path class="fil3" d="M6727.14 4769.09l37.07 73.19 0.04 0.06c0.11,0.23 38.56,81.07 -38.11,85.05 -73.06,3.8 -217.91,30.31 -218.33,30.38l-1.17 0.22 -0.85 -0.83c-0.03,-0.03 -11.84,-11.85 -29.23,2.5 -5.74,4.73 -12.51,3.86 -18.47,-0.22 -4.81,-3.29 -9.09,-8.77 -11.68,-14.98 -2.61,-6.26 -3.54,-13.32 -1.66,-19.75 2.67,-9.12 10.85,-16.85 27.66,-19.05l0.02 -0.01c0.08,-0.01 26.77,-3.82 42.94,17.13l159.5 -57.4 0.68 -0.13c0.05,-0 17.55,-0.78 7.6,-17.91 -11.85,-20.39 -25.04,-39.23 -25.08,-39.28l-1.47 -2.1 2.24 -1.26 65.11 -36.59 2.11 -1.19 1.1 2.17zm32.89 75.22l-35.94 -70.96 -60.78 34.16c3.78,5.51 14.27,21.05 23.84,37.51 12.83,22.06 -7.96,24.59 -11.04,24.84l-160.81 57.87 -1.65 0.6 -1.02 -1.43c-14.39,-20.23 -39.58,-16.63 -39.65,-16.62l0 -0c-14.59,1.91 -21.6,8.27 -23.78,15.73 -1.56,5.34 -0.74,11.32 1.5,16.68 2.25,5.4 5.91,10.13 10.01,12.93 4.28,2.93 9.04,3.65 12.9,0.47 17.63,-14.54 30.94,-5.91 34.47,-3.06 13.44,-2.44 148.11,-26.63 217.83,-30.26 69.71,-3.62 34.23,-78.24 34.13,-78.45l0 -0z"/>
    <polygon class="fil9" points="6639.75,4801.67 6648.96,4823.64 6753.9,4767.37 6740.07,4743.74 "/>
    <path class="fil9" d="M6627.93 5065.07c0,0 -3.54,-5.09 -7.15,-20.14l-297.85 0c0.66,8.77 1.47,15.69 2.46,20.14l302.54 0z"/>
    <path class="fil10" d="M6391 6002.36l0 74.46 -182.68 0c-13.44,-24.43 17.42,-28.92 33.21,-34.63 28.22,-10.21 64.11,-31.35 73.91,-39.83l75.56 0z"/>
    <path class="fil10" d="M6734.48 6002.36l0 74.46 -132.36 0c-9.73,-24.43 12.62,-28.92 24.07,-34.63 20.45,-10.21 28.27,-30.44 35.37,-38.93l72.93 -0.91z"/>
   </g>
   <path class="fil8" d="M6128.37 6076.83l594.41 0c153.51,-29.76 31.67,-157.58 17.71,-226.81 -105.49,-523.04 698.81,-522.72 592.26,0.92 -13.9,68.38 -135.6,196.14 17.89,225.89l594.41 0c18.33,0 33.33,15 33.33,33.33l0 1816.67c0,18.33 -15,33.33 -33.33,33.33l-1816.67 0c-18.33,0 -33.33,-15 -33.33,-33.33l0 -594.41c29.75,-153.5 157.51,-31.79 225.89,-17.89 523.63,106.56 523.95,-697.74 0.92,-592.26 -69.23,13.96 -197.06,135.8 -226.81,-17.71l0 -594.41c0,-18.33 15,-33.33 33.33,-33.33z"/>
   <path class="fil7" d="M3924.74 6110.16l0 594.41c29.76,153.51 157.58,31.67 226.81,17.71 523.04,-105.49 522.72,698.81 -0.92,592.26 -68.38,-13.9 -196.14,-135.6 -225.89,17.89l0 594.41c0,18.33 -15,33.33 -33.33,33.33l-1816.67 0c-18.33,0 -33.33,-15 -33.33,-33.33l0 -1816.67c0,-18.33 15,-33.33 33.33,-33.33l594.41 0c153.5,29.75 31.79,157.51 17.89,225.89 -106.56,523.63 697.74,523.95 592.26,0.92 -13.96,-69.23 -135.8,-197.06 17.71,-226.81l594.41 0c18.33,0 33.33,15 33.33,33.33z"/>
   <path class="fil8" d="M3891.41 6076.83l-594.41 0c-153.51,29.76 -31.67,157.58 -17.71,226.81 105.49,523.04 -698.81,522.72 -592.26,-0.92 13.9,-68.38 135.6,-196.14 -17.89,-225.89l-594.41 0c-18.33,0 -33.33,-15 -33.33,-33.33l0 -1816.67c0,-18.33 15,-33.33 33.33,-33.33l1816.67 0c18.33,0 33.33,15 33.33,33.33l0 594.41c-29.75,153.5 -157.51,31.79 -225.89,17.89 -523.63,-106.56 -523.95,697.74 -0.92,592.26 69.23,-13.96 197.06,-135.8 226.81,17.71l0 594.41c0,18.33 -15,33.33 -33.33,33.33z"/>
   <path class="fil7" d="M4387.04 4641.32l0 -594.41c-29.76,-153.51 -157.58,-31.67 -226.81,-17.71 -523.04,105.49 -522.72,-698.81 0.92,-592.26 68.38,13.9 196.14,135.6 225.89,-17.89l0 -594.41c0,-18.33 15,-33.33 33.33,-33.33l1816.67 0c18.33,0 33.33,15 33.33,33.33l0 1816.67c0,18.33 -15,33.33 -33.33,33.33l-594.41 0c-153.5,-29.75 -31.79,-157.51 -17.89,-225.89 106.56,-523.63 -697.74,-523.95 -592.26,-0.92 13.96,69.23 135.8,197.06 -17.71,226.81l-594.41 0c-18.33,0 -33.33,-15 -33.33,-33.33z"/>
   <g>
    <path class="fil11" d="M5127.07 5887.13c6.74,-10.22 7.55,-18.8 9.04,-31.2 2.03,67.43 63.91,89.73 120.85,134.25 138.19,-101.37 171.22,-170.24 142.66,-361.8 -6,-40.23 -21.09,-80.17 -45.46,-95.37 -54.12,-33.76 -50.61,-50.01 -97.57,-47.9 -76.76,3.45 -123.74,76.14 -141.5,145.97 -22.89,89.99 -3.37,169.95 11.99,256.05z"/>
    <path class="fil12 str0" d="M5300.26 5791.63c2.78,-2.2 5.63,-4.76 8.61,-7.74 15.51,-15.54 31.96,-40.5 38.12,-67.81l-42.5 -158.7 -83.71 50.94 0 -18.69c-69.86,58.44 -74.29,141.77 -8.52,200.04l-33.77 143.68 151.65 1.04 -29.89 -142.76z"/>
    <path class="fil2" d="M5699.56 6093.73c0.17,5.46 -41.63,119.24 -47.23,136.04 -17.13,51.39 -83.37,-96.91 -94.07,-115.46 -14.26,-38.48 -52.74,-42.76 -52.74,-42.76l4.28 141.11c0,0 65.57,109.76 118.31,156.79 82.51,73.58 109.97,-244.07 119.7,-251.25 9.37,-7.04 -0.57,-8.36 11.78,-13.76 10,-4.36 24.89,-17.86 48.06,-22.3 16.39,-7.17 21.63,-18.09 21.63,-18.07 9.05,-10.5 12.45,-24.02 12.45,-36.48 0,-5.74 -0.71,-11.23 -1.92,-16.09 -1.2,-4.8 -2.87,-8.98 -4.8,-12.15 -2.2,-3.6 -4.59,-5.77 -6.78,-5.77 -3.9,0 -7.41,6.02 -11.42,13.49 0.09,-0.02 -13.99,18.98 -18.5,26.09 -2.87,2.24 -6.09,4 -9.77,5.07 -7.3,2.11 -17.26,1.87 -24.9,-1.25 -2.74,-1.12 -5.22,-2.61 -7.2,-4.48 -2.08,-1.96 -3.65,-4.35 -4.47,-7.19 -1.09,-3.74 -0.85,-8.17 1.25,-13.3l0.01 0c1.13,-2.77 1.08,-4.69 0.18,-5.76 -1.06,-1.25 -3.38,-1.68 -6.46,-1.23 -3.65,0.53 -8.1,2.32 -12.75,5.49 -8.54,5.83 -17.52,16.17 -23.21,31.72 0.24,-0.41 -12.35,21.62 -11.41,51.51z"/>
    <path class="fil3" d="M5705.11 6082.89c0.14,4.49 -21,63.38 -36.1,105.44 -6.78,18.87 -12.33,34.35 -14.15,39.8 -3.92,11.77 -10.19,15.1 -17.9,12.53 -23.27,-7.76 -59.77,-80.81 -77.79,-116.88l0.01 -0.01c-4.13,-8.27 -7.28,-14.56 -9.04,-17.62l-0.2 -0.43c-12.06,-32.56 -41.02,-41.1 -50.59,-43.07l4.41 145.69c5.35,8.89 71.21,117.46 124.64,165.11 18.22,16.25 33.68,13.11 46.8,-1.61 34.02,-38.14 53.72,-150.13 65.15,-215.1 4.93,-28.02 8.36,-47.53 11.61,-49.99l-0 -0c5,-3.76 10.41,-7.62 16.27,-11.28 5.87,-3.68 12.14,-7.13 18.8,-10.04 4.4,-1.92 8.77,-3.3 13.1,-4.65 6.25,-1.96 12.42,-3.9 18.03,-7.32 17.5,-10.69 23.56,-29.22 23.56,-45.87 0,-5.74 -0.71,-11.23 -1.92,-16.09 -1.2,-4.8 -2.87,-8.98 -4.8,-12.15 -2.2,-3.6 -4.59,-5.77 -6.78,-5.77 -4.22,0 -7.98,7.04 -12.41,15.34 -6.18,11.58 -13.52,25.32 -27.28,29.31 -7.3,2.11 -17.25,1.87 -24.9,-1.25 -2.74,-1.12 -5.22,-2.61 -7.2,-4.48 -2.08,-1.96 -3.65,-4.35 -4.47,-7.19 -1.09,-3.74 -0.85,-8.17 1.25,-13.29l0.01 0c1.13,-2.77 1.08,-4.69 0.18,-5.76 -1.06,-1.25 -3.38,-1.68 -6.46,-1.23 -3.65,0.53 -8.1,2.32 -12.75,5.49 -14.54,9.91 -30.31,32.89 -29.07,72.37l0 0.01zm-41.2 103.62c14.95,-41.65 35.88,-99.94 35.78,-103.47 -1.32,-41.76 15.73,-66.31 31.42,-77.02 5.36,-3.65 10.63,-5.74 15.04,-6.38 4.98,-0.72 9.06,0.37 11.37,3.1 2.2,2.6 2.68,6.43 0.69,11.3l0.01 0c-1.6,3.93 -1.83,7.15 -1.07,9.75 0.53,1.84 1.58,3.43 2.98,4.75 1.5,1.42 3.4,2.56 5.53,3.42 6.54,2.67 15.08,2.87 21.35,1.06 11.57,-3.35 18.32,-16 24.02,-26.66 5.26,-9.86 9.73,-18.22 17.19,-18.22 4.21,0 8.21,3.15 11.41,8.38 2.21,3.63 4.11,8.33 5.44,13.68 1.31,5.29 2.09,11.23 2.09,17.39 0,18.25 -6.73,38.63 -26.17,50.5 -6.19,3.78 -12.67,5.81 -19.24,7.87 -4.21,1.32 -8.46,2.66 -12.55,4.44 -6.44,2.81 -12.48,6.13 -18.1,9.66 -5.65,3.54 -10.95,7.32 -15.89,11.03l-0.02 0.01c-1.48,1.09 -4.77,19.76 -9.49,46.58 -11.53,65.54 -31.41,178.5 -66.44,217.78 -15.33,17.19 -33.33,20.91 -54.47,2.05 -56.25,-50.17 -125.84,-166.65 -126.04,-166.98l-0.38 -1.32 -4.54 -149.71 -0.09 -3.15 3.13 0.39c0.12,0.01 42.31,4.7 58.09,46.91 1.78,3.11 4.94,9.45 9.07,17.72l0.01 0c17.69,35.41 53.53,107.13 74.63,114.17 4.51,1.5 8.35,-0.96 11.06,-9.09 1.87,-5.62 7.43,-21.07 14.19,-39.93z"/>
    <rect class="fil2" x="4926.6" y="7807.15" width="79.42" height="56.57"/>
    <path class="fil6" d="M4926.6 7866.92l79.42 0 3.2 0 0 -3.2 0 -56.57 0 -3.2 -3.2 0 -79.42 0 -3.2 0 0 3.2 0 56.57 0 3.2 3.2 0zm76.22 -6.39l-73.02 0 0 -50.18 73.02 0 0 50.18z"/>
    <rect class="fil2" x="5400.2" y="7810.87" width="79.42" height="56.57"/>
    <path class="fil6" d="M5400.2 7870.64l79.42 0 3.2 0 0 -3.2 0 -56.57 0 -3.2 -3.2 0 -79.42 0 -3.19 0 0 3.2 0 56.57 0 3.2 3.19 0zm76.22 -6.39l-73.02 0 0 -50.18 73.02 0 0 50.18z"/>
    <polygon class="fil7" points="5492.24,7820.41 5469.87,6523.05 5080.02,6523.05 4915.08,7820.41 5011.48,7820.41 5278.15,6788.27 5389.3,7820.41 "/>
    <polygon class="fil7" points="4918.06,7796.95 4915.08,7820.41 5011.48,7820.41 5017.54,7796.95 "/>
    <path class="fil8" d="M5062.69 6570.87c0,0 46.31,-66.3 -1.72,-396.27l-27.15 64.74 -144.1 -77.27 105.77 -180.71c10.11,-17.29 6.38,-16.56 24.83,-23.69l167.8 -65.08c11.26,14.41 38.04,24.11 67.46,24.11 29.43,0 55.22,-9.96 66.45,-24.41l155.87 41.77c20.18,5.39 15.33,3.36 24.55,21.95l121.84 245.22 -126.37 54.79 -15.63 -84.03c0,0 8.35,342.49 -4.18,398.88l-415.43 0z"/>
    <path class="fil9" d="M5475.34 6152.81c0.01,0.02 9.11,8.48 6.95,19.18l0 0 0 0c2.8,-13.91 -0.66,-23.57 -0.68,-23.59l-6.28 4.41z"/>
    <path class="fil9" d="M5041.3 6124.07c0.06,0.09 26.42,34.41 19.67,50.52l0 0 0 0c8.4,-20.04 -13.26,-54.74 -13.33,-54.85l-6.33 4.32z"/>
    <polygon class="fil9" points="5608.29,6169 5624.3,6201.22 5497.93,6256.02 5491.73,6222.74 "/>
    <path class="fil2" d="M5443.01 6221.33l-130.77 0c-6.9,0 -10.21,6.06 -12.54,12.54l-68.79 191.67c-2.33,6.48 5.65,12.54 12.54,12.54l130.77 0c6.89,0 10.21,-6.05 12.54,-12.54l68.79 -191.67c2.33,-6.49 -5.64,-12.54 -12.54,-12.54z"/>
    <path class="fil3" d="M5443.01 6219.04l-130.77 0c-4.22,0 -7.33,1.83 -9.72,4.65 -2.2,2.57 -3.73,5.95 -4.97,9.41l-68.79 191.68c-0.38,1.06 -0.56,2.09 -0.56,3.09 0,2.67 1.2,5.15 3.08,7.18 1.75,1.89 4.15,3.41 6.71,4.33 1.78,0.64 3.65,1 5.45,1l130.77 0c4.21,0 7.32,-1.83 9.72,-4.64 2.2,-2.57 3.73,-5.95 4.98,-9.42l68.79 -191.67 0.01 0c0.37,-1.05 0.55,-2.08 0.55,-3.1 0,-2.68 -1.19,-5.15 -3.08,-7.18 -1.75,-1.89 -4.14,-3.41 -6.7,-4.32 -1.79,-0.64 -3.66,-1 -5.46,-1zm-130.77 4.59l130.77 0c1.3,0 2.65,0.26 3.93,0.71 1.88,0.68 3.63,1.78 4.89,3.14 1.13,1.21 1.84,2.62 1.84,4.06 0,0.51 -0.09,1.03 -0.28,1.56l0.01 0 -68.79 191.67c-1.08,3.02 -2.38,5.92 -4.15,7.99 -1.56,1.83 -3.57,3.03 -6.24,3.03l-130.77 0c-1.3,0 -2.64,-0.26 -3.91,-0.71 -1.88,-0.68 -3.63,-1.78 -4.9,-3.14 -1.13,-1.22 -1.85,-2.63 -1.85,-4.07 0,-0.52 0.09,-1.05 0.27,-1.56l68.79 -191.67c1.08,-3.02 2.38,-5.91 4.15,-7.98 1.56,-1.83 3.56,-3.04 6.24,-3.04z"/>
    <path class="fil2" d="M4929.3 6165.88l-50.91 100.5c0,0 -50.9,107.03 49.6,112.25 100.5,5.22 300.2,41.77 300.2,41.77 0,0 18.27,-18.27 44.37,3.26 26.11,21.54 73.1,-59.39 3.26,-68.52 0,0 -36.55,-5.22 -57.43,24.15l-221.24 -79.62c0,0 -29.37,-1.31 -13.05,-29.37 16.31,-28.06 34.59,-54.17 34.59,-54.17l-89.41 -50.25z"/>
    <path class="fil3" d="M4926.46 6164.44l-50.91 100.5 -0.05 0.09c-0.15,0.32 -52.94,111.31 52.33,116.78 100.32,5.21 299.22,41.61 299.8,41.72l1.61 0.3 1.17 -1.13c0.05,-0.04 16.26,-16.28 40.15,3.43 7.87,6.49 17.18,5.3 25.36,-0.3 6.61,-4.52 12.48,-12.04 16.04,-20.57 3.58,-8.59 4.87,-18.29 2.28,-27.12 -3.67,-12.52 -14.91,-23.13 -37.98,-26.15l-0.02 -0.01c-0.11,-0.01 -36.76,-5.24 -58.96,23.52l-219.02 -78.82 -0.94 -0.19c-0.07,-0 -24.1,-1.07 -10.43,-24.59 16.28,-27.99 34.39,-53.87 34.44,-53.94l2.02 -2.88 -3.06 -1.73 -89.41 -50.25 -2.9 -1.63 -1.51 2.98zm-45.17 103.28l49.35 -97.44 83.46 46.91c-5.19,7.56 -19.6,28.9 -32.74,51.5 -17.61,30.29 10.93,33.77 15.16,34.11l220.82 79.47 2.27 0.82 1.4 -1.97c19.75,-27.78 54.35,-22.83 54.45,-22.82l0 -0.01c20.04,2.63 29.66,11.36 32.66,21.6 2.15,7.34 1.02,15.55 -2.05,22.91 -3.09,7.42 -8.13,13.91 -13.74,17.75 -5.89,4.02 -12.42,5.02 -17.72,0.65 -24.2,-19.97 -42.49,-8.12 -47.33,-4.21 -18.46,-3.35 -203.37,-36.57 -299.11,-41.55 -95.72,-4.97 -47,-107.43 -46.87,-107.72l-0 0z"/>
    <polygon class="fil9" points="5046.46,6209.18 5033.81,6239.34 4889.71,6162.07 4908.7,6129.63 "/>
    <path class="fil9" d="M5062.69 6570.87c0,0 4.87,-6.99 9.81,-27.66l409 0c-0.91,12.05 -2.02,21.54 -3.38,27.66l-415.43 0z"/>
    <path class="fil10" d="M5388.03 7857.91l0 102.25 250.85 0c18.45,-33.55 -23.92,-39.71 -45.61,-47.56 -38.76,-14.02 -88.03,-43.04 -101.48,-54.7l-103.76 0z"/>
    <path class="fil10" d="M4916.39 7857.91l0 102.25 181.75 0c13.37,-33.55 -17.33,-39.71 -33.04,-47.56 -28.08,-14.02 -38.82,-41.8 -48.56,-53.45l-100.14 -1.24z"/>
    <path class="fil9" d="M5164.5 5901.75l23.62 -9.16c11.12,14.22 38.72,24.11 67.78,24.11 29.05,0 55.06,-10.14 66.14,-24.41l25.78 6.91c-8.56,24.69 -47.03,43.47 -91.28,43.47 -44.25,0 -81.96,-17.44 -92.04,-40.93z"/>
    <path class="fil3" d="M5214.38 5786.87c0.09,0.07 30.72,23.71 84.55,1.51l2.67 6.49c-57.57,23.74 -91.35,-2.32 -91.45,-2.39l4.23 -5.61z"/>
    <path class="fil3" d="M5258.87 5689.59c0.33,-0.74 -0.01,-1.6 -0.74,-1.93 -0.74,-0.33 -1.6,0.01 -1.93,0.74 -0.06,0.13 -20.24,44.27 7.25,39.69 0.8,-0.13 1.33,-0.89 1.2,-1.69 -0.13,-0.8 -0.89,-1.33 -1.69,-1.2 -22.02,3.67 -4.15,-35.51 -4.1,-35.62z"/>
    <path class="fil3" d="M5197.93 5649.06c-0.56,0.59 -0.52,1.52 0.06,2.07 0.59,0.56 1.52,0.53 2.07,-0.06 0.05,-0.05 16.5,-18.2 33.98,0.01 0.56,0.58 1.49,0.6 2.07,0.04 0.58,-0.56 0.6,-1.48 0.04,-2.07 -19.65,-20.47 -38.17,-0.04 -38.22,0.01z"/>
    <path class="fil3" d="M5217.05 5657.11c2.97,0 5.66,1.2 7.6,3.15l0.08 0.09c1.89,1.94 3.06,4.59 3.06,7.51 0,2.96 -1.2,5.65 -3.15,7.6l-1.04 -1.03 1.04 1.04 0 0c-1.94,1.94 -4.63,3.15 -7.6,3.15 -2.97,0 -5.66,-1.2 -7.6,-3.15l-0.08 -0.09c-1.89,-1.94 -3.07,-4.59 -3.07,-7.51 0,-2.96 1.2,-5.65 3.15,-7.59l1.04 1.03 -1.04 -1.04 0 0 0 0c1.94,-1.94 4.63,-3.15 7.6,-3.15zm5.53 5.22c-1.41,-1.41 -3.37,-2.29 -5.53,-2.29 -2.16,0 -4.12,0.88 -5.53,2.29l-0 -0c-1.41,1.42 -2.29,3.37 -2.29,5.53 0,2.12 0.85,4.05 2.21,5.46l0.08 0.07c1.41,1.41 3.37,2.29 5.53,2.29 2.16,0 4.11,-0.88 5.53,-2.29l0 0c1.41,-1.41 2.29,-3.37 2.29,-5.53 0,-2.12 -0.84,-4.05 -2.21,-5.46l-0.07 -0.07z"/>
    <path class="fil3" d="M5276.37 5649.06c-0.55,0.59 -0.52,1.52 0.06,2.07 0.59,0.56 1.52,0.53 2.07,-0.06 0.05,-0.05 16.5,-18.2 33.98,0.01 0.56,0.58 1.49,0.6 2.07,0.04 0.58,-0.56 0.6,-1.48 0.04,-2.07 -19.65,-20.47 -38.17,-0.04 -38.22,0.01z"/>
    <path class="fil3" d="M5295.49 5657.11c2.97,0 5.66,1.2 7.6,3.15l0.08 0.09c1.89,1.94 3.06,4.59 3.06,7.51 0,2.96 -1.2,5.65 -3.15,7.6l-1.04 -1.03 1.04 1.04 0 0c-1.94,1.94 -4.63,3.15 -7.6,3.15 -2.97,0 -5.66,-1.2 -7.6,-3.15l-0.08 -0.09c-1.89,-1.94 -3.07,-4.59 -3.07,-7.51 0,-2.96 1.21,-5.65 3.15,-7.59l1.04 1.03 -1.04 -1.04 0 0 0 0c1.94,-1.94 4.63,-3.15 7.6,-3.15zm5.53 5.22c-1.41,-1.41 -3.37,-2.29 -5.53,-2.29 -2.16,0 -4.11,0.88 -5.53,2.29l-0 -0c-1.41,1.42 -2.29,3.37 -2.29,5.53 0,2.12 0.85,4.05 2.21,5.46l0.08 0.07c1.41,1.41 3.37,2.29 5.53,2.29 2.16,0 4.11,-0.88 5.53,-2.29l0 0c1.41,-1.41 2.28,-3.37 2.28,-5.53 0,-2.12 -0.84,-4.05 -2.21,-5.46l-0.08 -0.07z"/>
    <path class="fil3" d="M5231.49 5748.91l54.57 0 0.66 -0.01 0 -0 0.12 0c1.07,-0.03 1.63,-0.01 1.95,1.09l0 -0 0.01 0.03 0 0 0.02 0.08c0.22,0.84 -0.13,1.18 -0.8,1.9 -0.06,0.07 -0.07,0.07 -0.5,0.56l-0.82 -0.72 0.82 0.72 -0.1 0.1c-2.85,3.2 -10.79,11.25 -21.11,14.39 -10.6,3.22 -23.6,1.36 -36.01,-15.82l-0 0c-0.47,-0.66 -0.32,-1.57 0.33,-2.05 0.26,-0.19 0.56,-0.28 0.86,-0.28l0 -0zm52.72 2.93l-49.78 0c10.89,13.7 21.96,15.17 31.03,12.41 8.57,-2.61 15.45,-8.93 18.74,-12.41zm2.57 -1.24l-0.19 0.06 0 0 0.19 -0.06zm-0.19 0.06l-0.32 0.09 0 0 0.32 -0.09 0 0z"/>
   </g>
   <polygon class="fil5" points="10000,8028.85 -0,8028.85 -0,7960.16 10000,7960.16 "/>
   <g>
    <path class="fil13 str0" d="M2275.19 5807.07c-0.74,-1.02 -4.76,1.82 -6.58,6.21 -32.02,103.8 -43.94,12.59 -83.86,78.64 -3.98,8.6 -10.83,27.81 -16.74,40.03 -8.93,14.5 -151.71,99.12 -236.53,169.95 -8.39,-78.86 -19.47,-178.33 -28.62,-244.24 -22.61,-162.99 -70.96,-151.99 -93.23,-144.14 -22.27,7.85 -45.33,28.44 -50.02,93.44 -4.1,56.67 58.76,379.26 132.45,438.74 37.24,32.47 191.43,-124.34 303.17,-276.58 22.14,-20.23 46.33,-27.67 65.04,-43.48 16.02,-13.52 28.94,-33.22 25.89,-54.62 -1.38,-9.69 -6.41,-57.74 -10.98,-63.95z"/>
    <rect class="fil12 str1" x="1666.33" y="7749.97" width="67.43" height="109.47"/>
    <rect class="fil12 str1" x="1334.75" y="7749.97" width="67.43" height="109.47"/>
    <path class="fil13 str0" d="M1134.1 6542.28c-12.09,53.21 -18.38,175.37 56.98,186.14 5.31,0.76 6.83,-12.54 0,-20.89 -23.02,-28.13 -59.63,-112.68 -7.98,-108.63 17.43,1.36 17.27,79.2 36.09,56.2 21.31,-26.04 -11.34,-92.99 -15.38,-115.58 -0.54,-3.06 0.54,-12.67 1.68,-24.67 2.81,-29.8 8.43,-74.86 8.43,-74.86l-79.53 -7.02c3.52,-1.32 20.69,70.87 -0.3,109.31z"/>
    <path class="fil14" d="M1310.29 5256.5c5.1,15.92 42.11,52.56 55.83,26.96l-8.88 -84.43c-0.07,-0.04 -0.13,-0.07 -0.2,-0.1 -8.46,-4.23 -19.44,-7.17 -28.83,-4.52 -1.42,0.42 -2.84,0.94 -4.17,1.61 -20.6,10.33 -19.73,41.88 -13.76,60.47z"/>
    <path class="fil6" d="M1265.5 6526.72c0.02,-105.32 26.92,-250.52 26.92,-250.52 0,0 434.11,-120.2 463.87,-8.09 26.41,99.5 26.63,184.81 30.23,259.46 1.14,24.41 -38.63,1242.57 -38.63,1242.57l-102.22 0c0,0 -19.86,-160.74 -40.58,-367.93 -0.09,-1.32 -0.19,-2.74 -0.37,-4.26 -0.38,-3.5 -0.67,-7.09 -1.04,-10.79 -0.29,-3.31 -0.67,-6.62 -0.95,-9.93 -8.99,-103.41 -11.16,-235.95 -11.16,-235.95 -20.31,-130.28 -55.6,-419.11 -66.71,-539.09 0,0 -40.7,408.81 -61.01,539.09 0,0 -2.17,132.54 -11.16,235.95 -0.28,3.31 -0.66,6.62 -0.94,9.93 -0.38,3.69 -0.66,7.28 -1.04,10.79 -0.19,1.51 -0.28,2.93 -0.37,4.26 -20.72,207.19 -37.37,367.93 -37.37,367.93l-94.61 0c0,0 -52.86,-1127.54 -52.84,-1243.41z"/>
    <path class="fil15" d="M1644.88 7774.05l101.41 0c5.06,0 9.17,-4.1 9.17,-9.16l0 -14.7c0,-5.06 -4.11,-9.16 -9.17,-9.16l-101.41 0c-5.06,0 -9.17,4.1 -9.17,9.16l0 14.7c0,5.06 4.1,9.16 9.17,9.16z"/>
    <path class="fil15" d="M1316.5 7774.05l101.41 0c5.06,0 9.16,-4.1 9.16,-9.16l0 -14.7c0,-5.06 -4.1,-9.16 -9.16,-9.16l-101.41 0c-5.06,0 -9.17,4.1 -9.17,9.16l0 14.7c0,5.06 4.1,9.16 9.17,9.16z"/>
    <path class="fil15" d="M1764.84 6303.92c0,0 -156.72,22.59 -477.18,0 0,0 -5.26,-15.02 4.76,-27.72 10.02,-12.71 416.43,-11.87 418.11,-11.87 1.68,0 48.7,-3.36 48.7,-3.36 0,0 12.91,31.33 5.61,42.96z"/>
    <path class="fil13" d="M1404.39 5492.35c2.22,-7.76 38.68,-25.25 37.27,-99.3l86.85 0 86.85 0c-1.41,74.06 24.39,87.92 26.61,95.68 2.03,0.82 61.42,46.72 61.42,46.72l-174.89 84.29 -174.89 -84.29c0,0 48.74,-42.28 50.77,-43.1z"/>
    <path class="fil3" d="M1400.16 5489.32c1.13,-2.21 3.2,-4.35 5.91,-7.16 10.16,-10.54 31.6,-32.75 30.53,-89.04l-0.1 -5.16 5.15 0 86.85 0 86.85 0 5.15 0 -0.1 5.16c-1.09,57.25 14.36,77.09 21.73,86.57 1.75,2.25 3.14,4.03 4.02,5.85 11.45,8.14 60.17,45.78 60.32,45.89l6.47 5.02 -7.37 3.55 -174.89 84.29 -2.2 1.06 -2.2 -1.06 -174.89 -84.29 -6.89 -3.32 5.74 -5.05c0.13,-0.11 39.62,-34.27 49.89,-42.32zm13.21 -0.14c-16.66,17.27 -32.65,29.46 -50.61,45.05l165.75 79.89 165.31 -79.67c-57.71,-44.57 -83.77,-52.59 -83.57,-136.32l-81.74 0 -81.76 0c-0.24,56.69 -22.61,79.89 -33.38,91.06z"/>
    <path class="fil13 str0" d="M1262.14 5606.44c0,0 -46.35,-52.24 -61.72,19.9 -14.31,67.13 -52.34,306.26 -74.84,445.02 -3.24,19.98 -4.74,40.11 -4.48,60.35 0.91,69.24 4.8,241.11 21.37,383.15 35.48,4.85 63.07,0 63.07,0 0,0 34.35,-289.72 34.35,-401.67 0,0 82.36,-271.61 82.33,-413.52 -0.02,-70.97 -60.09,-93.22 -60.09,-93.22z"/>
    <path class="fil14" d="M1696.25 5198.29c9.78,-4.93 22.91,-8.17 33.19,-3 20.61,10.36 19.72,41.88 13.76,60.49 -5.1,15.93 -42.12,52.57 -55.83,26.94l8.89 -84.43z"/>
    <path class="fil16" d="M1123.46 5941.23c60.56,24.08 96.83,41.72 147.21,38.49 0.2,39.9 -0.3,156.58 -15.52,206.36 -18.44,60.46 -24.69,101.06 49.78,93.3 74.46,-7.66 405.26,-0.4 427.23,0 8.06,0.1 15.41,-0.6 21.96,-2.31 11.28,-2.82 20.45,-8.17 27.3,-15.62 16.12,-17.23 19.95,-45.44 9.67,-79 -15.11,-49.78 -15.72,-166.46 -15.41,-206.36 47.56,3.12 82.62,-12.5 137.33,-34.46 3.32,-1.41 6.85,-2.72 10.38,-4.13 5.14,-2.02 8.06,-7.56 6.95,-12.9 -31.74,-160.11 -34.76,-285.96 -92.19,-351.75 -11.19,-12.8 -30.63,-24.19 -51.39,-33.65 -20.76,-9.47 -42.82,-16.93 -59.05,-21.97l-81.86 -32.28c0,0 -1.47,50.01 -122.79,50.81l-3.12 0c-43.53,0 -70.94,-5.24 -88.27,-11.99 -28.21,-13.7 -31.27,-34.81 -31.27,-34.81l-31.3 15.06 -28.92 9.67 -21.67 7.16c-32.34,9.87 -88.06,29.93 -110.43,55.62 -57.23,65.7 -60.35,191.35 -92,351.15 -1.2,5.74 2.02,11.48 7.36,13.6z"/>
    <path class="fil17" d="M1643.87 5493.18l0.03 2.12c0.09,-1.33 -0.03,-2.12 -0.03,-2.12z"/>
    <path class="fil5" d="M1742.1 5076.35c-1.56,-7.43 -11.32,-38.14 -34.51,-67.43 13.61,6.19 16.79,2.92 16.79,2.92 0,0 -6.93,-3.35 -29.91,-30.96 -23,-27.64 -57.13,-51.01 -103.02,-58.1 -11.87,-1.83 -27.76,-1.09 -45.44,1.25 -13.68,-2.24 -65.74,-16.74 -69.46,-25.54 -0.39,10.12 2.15,27.11 10.57,32.68 -41.85,-1.3 -19.12,92 -31.5,74.35 -7.81,13.05 -6.5,42.06 -3.32,51.4 -10.01,-10.51 -11.55,-19.01 -14.68,-32.18 -4.59,7.68 -8.75,15.76 -11.27,24.37 -4.43,15.11 -5.53,30.87 -3.77,46.27 -0.35,0.28 -0.66,0.56 -1,0.87 -14.65,13.39 -81.9,-85.7 -92.59,-71.42 -9.8,13.08 -14.33,29.28 -13.02,45.57 9.48,117.65 40.48,229.54 101.94,331.08 4.29,7.08 8.83,14.25 15.39,19.31 12.37,9.56 33.83,5.26 48.88,5.26 18.16,0 36.32,0 54.49,0 22.56,0 66.91,8.86 85.69,-5.77 6.08,-4.74 10.47,-11.28 14.52,-17.83 42.26,-68.38 66.37,-152.27 86.42,-229.6 5.01,-19.32 8.99,-38.94 12.9,-58.51 2.14,-10.73 8.23,-26.94 5.91,-38.01z"/>
    <path class="fil18" d="M1772.77 5832.31l2.92 143.79c47.56,3.12 82.62,-12.5 137.33,-34.46 -33.76,9.57 -112.13,28.98 -122.01,24.04 -12.49,-6.25 -18.25,-133.37 -18.25,-133.37z"/>
    <path class="fil18" d="M1273.2 5836.09l-2.93 143.78c-47.56,3.13 -82.62,-12.49 -137.33,-34.46 33.75,9.57 109.16,30.17 119.04,25.23 12.5,-6.25 21.22,-134.56 21.22,-134.56z"/>
    <path class="fil19" d="M1524.85 6602.19l24.01 222.84c0,0 32.79,-118.13 -24.01,-222.84z"/>
    <path class="fil19" d="M1524.85 6602.19l-28.79 277.94c0,0 -45.86,-108.18 28.79,-277.94z"/>
    <path class="fil10" d="M1319.83 7812.66l-10.32 147.5 262.17 0c19.28,-48.39 -25,-57.29 -47.67,-68.6 -40.5,-20.22 -94.47,-60.29 -108.53,-77.1l-95.66 -1.8z"/>
    <path class="fil10" d="M1651.41 7812.66l-10.32 147.5 262.17 0c19.28,-48.39 -25,-57.29 -47.67,-68.6 -40.5,-20.22 -94.46,-60.29 -108.53,-77.1l-95.66 -1.8z"/>
    <path class="fil11" d="M1393.35 5214.8c-19.54,-15.27 -36.63,-11.27 -46.24,3.88l-25.35 -156.26 -23.92 20.37c3.81,-16.41 10.07,-24.01 6.35,-36.26 -20.09,-65.61 115.81,-143.96 162.68,-169.43 50.7,-27.54 174.66,-84 231.15,-38.9l48.35 50.28 -11.77 -35.6c36.54,22.89 38.41,101.8 39.16,137.55 0.89,42.8 -46.78,161.01 -55.67,202.24 -12.91,-25.47 2.19,-86.99 11.48,-138.82l-239.33 89.49c-2.02,15.25 -63.12,-67.11 -65.09,-51.89 -10.21,78.6 1.69,38.95 -31.8,123.35z"/>
   </g>
  </g>
 </g>
</svg>
