<?xml version="1.0" encoding="UTF-8"?>
<!DOCTYPE svg PUBLIC "-//W3C//DTD SVG 1.1//EN" "http://www.w3.org/Graphics/SVG/1.1/DTD/svg11.dtd">
<!-- Creator: CorelDRAW -->
<svg xmlns="http://www.w3.org/2000/svg" xml:space="preserve" width="10in" height="10in" version="1.1" style="shape-rendering:geometricPrecision; text-rendering:geometricPrecision; image-rendering:optimizeQuality; fill-rule:evenodd; clip-rule:evenodd"
viewBox="0 0 10000 10000"
 xmlns:xlink="http://www.w3.org/1999/xlink"
 xmlns:xodm="http://www.corel.com/coreldraw/odm/2003">
 <defs>
  <style type="text/css">
   <![CDATA[
    .str0 {stroke:#3145AD;stroke-width:16.67;stroke-miterlimit:2.61313}
    .fil5 {fill:none}
    .fil6 {fill:black}
    .fil14 {fill:#1B3165}
    .fil20 {fill:#1C3165}
    .fil16 {fill:#1F1F1F}
    .fil2 {fill:#253793}
    .fil21 {fill:#2B40A3}
    .fil9 {fill:#3145AD}
    .fil3 {fill:#4E64CA}
    .fil10 {fill:#7A95D7}
    .fil15 {fill:#87A6E3}
    .fil1 {fill:#B7CEF0}
    .fil12 {fill:#FBFBFB}
    .fil0 {fill:#FDFDFD}
    .fil8 {fill:white}
    .fil4 {fill:white}
    .fil13 {fill:#1B3165;fill-rule:nonzero}
    .fil19 {fill:#243793;fill-rule:nonzero}
    .fil11 {fill:#253793;fill-rule:nonzero}
    .fil7 {fill:#3145AD;fill-rule:nonzero}
    .fil17 {fill:#4E64CA;fill-rule:nonzero}
    .fil18 {fill:#87A6E3;fill-rule:nonzero}
   ]]>
  </style>
 </defs>
 <g id="Layer_x0020_1">
  <metadata id="CorelCorpID_0Corel-Layer"/>
  <rect class="fil0" width="10000" height="10000"/>
  <path class="fil1" d="M6459.37 1930.89c-2050.3,0 -2822.89,3647.41 -3011.45,3647.41 -1704.17,0 -4095.96,135.91 -3027.52,2507.06l8234.51 0c727.14,-622.31 1190.02,-1146.53 1190.02,-2607.41 0,-1460.89 -1561.28,-3547.06 -3385.56,-3547.06z"/>
  <rect class="fil2" y="8085.37" width="10000" height="120.17"/>
  <g id="_1092158408">
   <g>
    <path class="fil3" d="M3355.12 3426.1c-64.47,29 -199.28,98.87 -276.13,120.43 -9.26,2.6 -17.69,4.51 -25.05,5.54 -86.76,12.27 -154.06,87.34 -154.06,177.35l0 1808.33c0,98.5 80.59,179.1 179.1,179.1l634.33 0c-98.51,0 -179.1,-80.59 -179.1,-179.1l0 -2371.33c0,98.51 -80.59,215.36 -179.1,259.68z"/>
    <g>
     <rect class="fil4 str0" x="3534.23" y="1397.72" width="3136.74" height="4319.14" rx="179.11" ry="160.87"/>
     <path class="fil5 str0" d="M3713.32 5716.86l-634.33 0c-98.51,0 -179.1,-80.6 -179.1,-179.1l0 -1808.33c0,-90 67.3,-165.07 154.06,-177.35 68.35,-9.66 228.92,-93.48 301.17,-125.98 98.51,-44.32 179.1,-161.17 179.1,-259.68"/>
     <path class="fil5 str0" d="M3079 3550.32l0 -1659.07c0,-98.49 80.59,-179.1 179.1,-179.1l276.13 0"/>
    </g>
   </g>
   <g>
    <path class="fil3" d="M7286.07 2226.72l-2702.76 0c-107.08,0 -194.69,87.61 -194.69,194.69l0 62.99 3092.13 0 0 -62.99c0,-107.08 -87.61,-194.69 -194.69,-194.69z"/>
    <path class="fil6" d="M4581.89 2304.02l60.13 0c11.81,0 21.47,9.66 21.47,21.47l0 60.13c0,11.81 -9.66,21.47 -21.47,21.47l-60.13 0c-11.81,0 -21.47,-9.66 -21.47,-21.47l0 -60.13c0,-11.81 9.66,-21.47 21.47,-21.47z"/>
    <path class="fil6" d="M4788.02 2304.02l60.13 0c11.81,0 21.47,9.66 21.47,21.47l0 60.13c0,11.81 -9.66,21.47 -21.47,21.47l-60.13 0c-11.81,0 -21.47,-9.66 -21.47,-21.47l0 -60.13c0,-11.81 9.66,-21.47 21.47,-21.47z"/>
    <path class="fil6" d="M4994.17 2304.02l60.13 0c11.81,0 21.47,9.66 21.47,21.47l0 60.13c0,11.81 -9.66,21.47 -21.47,21.47l-60.13 0c-11.81,0 -21.47,-9.66 -21.47,-21.47l0 -60.13c0,-11.81 9.66,-21.47 21.47,-21.47z"/>
   </g>
   <path class="fil7" d="M7286.07 2236.26l-2702.76 0c-50.91,0 -97.19,20.83 -130.75,54.39 -33.56,33.56 -54.39,79.85 -54.39,130.75l0 3424.26c0,50.9 20.83,97.19 54.39,130.75 33.56,33.56 79.85,54.39 130.75,54.39l2702.76 0c50.91,0 97.19,-20.83 130.75,-54.39 33.56,-33.56 54.39,-79.85 54.39,-130.75l0 -3424.26c0,-50.91 -20.83,-97.19 -54.39,-130.75 -33.56,-33.56 -79.85,-54.39 -130.75,-54.39zm-2702.76 -19.09l2702.76 0c56.17,0 107.24,22.97 144.25,59.98 37.01,37.01 59.98,88.07 59.98,144.25l0 3424.26c0,56.17 -22.97,107.23 -59.98,144.25 -37.01,37.01 -88.07,59.98 -144.25,59.98l-2702.76 0c-56.17,0 -107.24,-22.97 -144.25,-59.98 -37.01,-37.02 -59.98,-88.07 -59.98,-144.25l0 -3424.26c0,-56.17 22.97,-107.24 59.98,-144.25 37.01,-37.01 88.07,-59.98 144.25,-59.98z"/>
   <path class="fil4" d="M7471.22 2484.4l-3073.05 0 0 3361.27c0,50.9 20.83,97.19 54.39,130.75 33.56,33.56 79.85,54.39 130.75,54.39l2702.76 0c50.91,0 97.19,-20.83 130.75,-54.39 33.56,-33.56 54.39,-79.85 54.39,-130.75l0 -3361.27z"/>
   <path class="fil3" d="M6931.05 1883.15l-2702.76 0c-107.08,0 -194.69,87.61 -194.69,194.69l0 62.99 3092.13 0 0 -62.99c0,-107.08 -87.61,-194.69 -194.69,-194.69z"/>
   <path class="fil7" d="M6931.05 1892.69l-2702.76 0c-50.91,0 -97.19,20.83 -130.75,54.39 -33.56,33.56 -54.39,79.85 -54.39,130.75l0 3424.26c0,50.91 20.83,97.19 54.39,130.75 33.56,33.56 79.85,54.39 130.75,54.39l2702.76 0c50.91,0 97.19,-20.83 130.75,-54.39 33.56,-33.56 54.39,-79.85 54.39,-130.75l0 -3424.26c0,-50.91 -20.83,-97.19 -54.39,-130.75 -33.56,-33.56 -79.85,-54.39 -130.75,-54.39zm-2702.76 -19.09l2702.76 0c56.17,0 107.24,22.97 144.25,59.98 37.01,37.01 59.99,88.07 59.99,144.25l0 3424.26c0,56.17 -22.98,107.23 -59.99,144.25 -37.01,37.01 -88.07,59.98 -144.25,59.98l-2702.76 0c-56.17,0 -107.24,-22.97 -144.25,-59.98 -37.01,-37.02 -59.98,-88.07 -59.98,-144.25l0 -3424.26c0,-56.17 22.97,-107.24 59.98,-144.25 37.01,-37.01 88.07,-59.98 144.25,-59.98z"/>
   <path class="fil8" d="M4226.86 1960.45l60.13 0c11.81,0 21.47,9.66 21.47,21.47l0 60.13c0,11.81 -9.66,21.47 -21.47,21.47l-60.13 0c-11.81,0 -21.47,-9.66 -21.47,-21.47l0 -60.13c0,-11.81 9.66,-21.47 21.47,-21.47z"/>
   <path class="fil8" d="M4433 1960.45l60.13 0c11.81,0 21.47,9.66 21.47,21.47l0 60.13c0,11.81 -9.66,21.47 -21.47,21.47l-60.13 0c-11.81,0 -21.47,-9.66 -21.47,-21.47l0 -60.13c0,-11.81 9.67,-21.47 21.47,-21.47z"/>
   <path class="fil8" d="M4639.15 1960.45l60.13 0c11.81,0 21.47,9.66 21.47,21.47l0 60.13c0,11.81 -9.66,21.47 -21.47,21.47l-60.13 0c-11.81,0 -21.47,-9.66 -21.47,-21.47l0 -60.13c0,-11.81 9.66,-21.47 21.47,-21.47z"/>
   <path class="fil4" d="M7116.2 2140.83l-3073.05 0 0 3361.27c0,50.91 20.83,97.19 54.39,130.75 33.56,33.56 79.85,54.39 130.75,54.39l2702.76 0c50.91,0 97.19,-20.83 130.75,-54.39 33.56,-33.56 54.39,-79.85 54.39,-130.75l0 -3361.27z"/>
   <rect class="fil4" x="4354.83" y="3440.61" width="2449.7" height="1889.29"/>
   <rect class="fil3" x="4354.83" y="2479.92" width="2449.7" height="96.05" rx="20174.23" ry="1200.83"/>
   <rect class="fil3" x="4354.83" y="2740.11" width="2449.7" height="96.05" rx="20174.23" ry="1200.83"/>
   <rect class="fil3" x="4354.83" y="3000.3" width="2449.7" height="96.05" rx="20174.23" ry="1200.83"/>
   <rect class="fil3" x="6372.08" y="4194.35" width="238.86" height="1135.55"/>
   <rect class="fil3" x="5916.16" y="3922.37" width="238.86" height="1407.53"/>
   <rect class="fil3" x="5460.24" y="4974.51" width="238.86" height="355.39"/>
   <rect class="fil3" x="5004.32" y="4458.87" width="238.86" height="871.03"/>
   <rect class="fil3" x="4548.4" y="4855.74" width="238.86" height="474.16"/>
   <path class="fil9" d="M4354.83 3427.13l2449.7 0c7.44,0 13.48,6.04 13.48,13.48l0 1889.28c0,7.44 -6.04,13.48 -13.48,13.48l-2449.7 0c-7.44,0 -13.48,-6.04 -13.48,-13.48l0 -1889.28c0,-7.45 6.03,-13.48 13.48,-13.48zm2436.22 26.96l-2422.74 0 0 1862.33 2422.74 0 0 -1862.33z"/>
  </g>
  <path class="fil10" d="M2193.61 8085.37l-1888.46 0 0 -1735.08c0,-84.36 69.02,-153.37 153.37,-153.37l1581.71 0c84.36,0 153.37,69.02 153.37,153.37l0 1735.08z"/>
  <g id="_745594240">
   <polygon class="fil2" points="2115.59,6132.41 2547.3,6132.41 2654.94,7663.55 2223.24,7663.55 "/>
   <path class="fil2" d="M2509.35 5840.46l0 0c118.72,0 126.13,185.9 79.01,294.86l-658.73 1523.19 -373.87 -215.85 658.73 -1523.19c47.13,-108.96 192.04,-138.37 294.85,-79.01z"/>
   <rect class="fil8" x="2316.12" y="7619.52" width="260.7" height="255.1"/>
   <path class="fil11" d="M2316.12 7608.76l260.7 0 10.77 0 0 10.77 0 255.09 0 10.77 -10.77 0 -260.7 0 -10.76 0 0 -10.77 0 -255.09 0 -10.77 10.76 0zm249.94 21.53l-239.17 0 0 233.57 239.17 0 0 -233.57z"/>
   <rect class="fil8" transform="matrix(0.699176 0.40367 -0.40367 0.699176 1655.95 7411.22)" width="322.92" height="315.97"/>
   <g>
    <polygon class="fil12" points="1079.86,3712.49 1071.37,4007.09 1346.19,4004.02 1340.91,3888.96 1337.3,3750.49 "/>
    <path class="fil7" d="M1086.63 3720.58l-8.06 279.43 260.29 -2.91 -4.95 -107.84 0 -0.14 -3.45 -132.56 -243.82 -35.99zm-22.26 286.31l8.5 -294.6 0.23 -7.9 7.78 1.15 257.43 37.99 5.83 0.86 0.15 5.91 3.6 138.34 0 0 5.28 115.06 0.33 7.22 -7.27 0.08 -274.82 3.06 -7.26 0.08 0.21 -7.27z"/>
    <path class="fil12" d="M1303.41 3222.54c-8.31,-8.86 -294.98,-7.71 -255,302.97 0,0 -75.32,-44.72 -56.49,68.26 0,0 0,40.02 56.49,37.67 0,0 65.02,260.98 234.94,236.41 169.92,-24.57 158.15,-186.98 158.15,-186.98l0 -277.75c0,0 33.74,-190.34 -138.09,-180.57z"/>
    <path class="fil13" d="M1298.31 3227.34c-1.11,-1.18 -16.96,-1.3 -41.17,1.81 -19.31,2.48 -42.92,7.7 -67.17,17.43 -24.14,9.68 -48.9,23.85 -70.66,44.28 -46.3,43.45 -79.17,115.56 -63.96,233.78l1.81 14.13 -12.3 -7.19c-0.18,-0.1 -62.39,-37.07 -46.04,61.05l0.08 0.96c0,0.09 -0.05,32.92 49.22,30.86l5.64 -0.23 1.41 5.5c0.19,0.72 63.54,254.86 227.18,231.19 163.44,-23.63 152.17,-179.16 152.14,-179.6l-0.03 -0.44 0 -277.75 0.11 -1.18c0.08,-0.52 32.19,-181.67 -130.79,-172.41l-3.26 0.19 -2.23 -2.38zm-42.93 -12.07c21.65,-2.79 39.19,-1.76 47.77,0.27 174.63,-9.83 147.42,175.48 145.37,188.08l0 277.25 -0 0c0.54,9.25 7.33,169.12 -164.19,193.93 -161.59,23.37 -230.76,-198.71 -241.26,-236.25 -54.44,-0.24 -57.92,-39.05 -58.14,-44.05 -16.13,-97.65 31.77,-89.73 55.07,-80.68 -12.02,-116.24 22.22,-188.61 69.69,-233.17 23.17,-21.74 49.46,-36.8 75.06,-47.07 25.47,-10.22 50.29,-15.7 70.63,-18.31z"/>
    <path class="fil14" d="M1046.64 3529.51c-22.32,-17.45 -41.85,-12.88 -52.83,4.43l-28.98 -178.56 -27.33 23.27c4.35,-18.76 11.51,-27.44 7.25,-41.43 -1.57,-5.11 -11.79,0.77 2.65,-30.87 16.59,-36.39 21.09,-51.02 46.18,-69.9 70.93,-53.36 36.78,-38.36 137.07,-92.83 57.94,-31.46 199.58,-95.99 264.14,-44.45l55.25 57.46 -13.44 -40.69c41.75,26.16 43.89,116.32 44.75,157.18 1.02,48.9 -29.98,148.11 -40.14,195.22 -14.75,-29.1 -20.98,-63.53 -10.35,-122.76l-337.84 -8.33c-2.3,17.43 -7.77,33.9 -10.03,51.3 -11.66,89.82 1.93,44.51 -36.33,140.95z"/>
    <path class="fil13" d="M1042.33 3535.02c-1.57,-1.22 -3.24,-2.4 -4.98,-3.5 -7.76,-4.92 -14.81,-6.67 -20.82,-5.84 -5.75,0.8 -10.81,4.05 -14.82,9.18l0 0.03c-0.67,0.85 -1.33,1.8 -1.98,2.81l-12.84 -2.63 -26.99 -166.31 -17.88 15.22 -11.36 -6.89c1.46,-6.28 3.2,-11.45 4.76,-16.06l0 -0.03c2.65,-7.81 4.65,-13.76 2.93,-20.64 -5.06,-3.52 -10.53,-7.98 2.67,-36.91 1.67,-3.66 3.44,-7.6 5.1,-11.3 13.22,-29.46 19.49,-43.42 43.25,-61.29 22.27,-16.75 34.05,-26.66 42.92,-34.12 19.97,-16.8 25.7,-21.62 95,-59.26 35.46,-19.26 101.98,-50.78 163.65,-61.15 41.44,-6.97 80.9,-4.44 108.21,17.36l0.69 0.63 33.85 35.2 -3.76 -11.38 10.37 -8.12c22.89,14.34 34.72,45.15 40.89,77.72 5.96,31.41 6.72,64.58 7.15,85.26 0.75,36.24 -15.3,98.18 -28.15,147.77 -4.87,18.8 -9.28,35.8 -12.13,49.04l-13.12 1.7c-7.73,-15.26 -13.24,-31.91 -15.41,-52.52 -1.94,-18.43 -1.19,-40.01 3.06,-66.59l-323.6 -7.98c-1.16,6.81 -2.66,13.38 -4.16,19.94l-0 0c-1.91,8.38 -3.83,16.77 -4.91,25.09 -2.79,21.52 -4.13,35.29 -5.09,45.08 -1.13,11.66 -1.74,17.89 -3.61,25.14 -2.14,8.31 -5.66,16.95 -13.19,35.49 -4.22,10.39 -9.65,23.74 -14.89,36.94l-3.45 8.7 -7.36 -5.76zm-27.72 -23.23c8.82,-1.22 18.59,0.85 28.78,6.96 5.3,-13.3 8.78,-21.85 11.63,-28.87 7.38,-18.16 10.83,-26.63 12.65,-33.69 1.58,-6.15 2.15,-12.02 3.22,-23 0.96,-9.85 2.31,-23.7 5.14,-45.52 1.19,-9.15 3.17,-17.79 5.13,-26.43l0 -0.02c1.9,-8.31 3.8,-16.62 4.89,-24.87l0.83 -6.24 6.28 0.15 337.85 8.33 8.16 0.2 -1.44 8.03c-5.19,28.9 -6.26,51.69 -4.26,70.73 1.09,10.33 3.11,19.58 5.89,28.12 2.18,-8.72 4.66,-18.32 7.28,-28.43 12.63,-48.77 28.41,-109.69 27.7,-143.99 -0.42,-20.17 -1.17,-52.53 -6.93,-82.95 -2.8,-14.8 -6.78,-29.11 -12.46,-41.17l1.75 5.29 -11.72 7.05 -54.86 -57.06c-23.7,-18.7 -59.17,-20.62 -96.87,-14.28 -59.76,10.06 -124.62,40.82 -159.26,59.63 -68.13,37.01 -73.61,41.61 -92.69,57.67 -9.07,7.63 -21.14,17.78 -43.52,34.62 -20.86,15.69 -26.65,28.59 -38.87,55.8 -1.52,3.38 -3.14,6.98 -5.15,11.4 -8.58,18.8 -7.82,19.32 -7.17,19.77 1.92,1.33 3.76,2.61 4.85,6.17 2.66,8.72 1.83,15.38 -0.26,22.63l9.12 -7.77 9.45 -8.05 1.99 12.24 26.66 164.31c4.78,-3.61 10.23,-5.94 16.21,-6.77z"/>
   </g>
   <path class="fil11" d="M1661.29 7401.93l225.78 130.35 9.32 5.38 -5.37 9.3 -127.55 220.92 -5.36 9.29 -9.31 -5.37 -225.78 -130.35 -9.27 -5.36 5.35 -9.28 127.55 -220.92 5.37 -9.3 9.26 5.35zm205.78 143.56l-207.2 -119.62 -116.81 202.33 207.19 119.63 116.82 -202.34z"/>
   <path class="fil8" d="M1337.83 4357.94l199.03 0 0 102.32c0,54.74 -44.78,99.51 -99.51,99.51l-0.01 0c-54.73,0 -99.51,-44.78 -99.51,-99.51l0 -102.32z"/>
   <g>
    <path class="fil15" d="M945.74 4637.25c-8.61,67.7 -83.37,332.59 -0.41,354.22 64.48,16.81 700.81,266.31 700.81,266.31l-72.88 224.26 -908.81 -224.65 -7.29 289.16 326.52 0c77.79,11.41 167.85,34.74 251.55,23.1 17.02,-2.37 20.35,-43.81 38.09,-45.56 108.37,-10.7 247.42,24.26 315.31,22.46 275.4,-7.31 203.29,1.93 203.29,-25.26l0 -248.45 168.19 83.06 64.48 -260.7 -128.94 -140.17c-23.17,-25.19 -211.06,-743.87 -231.26,-833.97 0,0 -8.41,-65.87 -61.67,-84.1 -53.26,-18.22 -252.31,-121.94 -252.33,-121.94 -7.42,31.28 -64.01,53.88 -143.74,53.88 -79.19,0 -129.43,-27.12 -137.59,-58.09l-15.79 4.2 -375.64 145.77c0,0 -54.33,15.27 -60.29,58.87 0,0 -35.67,261.87 -71.63,517.59l400.02 0zm392.08 -176.99l0 -102.32 199.03 0 0 102.32c0,54.74 -44.78,99.52 -99.52,99.52 -54.73,0 -99.52,-44.78 -99.52,-99.52z"/>
   </g>
   <path class="fil5" d="M1382.2 3931.44c-19.41,-9.96 -31.8,-16.42 -31.8,-16.42 -7.42,31.28 -64.01,53.88 -143.74,53.88 -79.19,0 -129.43,-27.12 -137.59,-58.09l-15.79 4.2 -4.94 1.92"/>
   <path class="fil5" d="M1382.2 3931.44c-19.41,-9.96 -31.8,-16.42 -31.8,-16.42 -7.42,31.28 -64.01,53.88 -143.74,53.88 -79.19,0 -129.43,-27.12 -137.59,-58.09l-15.79 4.2 -4.94 1.92"/>
   <path class="fil2" d="M664.17 5546.55l1614.01 0c148.01,0 269.11,121.11 269.11,269.11l0 381.25 -1491.34 0c-222.01,0 -414.35,-181.91 -403.67,-403.67l11.89 -246.69z"/>
   <path class="fil2" d="M657.38 5538.15l-2.52 201.74c0,0 59.72,-137.87 341.91,-193.33l-339.39 -8.41z"/>
   <path class="fil16" d="M1508.3 7582.08l-88.21 284.41 697.72 216.39c80.26,-77.39 -32.27,-131.09 -85.83,-171.62 -95.7,-72.43 -207.72,-195.66 -235.08,-239.68l-288.59 -89.5z"/>
   <path class="fil16" d="M2292.15 7787.59l0 297.78 730.5 0c53.73,-97.69 -69.65,-115.65 -132.81,-138.49 -112.86,-40.83 -256.35,-125.35 -295.53,-159.29l-302.15 0z"/>
   <path class="fil8" d="M1461.96 5321.29c202.83,-0.68 276.47,-41.74 432.06,122.47l-34.18 79.84c-13.39,31.28 -116.12,-144.3 -211.04,-54.67l-276.18 -39.68 89.33 -107.97z"/>
   <path class="fil17" d="M1461.95 5310.56c36.18,-0.12 68.67,-1.56 98.16,-2.87 136.69,-6.07 210.89,-9.37 341.69,128.67l4.87 5.14 -2.77 6.46 -34.18 79.84c-4.8,11.2 -12.86,13.03 -23.83,8.34 -8.62,-3.69 -19.4,-13.08 -32.61,-24.6 -38.61,-33.65 -100.87,-87.91 -157.13,-34.79l-3.76 3.55 -5.11 -0.74 -276.18 -39.68 -18.98 -2.73 12.21 -14.76 89.33 -107.97 3.19 -3.85 5.09 -0.02zm99.09 18.57c-28.1,1.25 -58.93,2.62 -93.98,2.85l-73.94 89.36 252.21 36.24c69.1,-60.61 138.65,-0.03 182.07,37.82 10.15,8.84 18.69,16.28 24.4,19.68l29.55 -69.03c-121.08,-125.76 -191.69,-122.64 -320.31,-116.92z"/>
   <path class="fil15" d="M547.39 4625.43c-28.59,203.3 -59.02,414.53 -70.2,475.37 -25.02,136.24 94.11,133.56 187,156.53l909.07 224.71 72.88 -224.26c0,0 -636.34,-249.49 -700.81,-266.31 -82.96,-21.64 -8.2,-286.52 0.41,-354.22l-398.36 -11.81z"/>
   <rect class="fil8" x="1257.34" y="5486.99" width="1267.41" height="54.62"/>
   <path class="fil7" d="M1268.11 5530.84l1245.89 0 0 -33.08 -1245.89 0 0 33.08zm1256.65 21.53l-1267.41 0 -10.77 0 0 -10.76 0 -54.62 0 -10.76 10.77 0 1267.41 0 10.77 0 0 10.76 0 54.62 0 10.76 -10.77 0z"/>
   <path class="fil17" d="M959.15 4616.82l-39.62 311.52 -1.35 4.04c-0.06,0.1 -20.88,35.48 29.84,48.71 65.27,17.02 700.21,265.97 702.04,266.69l9.44 3.69 -3.13 9.63 -72.88 224.26 -3.09 9.5 -9.7 -2.4 -906.36 -230.92 -16.75 -8.04 918.54 215.7 66.67 -205.13c-78.81,-30.86 -630.96,-246.79 -690.16,-262.23 -69.67,-18.17 -49.46,-67.49 -44.14,-78.18l35.4 -278.33 25.25 -28.53zm832.78 659.77l-67.9 -25.34c-52.12,-11.93 -143.19,-250.67 -192.18,-379.13 -9.02,-23.64 -16.59,-43.51 -22.05,-57.14 -2.05,-5.14 -25.84,-66.11 -27.26,-69.35 43.66,50.39 43.33,50.47 67.26,113.22 0.7,1.85 1.42,3.72 2.14,5.61 21.3,55.84 106.75,308.25 164.7,361.34 17.03,15.61 77.21,45.81 100.48,59.47l-25.2 -8.69z"/>
   <path class="fil8" d="M1822.04 5541.61l787 0c19.55,0 28.91,-17.15 35.54,-35.54l243.73 -675.3c6.63,-18.39 -16.02,-35.54 -35.54,-35.54l-787 0c-19.52,0 -28.92,17.18 -35.54,35.54l-243.73 675.3c-6.62,18.36 15.99,35.54 35.54,35.54z"/>
   <path class="fil7" d="M1822.04 5530.84l787 0c6.17,0 10.8,-2.8 14.46,-7.09 4.61,-5.4 8.06,-13.17 11,-21.3l243.72 -675.3 0 -0.04c0.34,-0.95 0.5,-1.95 0.5,-2.95 0,-2.91 -1.57,-5.91 -4.06,-8.58 -3.13,-3.37 -7.45,-6.11 -12.14,-7.8 -3.17,-1.14 -6.52,-1.78 -9.76,-1.78l-787 0c-6.15,0 -10.79,2.81 -14.45,7.1 -4.61,5.41 -8.07,13.17 -11,21.29l-243.73 675.3c-0.34,0.94 -0.5,1.95 -0.5,2.99 0,2.92 1.57,5.91 4.06,8.59 3.12,3.37 7.46,6.11 12.15,7.81 3.16,1.14 6.5,1.78 9.75,1.78zm787 21.53l-787 0c-5.59,0 -11.43,-1.12 -16.98,-3.12 -7.89,-2.85 -15.24,-7.54 -20.64,-13.36 -6.04,-6.51 -9.86,-14.5 -9.86,-23.22 0,-3.3 0.59,-6.72 1.85,-10.22l243.72 -675.3c3.7,-10.24 8.25,-20.25 14.87,-28.02 7.56,-8.88 17.39,-14.67 30.76,-14.67l787 0c5.61,0 11.43,1.13 16.99,3.13 7.88,2.84 15.23,7.53 20.63,13.35 6.04,6.51 9.86,14.49 9.86,23.22 0,3.33 -0.59,6.77 -1.85,10.27l-0.01 -0.01 -243.71 675.27c-3.7,10.25 -8.25,20.26 -14.87,28.03 -7.56,8.88 -17.39,14.66 -30.77,14.66z"/>
   <polygon class="fil2" points="2648.43,7570.89 2654.93,7663.43 2223.23,7663.43 2216.73,7570.89 "/>
   <polygon class="fil2" points="1966.61,7573 1929.63,7658.5 1555.76,7442.65 1592.74,7357.16 "/>
   <circle class="fil9" cx="2337.4" cy="5168.42" r="98.11"/>
   <path class="fil3" d="M1015.16 3929.81c0,0 93.55,174.45 405.6,21.29l-70.36 -36.09c0.03,-0.94 -11.72,53.69 -143.74,53.88 -132.02,0.2 -133.49,-59.91 -137.59,-58.09l-15.79 4.2 -38.13 14.8z"/>
  </g>
  <g>
   <g id="_745594024">
    <polygon class="fil12" points="8850.87,2873.11 8860.59,3210.38 8545.96,3206.87 8552.01,3075.14 8556.14,2916.6 "/>
    <path class="fil7" d="M8843.12 2882.37l9.23 319.91 -298 -3.32 5.67 -123.47 0 -0.15 3.96 -151.76 279.14 -41.2zm25.48 327.79l-9.73 -337.27 -0.26 -9.04 -8.91 1.31 -294.72 43.5 -6.67 0.99 -0.17 6.77 -4.13 158.38 -0 0 -6.05 131.73 -0.38 8.26 8.32 0.09 314.63 3.51 8.31 0.09 -0.24 -8.32z"/>
    <path class="fil12" d="M8594.94 2312.18c9.51,-10.15 337.71,-8.83 291.94,346.86 0,0 86.24,-51.2 64.67,78.15 0,0 0,45.82 -64.67,43.13 0,0 -74.44,298.78 -268.98,270.65 -194.53,-28.13 -181.06,-214.07 -181.06,-214.07l0 -317.98c0,0 -38.62,-217.92 158.09,-206.73z"/>
    <path class="fil7" d="M8600.78 2317.67c1.26,-1.35 19.41,-1.49 47.13,2.07 22.11,2.84 49.14,8.81 76.91,19.96 27.63,11.09 55.98,27.31 80.9,50.69 53,49.75 90.63,132.3 73.22,267.64l-2.08 16.19 14.09 -8.24c0.2,-0.12 71.43,-42.44 52.7,69.89l-0.09 1.1c0,0.1 0.06,37.69 -56.35,35.33l-6.45 -0.26 -1.62 6.3c-0.21,0.83 -72.74,291.78 -260.08,264.69 -187.12,-27.06 -174.21,-205.11 -174.18,-205.62l0.04 -0.5 0 -317.98 -0.13 -1.35c-0.1,-0.59 -36.85,-207.98 149.73,-197.38l3.73 0.21 2.56 -2.72zm49.14 -13.82c-24.78,-3.19 -44.86,-2.01 -54.69,0.31 -199.93,-11.26 -168.78,200.89 -166.43,215.33l0 317.41 0 0c-0.61,10.59 -8.4,193.63 187.96,222.02 185,26.76 264.19,-227.49 276.21,-270.47 62.32,-0.27 66.3,-44.7 66.56,-50.43 18.47,-111.8 -36.37,-102.73 -63.05,-92.37 13.77,-133.07 -25.44,-215.93 -79.79,-266.94 -26.52,-24.89 -56.63,-42.13 -85.93,-53.89 -29.16,-11.7 -57.57,-17.98 -80.85,-20.97z"/>
    <path class="fil14" d="M8888.91 2663.61c25.55,-19.98 47.91,-14.74 60.48,5.07l33.17 -204.42 31.29 26.64c-4.98,-21.47 -13.18,-31.41 -8.3,-47.43 1.79,-5.85 13.5,0.89 -3.04,-35.34 -19,-41.66 -24.14,-58.41 -52.87,-80.02 -81.2,-61.09 -42.1,-43.92 -156.92,-106.28 -66.34,-36.02 -228.49,-109.89 -302.4,-50.89l-63.25 65.78 15.39 -46.57c-47.8,29.94 -50.26,133.17 -51.23,179.95 -1.16,55.98 34.32,169.57 45.96,223.5 16.89,-33.31 24.01,-72.73 11.85,-140.54l386.78 -9.54c2.64,19.95 8.89,38.81 11.48,58.73 13.35,102.83 -2.21,50.95 41.6,161.37z"/>
    <path class="fil13" d="M8893.84 2669.93c1.79,-1.4 3.7,-2.75 5.7,-4.01 8.88,-5.64 16.95,-7.64 23.84,-6.69 6.58,0.92 12.38,4.63 16.97,10.51l0 0.03c0.76,0.98 1.52,2.06 2.26,3.22l14.7 -3.02 30.9 -190.4 20.46 17.43 13 -7.89c-1.67,-7.19 -3.67,-13.11 -5.45,-18.39l0 -0.03c-3.03,-8.95 -5.32,-15.76 -3.35,-23.63 5.79,-4.03 12.06,-9.14 -3.06,-42.26 -1.91,-4.19 -3.94,-8.7 -5.84,-12.93 -15.13,-33.72 -22.31,-49.71 -49.52,-70.17 -25.5,-19.18 -38.98,-30.52 -49.13,-39.07 -22.86,-19.23 -29.43,-24.76 -108.75,-67.84 -40.61,-22.05 -116.76,-58.13 -187.35,-70.02 -47.44,-7.98 -92.61,-5.09 -123.88,19.87l-0.78 0.73 -38.75 40.3 4.31 -13.03 -11.87 -9.3c-26.2,16.42 -39.75,51.69 -46.81,88.97 -6.81,35.97 -7.69,73.94 -8.18,97.61 -0.86,41.48 17.52,112.41 32.22,169.18 5.57,21.52 10.62,40.98 13.89,56.14l15.02 1.95c8.85,-17.47 15.15,-36.54 17.64,-60.13 2.22,-21.09 1.37,-45.8 -3.5,-76.24l370.48 -9.13c1.33,7.8 3.05,15.32 4.77,22.83l0.01 0c2.19,9.59 4.39,19.2 5.62,28.72 3.2,24.63 4.73,40.4 5.82,51.61 1.3,13.35 2,20.48 4.13,28.78 2.45,9.51 6.48,19.41 15.11,40.63 4.83,11.9 11.04,27.18 17.04,42.29l3.95 9.96 8.43 -6.59zm31.73 -26.59c-10.1,-1.41 -21.28,0.98 -32.95,7.96 -6.07,-15.23 -10.05,-25.02 -13.31,-33.06 -8.45,-20.79 -12.39,-30.48 -14.48,-38.56 -1.81,-7.05 -2.47,-13.76 -3.69,-26.33 -1.09,-11.28 -2.65,-27.14 -5.89,-52.12 -1.36,-10.48 -3.62,-20.37 -5.88,-30.26l0 -0.03c-2.17,-9.51 -4.35,-19.03 -5.6,-28.47l-0.95 -7.15 -7.19 0.17 -386.78 9.53 -9.35 0.23 1.65 9.19c5.93,33.08 7.17,59.17 4.87,80.98 -1.25,11.83 -3.56,22.42 -6.74,32.2 -2.49,-9.98 -5.34,-20.98 -8.33,-32.54 -14.46,-55.83 -32.53,-125.58 -31.72,-164.85 0.48,-23.1 1.33,-60.14 7.93,-94.96 3.21,-16.94 7.76,-33.32 14.27,-47.13l-2 6.06 13.41 8.07 62.81 -65.32c27.13,-21.41 67.75,-23.61 110.91,-16.34 68.43,11.52 142.68,46.73 182.33,68.26 78,42.37 84.27,47.64 106.11,66.02 10.39,8.74 24.2,20.35 49.83,39.63 23.88,17.96 30.51,32.73 44.5,63.89 1.74,3.87 3.59,8 5.9,13.06 9.81,21.52 8.95,22.11 8.21,22.63 -2.2,1.52 -4.3,2.99 -5.55,7.06 -3.05,9.99 -2.09,17.61 0.3,25.91l-10.44 -8.89 -10.83 -9.21 -2.27 14.02 -30.52 188.11c-5.47,-4.13 -11.71,-6.8 -18.56,-7.75z"/>
   </g>
   <g id="_745590088">
    <path class="fil12" d="M7632.27 3586.19c-0.41,13.16 100.37,287.43 113.86,327.92 41.29,123.88 200.96,-233.61 226.78,-278.31 34.36,-92.77 127.13,-103.07 127.13,-103.07l-10.31 340.16c0,0 -158.05,264.57 -285.19,377.96 -198.89,177.38 -265.08,-588.34 -288.54,-605.66 -22.59,-16.96 -48.68,-34.72 -78.46,-47.73 -24.09,-10.52 -49.13,-13.96 -71.48,-27.6 -89.22,-54.48 -54.44,-192.93 -19.66,-192.93 29.5,0 39.6,86.55 91.9,101.72 33.17,9.61 92.26,-3.78 72.83,-51.34 -22.88,-56 126.86,-22.63 121.13,158.91z"/>
    <path class="fil7" d="M7622.57 3585.93c-0.33,10.87 47.88,145.16 82.29,241.01 15.36,42.8 27.96,77.88 32.07,90.22 9.71,29.13 25.53,37.25 45.15,30.72 54.29,-18.1 137.65,-184.94 178.82,-267.35 9.48,-18.98 16.69,-33.4 20.42,-39.85l0.72 -1.52c25.17,-67.95 83.42,-88.75 107.94,-94.63l-9.86 325.53c-15.13,25.09 -162.42,266.85 -282.03,373.53 -39.49,35.22 -72.95,28.46 -101.32,-3.36 -76.61,-85.9 -121.27,-339.72 -147.18,-487 -11.37,-64.6 -19.28,-109.56 -27.79,-115.84l-0 0c-11.4,-8.56 -23.76,-17.37 -37.17,-25.77 -13.51,-8.46 -27.91,-16.4 -43.19,-23.07 -10.21,-4.45 -20.22,-7.6 -30.14,-10.71 -13.99,-4.39 -27.8,-8.73 -40.16,-16.28 -38.49,-23.5 -51.82,-64.41 -51.82,-101.17 0,-12.77 1.58,-24.96 4.25,-35.72 2.63,-10.56 6.28,-19.7 10.49,-26.6 4.35,-7.12 8.74,-11.4 12.36,-11.4 7.46,0 15.54,15.12 25.06,32.96 14.37,26.91 31.43,58.85 64.13,68.33 17.26,5 40.8,4.43 58.9,-2.96 6.65,-2.72 12.64,-6.32 17.46,-10.89 5.18,-4.89 9.08,-10.85 11.13,-17.93 2.67,-9.22 2.11,-20.05 -2.98,-32.53 -2.01,-4.93 -2.18,-8.04 -0.98,-9.45 1.57,-1.87 5.7,-2.42 11.48,-1.58 7.79,1.13 17.37,5.01 27.46,11.89 32.27,22 67.28,73.19 64.5,161.4l0 0.04zm100.54 234.46c-33.87,-94.35 -81.33,-226.54 -81.14,-233.92 3.03,-96.39 -36.52,-153.2 -72.94,-178.03 -12.65,-8.62 -25.15,-13.55 -35.68,-15.08 -12.55,-1.83 -22.97,1.09 -29.05,8.28 -5.85,6.92 -7.22,16.87 -2.14,29.31 3.3,8.09 3.8,14.64 2.3,19.82 -1.02,3.54 -3.06,6.6 -5.8,9.19 -3.09,2.93 -7.03,5.28 -11.46,7.08 -14.15,5.78 -32.63,6.21 -46.2,2.28 -24.86,-7.2 -39.81,-35.22 -52.42,-58.83 -12.51,-23.43 -23.12,-43.3 -42.18,-43.3 -10.9,0 -21.03,7.79 -28.94,20.76 -5.22,8.54 -9.66,19.57 -12.77,32.08 -3.06,12.3 -4.87,26.09 -4.87,40.36 0,42.51 15.74,90.01 61.18,117.76 14.44,8.81 29.38,13.51 44.5,18.26 9.5,2.98 19.08,5.99 28.16,9.95 14.5,6.33 28.05,13.79 40.67,21.7 12.7,7.96 24.68,16.5 35.85,24.89l0.04 0.04c2.25,1.66 9.61,43.49 20.19,103.59 26.26,149.28 71.53,406.56 151.82,496.58 36.27,40.67 78.83,49.5 128.78,4.95 128.21,-114.34 286.59,-379.47 287.05,-380.24l1.37 -4.72 10.31 -340.16 0.34 -11.26 -11.18 1.34c-0.28,0.03 -98.12,10.91 -134.81,108.59 -4.32,7.6 -11.4,21.76 -20.61,40.2 -39.99,80.04 -120.96,242.1 -167.49,257.61 -8.16,2.72 -15.29,-2.31 -20.65,-18.39 -4.27,-12.79 -16.86,-47.87 -32.22,-90.67z"/>
    <g>
     <rect class="fil12" x="9304.12" y="7716.53" width="191.44" height="136.37"/>
     <path class="fil7" d="M9495.56 7860.6l-191.44 0 -7.7 0 0 -7.7 0 -136.37 0 -7.7 7.7 0 191.44 0 7.7 0 0 7.7 0 136.37 0 7.7 -7.7 0zm-183.74 -15.41l176.03 0 0 -120.96 -176.03 0 0 120.96z"/>
     <rect class="fil12" x="8162.47" y="7725.49" width="191.44" height="136.37"/>
     <path class="fil7" d="M8353.91 7869.57l-191.44 0 -7.7 0 0 -7.7 0 -136.37 0 -7.7 7.7 0 191.44 0 7.71 0 0 7.7 0 136.37 0 7.7 -7.71 0zm-183.73 -15.41l176.03 0 0 -120.96 -176.03 0 0 120.96z"/>
     <polygon class="fil2" points="8132.04,7748.48 8185.96,4621.09 9125.72,4621.09 9523.33,7748.48 9290.94,7748.48 8648.13,5260.44 8380.2,7748.48 "/>
     <polygon class="fil2" points="9516.14,7691.94 9523.33,7748.48 9290.94,7748.48 9276.34,7691.94 "/>
     <path class="fil15" d="M9167.52 4736.36c0,0 -111.63,-159.83 4.16,-955.24l65.44 156.06 347.36 -186.26 -254.97 -435.62c-24.38,-41.67 -15.37,-39.91 -59.87,-57.09l-404.49 -156.89c-27.14,34.72 -91.69,58.13 -162.62,58.13 -70.93,0 -133.13,-24.01 -160.19,-58.84l-375.74 100.68c-48.64,13 -36.94,8.11 -59.19,52.91l-293.71 591.11 304.64 132.08 37.69 -202.56c0,0 -20.14,825.61 10.07,961.53l1001.43 0z"/>
     <path class="fil3" d="M8172.78 3728.59c-0.04,0.05 -21.95,20.45 -16.76,46.24l0 0 0 0c-6.76,-33.54 1.58,-56.81 1.63,-56.88l15.13 10.65z"/>
     <path class="fil3" d="M9219.08 3659.33c-0.15,0.22 -63.69,82.96 -47.41,121.79l0 0 0 0c-20.26,-48.31 31.96,-131.96 32.13,-132.21l15.28 10.42z"/>
     <path class="fil3" d="M9131.31 4601.04c-3.82,-27.73 -7.12,-60.61 -9.31,-99.46 -6.83,-1.19 -13.82,-1.87 -21.08,-1.87 -26.26,0 -49.13,8.88 -72.93,18.7 -9.76,4.03 -26.99,11.7 -37.61,11.7 -10.61,0 -27.84,-7.67 -37.61,-11.7 -23.8,-9.81 -46.67,-18.7 -72.93,-18.7 -26.26,0 -49.13,8.88 -72.93,18.7 -9.76,4.03 -27,11.7 -37.61,11.7 -10.61,0 -27.84,-7.67 -37.61,-11.7 -23.8,-9.81 -46.67,-18.7 -72.93,-18.7 -26.26,0 -49.13,8.88 -72.93,18.7 -9.76,4.03 -27,11.7 -37.61,11.7 -10.61,0 -27.85,-7.67 -37.61,-11.7 -23.8,-9.81 -46.67,-18.7 -72.93,-18.7 -26.26,0 -49.13,8.88 -72.93,18.7 -9.76,4.03 -27,11.7 -37.61,11.7 -10.61,0 -27.84,-7.67 -37.61,-11.7 -23.8,-9.82 -46.68,-18.7 -72.93,-18.7 -23.39,0 -44.09,7.05 -65.15,15.53 0.78,35.52 1.83,68.65 3.19,98.27 8.13,-2.83 16.19,-6.09 24.36,-9.46 9.76,-4.03 26.99,-11.7 37.61,-11.7 10.61,0 27.84,7.67 37.61,11.7 23.8,9.82 46.68,18.7 72.93,18.7 26.26,0 49.13,-8.88 72.93,-18.69 9.76,-4.03 26.99,-11.7 37.61,-11.7 10.61,0 27.84,7.67 37.61,11.7 23.8,9.81 46.67,18.69 72.93,18.69 26.26,0 49.13,-8.88 72.93,-18.69 9.76,-4.03 26.99,-11.7 37.61,-11.7 10.61,0 27.84,7.67 37.61,11.7 23.8,9.81 46.67,18.69 72.93,18.69 26.26,0 49.13,-8.88 72.93,-18.69 9.76,-4.03 26.99,-11.7 37.61,-11.7 10.61,0 27.84,7.67 37.61,11.7 23.8,9.81 46.67,18.69 72.93,18.69 26.26,0 49.13,-8.88 72.93,-18.69 9.76,-4.03 26.99,-11.7 37.61,-11.7 8.33,0 20.72,4.72 30.39,8.7z"/>
     <path class="fil3" d="M8920.96 3123.48l-55.81 -22.17c-27.14,34.72 -91.69,58.13 -162.62,58.13 -70.93,0 -133.13,-24.01 -160.19,-58.84l-63.69 17.06c20.91,60.28 112.48,105.67 222.29,105.67 106.24,0 195.41,-42.49 220.02,-99.85z"/>
     <polygon class="fil3" points="7852.3,3767.63 7813.7,3845.31 8118.34,3977.39 8133.26,3897.18 "/>
     <path class="fil12" d="M8250.71 3893.78l315.23 0c16.63,0 24.62,14.61 30.23,30.23l165.83 462.05c5.61,15.62 -13.63,30.23 -30.23,30.23l-315.23 0c-16.6,0 -24.62,-14.58 -30.23,-30.23l-165.83 -462.05c-5.61,-15.65 13.6,-30.23 30.23,-30.23z"/>
     <path class="fil7" d="M8250.71 3888.25l315.23 0c10.17,0 17.66,4.43 23.43,11.2 5.3,6.21 8.98,14.35 11.98,22.7l165.83 462.05c0.91,2.54 1.34,5.04 1.34,7.46 0,6.45 -2.89,12.42 -7.44,17.31 -4.22,4.55 -9.99,8.22 -16.17,10.43 -4.3,1.54 -8.81,2.41 -13.15,2.41l-315.23 0c-10.15,0 -17.64,-4.42 -23.42,-11.19 -5.3,-6.21 -9,-14.35 -11.99,-22.71l-165.82 -462.05 -0.02 0c-0.9,-2.52 -1.32,-5.02 -1.32,-7.47 0,-6.45 2.88,-12.42 7.43,-17.31 4.23,-4.55 9.98,-8.21 16.16,-10.42 4.31,-1.54 8.83,-2.41 13.17,-2.41zm315.23 11.06l-315.23 0c-3.14,0 -6.38,0.62 -9.45,1.72 -4.55,1.63 -8.75,4.29 -11.8,7.57 -2.72,2.93 -4.44,6.33 -4.44,9.8 0,1.22 0.22,2.49 0.67,3.76l-0.02 0.01 165.82 462.04c2.61,7.28 5.74,14.26 10,19.25 3.77,4.42 8.6,7.3 15.05,7.3l315.23 0c3.13,0 6.37,-0.62 9.44,-1.72 4.54,-1.63 8.75,-4.3 11.8,-7.58 2.72,-2.93 4.45,-6.33 4.45,-9.8 0,-1.26 -0.21,-2.52 -0.65,-3.74l-165.82 -462.05c-2.61,-7.27 -5.73,-14.25 -9.99,-19.25 -3.77,-4.42 -8.6,-7.31 -15.06,-7.31z"/>
     <path class="fil12" d="M9489.04 3760.1l122.71 242.27c0,0 122.7,258.01 -119.57,270.59 -242.27,12.59 -723.67,100.69 -723.67,100.69 0,0 -44.05,-44.05 -106.98,7.87 -62.93,51.91 -176.2,-143.16 -7.87,-165.19 0,0 88.1,-12.59 138.44,58.2l533.31 -191.93c0,0 70.79,-3.15 31.46,-70.79 -39.33,-67.65 -83.38,-130.58 -83.38,-130.58l215.52 -121.13z"/>
     <path class="fil7" d="M9495.91 3756.64l122.7 242.27 0.13 0.21c0.36,0.77 127.62,268.33 -126.16,281.52 -241.82,12.56 -721.3,100.31 -722.68,100.56l-3.88 0.71 -2.83 -2.73c-0.11,-0.1 -39.2,-39.24 -96.77,8.26 -18.98,15.66 -41.41,12.79 -61.13,-0.71 -15.94,-10.91 -30.09,-29.03 -38.66,-49.59 -8.63,-20.7 -11.73,-44.09 -5.49,-65.39 8.84,-30.18 35.93,-55.76 91.56,-63.04l0.06 -0.03c0.26,-0.03 88.62,-12.65 142.14,56.7l527.96 -190.01 2.26 -0.45c0.16,-0 58.09,-2.59 25.14,-59.26 -39.23,-67.48 -82.89,-129.86 -83.01,-130.04l-4.86 -6.94 7.39 -4.16 215.52 -121.13 6.99 -3.93 3.63 7.17zm108.88 248.97l-118.96 -234.88 -201.19 113.08c12.51,18.22 47.25,69.67 78.92,124.15 42.45,73.01 -26.35,81.4 -36.53,82.23l-532.3 191.57 -5.47 1.98 -3.38 -4.75c-47.61,-66.95 -131.01,-55.05 -131.25,-55.02l-0 -0.02c-48.31,6.33 -71.49,27.39 -78.72,52.07 -5.18,17.69 -2.45,37.48 4.94,55.22 7.46,17.88 19.58,33.52 33.13,42.79 14.19,9.71 29.94,12.09 42.71,1.56 58.34,-48.13 102.42,-19.57 114.11,-10.15 44.51,-8.07 490.25,-88.16 721.02,-100.15 230.74,-11.98 113.3,-258.96 112.97,-259.67l0.02 -0z"/>
     <polygon class="fil3" points="9206.63,3864.48 9237.12,3937.18 9584.48,3750.92 9538.72,3672.74 "/>
     <path class="fil3" d="M9167.52 4736.36c0,0 -11.73,-16.85 -23.65,-66.67l-985.91 0c2.18,29.04 4.86,51.93 8.14,66.67l1001.43 0z"/>
     <path class="fil16" d="M8383.25 7838.88l0 246.49 -604.68 0c-44.48,-80.87 57.66,-95.73 109.94,-114.64 93.43,-33.8 212.2,-103.76 244.63,-131.85l250.11 0z"/>
     <path class="fil16" d="M9520.18 7838.88l0 246.49 -438.12 0c-32.22,-80.87 41.78,-95.73 79.66,-114.64 67.69,-33.8 93.57,-100.75 117.07,-128.85l241.4 -3z"/>
    </g>
   </g>
  </g>
  <g>
   <path class="fil18" d="M5358.11 6747.12c0.28,-0.04 95.39,-16.46 220.74,14.04 124.44,30.28 278.09,106.94 396.28,292.15 87.05,136.42 154.94,331.74 178.06,610.74l18.48 -1.52c-23.39,-282.24 -92.41,-480.36 -180.96,-619.14 -121.39,-190.24 -279.45,-269.05 -407.5,-300.2 -129.13,-31.43 -227.92,-14.38 -228.2,-14.33l3.11 18.26z"/>
   <path class="fil15" d="M5581.03 6752.18l4.57 -88.69c1.56,-30.28 9.58,-67.51 -5.7,-109.15 -12.89,-35.11 -36.59,-81.08 -58.68,-25.07 -32.46,82.32 59.81,222.9 59.81,222.9z"/>
   <path class="fil15" d="M5581.03 6752.18l-24.66 85.32c-8.42,29.13 -13,66.93 -41.04,101.3 -23.65,28.96 -61.07,64.67 -63.65,4.52 -3.78,-88.41 129.35,-191.14 129.35,-191.14z"/>
   <path class="fil15" d="M5895.46 6935.67l43.04 -77.68c14.7,-26.53 38.25,-56.44 42.8,-100.57 3.83,-37.2 2.72,-88.91 -41.72,-48.28 -65.31,59.71 -44.13,226.53 -44.13,226.53z"/>
   <path class="fil15" d="M5895.46 6935.67l-59.61 65.83c-20.35,22.48 -41.06,54.43 -81.34,73 -33.97,15.64 -83.27,31.3 -59.18,-23.88 35.42,-81.1 200.13,-114.94 200.13,-114.94z"/>
   <path class="fil15" d="M5390.71 6733.29l-109.79 50.44c-37.49,17.22 -80.49,46.11 -140.81,47.78 -50.86,1.38 -120.9,-5.41 -61.24,-61.54 87.7,-82.49 311.85,-36.68 311.85,-36.68z"/>
   <path class="fil3" d="M6557.57 6578.4c0,0 -87.19,101.49 -77.43,193.1 9.76,91.61 -116.2,180.17 -169.92,210.35 -53.72,30.18 -94.84,308.87 -202.76,392.73 -107.92,83.86 -68.91,-151.01 -68.91,-151.01 0,0 111.99,-435.33 212.06,-491.22 100.07,-55.89 134.51,-174.23 134.51,-174.23 0,0 154.4,-104.24 172.45,20.27z"/>
   <path class="fil19" d="M6468.3 6576.82c-1.48,1.83 -518.33,634.8 -460.01,1264.72l18.41 -1.67c-57.62,-622.37 454.55,-1249.64 456.02,-1251.46l12.07 -22.84 -26.49 11.25z"/>
   <rect class="fil20" x="5807.61" y="7621.55" width="593.68" height="107.84"/>
   <polygon class="fil21" points="6294.62,8085.37 5914.3,8085.37 5867.91,7729.39 6341,7729.39 "/>
  </g>
 </g>
</svg>
