<?xml version="1.0" encoding="UTF-8"?>
<!DOCTYPE svg PUBLIC "-//W3C//DTD SVG 1.1//EN" "http://www.w3.org/Graphics/SVG/1.1/DTD/svg11.dtd">
<!-- Creator: CorelDRAW -->
<svg xmlns="http://www.w3.org/2000/svg" xml:space="preserve" width="10in" height="10in" version="1.1" style="shape-rendering:geometricPrecision; text-rendering:geometricPrecision; image-rendering:optimizeQuality; fill-rule:evenodd; clip-rule:evenodd"
viewBox="0 0 10000 10000"
 xmlns:xlink="http://www.w3.org/1999/xlink"
 xmlns:xodm="http://www.corel.com/coreldraw/odm/2003">
 <defs>
  <style type="text/css">
   <![CDATA[
    .str0 {stroke:#CD6012;stroke-width:16.67;stroke-miterlimit:2.61313}
    .fil0 {fill:none}
    .fil9 {fill:black}
    .fil10 {fill:#1F1F1F}
    .fil13 {fill:#201F1F}
    .fil8 {fill:#CD6012}
    .fil5 {fill:#DA9020}
    .fil12 {fill:#E3AE39}
    .fil4 {fill:#E9C462}
    .fil1 {fill:#F2E09E}
    .fil11 {fill:#FBFBFB}
    .fil14 {fill:white}
    .fil7 {fill:white}
    .fil2 {fill:#1F1F1F;fill-rule:nonzero}
    .fil6 {fill:#CD6012;fill-rule:nonzero}
    .fil3 {fill:#DA9020;fill-rule:nonzero}
    .fil15 {fill:#1F1F1F;fill-rule:nonzero}
   ]]>
  </style>
 </defs>
 <g id="Layer_x0020_1">
  <metadata id="CorelCorpID_0Corel-Layer"/>
  <rect class="fil0" width="10000" height="10000"/>
  <path class="fil1" d="M6572.24 1998.3c-1293.33,0 -2417.15,725.14 -2987.52,1790.93 -29.65,-0.67 -59.4,-1 -89.23,-1 -1907.64,0 -3454.08,1364.51 -3454.08,3047.72 0,407.44 90.84,796.1 255.26,1151.36l8441.93 0c745.46,-621.17 1220,-1556.45 1220,-2602.65 0,-1870.23 -1516.13,-3386.35 -3386.35,-3386.35z"/>
  <polygon class="fil2" points="10000,7933.02 -0,7933.02 -0,8001.7 10000,8001.7 "/>
  <g id="_878860096">
   <g>
    <g>
     <g>
      <path class="fil3" d="M2087.99 5261.52c-9.02,33.05 -18.09,66.04 -27.13,98.97 -128.06,466.46 -253.3,922.59 -253.3,1412.44l-44.3 0c0,-495.13 126.09,-954.39 255.04,-1424.04 9.04,-32.93 18.1,-65.92 27.13,-98.97l42.57 11.59z"/>
      <g>
       <path class="fil4" d="M2099.14 6352.15c-17.1,61.15 -56.94,116.04 -115.96,150.83 -59.02,34.79 -126.33,43.07 -188.11,28.43 17.1,-61.15 56.94,-116.04 115.96,-150.83 59.02,-34.79 126.33,-43.07 188.11,-28.43z"/>
       <path class="fil4" d="M1562.31 6265.69c-2.85,63.43 17.85,128.01 63.06,179.5 45.2,51.48 106.56,80.37 169.83,85.76 2.85,-63.44 -17.85,-128.02 -63.06,-179.5 -45.2,-51.48 -106.56,-80.37 -169.83,-85.75z"/>
      </g>
      <g>
       <path class="fil4" d="M2126.85 6111c-17.1,61.15 -56.94,116.04 -115.96,150.83 -59.02,34.79 -126.33,43.07 -188.12,28.43 17.11,-61.15 56.94,-116.03 115.96,-150.83 59.02,-34.79 126.33,-43.07 188.11,-28.43z"/>
       <path class="fil4" d="M1590.02 6024.54c-2.85,63.43 17.85,128.02 63.06,179.5 45.2,51.48 106.56,80.37 169.83,85.75 2.85,-63.43 -17.85,-128.01 -63.06,-179.5 -45.2,-51.48 -106.56,-80.37 -169.83,-85.76z"/>
      </g>
      <g>
       <path class="fil4" d="M2171.43 5860.3c-17.1,61.15 -56.94,116.03 -115.96,150.83 -59.02,34.79 -126.33,43.07 -188.11,28.43 17.1,-61.15 56.94,-116.04 115.96,-150.83 59.02,-34.79 126.33,-43.07 188.11,-28.43z"/>
       <path class="fil4" d="M1634.6 5773.85c-2.85,63.43 17.85,128.01 63.06,179.5 45.2,51.48 106.56,80.37 169.83,85.75 2.85,-63.43 -17.85,-128.01 -63.06,-179.5 -45.2,-51.48 -106.56,-80.37 -169.83,-85.75z"/>
      </g>
      <g>
       <path class="fil4" d="M2233.28 5590.34c-17.1,61.15 -56.94,116.04 -115.96,150.83 -59.02,34.79 -126.33,43.07 -188.11,28.43 17.1,-61.15 56.94,-116.04 115.96,-150.83 59.02,-34.79 126.33,-43.07 188.11,-28.43z"/>
       <path class="fil4" d="M1696.44 5503.88c-2.85,63.43 17.85,128.01 63.06,179.5 45.2,51.48 106.56,80.37 169.83,85.76 2.85,-63.43 -17.85,-128.01 -63.05,-179.5 -45.2,-51.48 -106.56,-80.37 -169.83,-85.76z"/>
      </g>
      <g>
       <path class="fil4" d="M2310.12 5297.93c-17.1,61.15 -56.94,116.04 -115.96,150.83 -59.02,34.79 -126.33,43.07 -188.12,28.43 17.11,-61.15 56.94,-116.04 115.96,-150.83 59.02,-34.79 126.33,-43.07 188.11,-28.43z"/>
       <path class="fil4" d="M1773.29 5211.48c-2.85,63.43 17.85,128.01 63.06,179.5 45.2,51.48 106.56,80.37 169.83,85.75 2.85,-63.43 -17.85,-128.01 -63.06,-179.5 -45.2,-51.48 -106.56,-80.37 -169.83,-85.75z"/>
      </g>
      <g>
       <path class="fil4" d="M2256.65 5099.08c-10.94,61.15 -36.41,116.04 -74.15,150.83 -37.74,34.79 -80.79,43.07 -120.3,28.43 10.94,-61.15 36.41,-116.04 74.15,-150.83 37.74,-34.79 80.78,-43.07 120.3,-28.43z"/>
       <path class="fil4" d="M1913.36 5012.63c-1.82,63.43 11.42,128.01 40.32,179.5 28.9,51.48 68.14,80.37 108.6,85.76 1.82,-63.44 -11.42,-128.02 -40.32,-179.5 -28.91,-51.48 -68.14,-80.37 -108.6,-85.75z"/>
      </g>
     </g>
     <g>
      <path class="fil3" d="M953.92 5407.17c18.11,29.08 36.23,58.09 54.32,87.06 256.24,410.28 506.81,811.47 647.04,1280.82l42.45 -12.68c-141.74,-474.41 -394.03,-878.35 -652.02,-1291.44 -18.09,-28.96 -36.21,-57.98 -54.32,-87.06l-37.47 23.3z"/>
      <g>
       <path class="fil4" d="M1255.44 6455.35c33.89,53.7 87.77,94.88 154.28,111.32 66.51,16.44 133.37,5.11 188.38,-26.61 -33.89,-53.7 -87.78,-94.88 -154.28,-111.32 -66.51,-16.44 -133.37,-5.11 -188.38,26.61z"/>
       <path class="fil4" d="M1745.06 6218.83c20.89,59.96 19.54,127.77 -9.04,190.04 -28.57,62.27 -79.09,107.51 -138.17,130.78 -20.89,-59.96 -19.54,-127.76 9.03,-190.04 28.57,-62.27 79.09,-107.51 138.17,-130.78z"/>
      </g>
      <g>
       <path class="fil4" d="M1159.86 6232.22c33.89,53.7 87.78,94.88 154.28,111.32 66.51,16.44 133.37,5.11 188.38,-26.61 -33.89,-53.7 -87.78,-94.88 -154.28,-111.32 -66.51,-16.44 -133.37,-5.1 -188.38,26.61z"/>
       <path class="fil4" d="M1649.48 5995.7c20.89,59.96 19.54,127.77 -9.03,190.04 -28.57,62.27 -79.09,107.51 -138.17,130.78 -20.89,-59.96 -19.54,-127.77 9.04,-190.04 28.57,-62.27 79.09,-107.51 138.17,-130.78z"/>
      </g>
      <g>
       <path class="fil4" d="M1045.38 6004.78c33.89,53.69 87.78,94.88 154.28,111.32 66.51,16.44 133.37,5.1 188.38,-26.62 -33.89,-53.69 -87.78,-94.88 -154.28,-111.32 -66.51,-16.44 -133.37,-5.1 -188.38,26.62z"/>
       <path class="fil4" d="M1535 5768.26c20.89,59.96 19.54,127.77 -9.03,190.04 -28.57,62.27 -79.09,107.51 -138.17,130.78 -20.89,-59.96 -19.54,-127.77 9.03,-190.04 28.57,-62.27 79.09,-107.51 138.17,-130.78z"/>
      </g>
      <g>
       <path class="fil4" d="M908.84 5763.81c33.89,53.7 87.78,94.88 154.28,111.32 66.51,16.44 133.37,5.11 188.38,-26.61 -33.89,-53.7 -87.77,-94.88 -154.28,-111.32 -66.51,-16.44 -133.37,-5.1 -188.38,26.61z"/>
       <path class="fil4" d="M1398.46 5527.3c20.89,59.96 19.54,127.77 -9.03,190.04 -28.57,62.27 -79.09,107.51 -138.17,130.78 -20.89,-59.96 -19.54,-127.77 9.03,-190.04 28.57,-62.27 79.09,-107.51 138.17,-130.78z"/>
      </g>
      <g>
       <path class="fil4" d="M751.51 5505.65c33.89,53.69 87.78,94.88 154.28,111.32 66.51,16.44 133.37,5.1 188.38,-26.62 -33.89,-53.69 -87.77,-94.88 -154.28,-111.31 -66.51,-16.44 -133.37,-5.11 -188.38,26.61z"/>
       <path class="fil4" d="M1241.13 5269.13c20.89,59.96 19.54,127.77 -9.03,190.04 -28.57,62.27 -79.09,107.51 -138.17,130.78 -20.89,-59.96 -19.54,-127.77 9.03,-190.04 28.57,-62.27 79.09,-107.51 138.17,-130.78z"/>
      </g>
      <g>
       <path class="fil4" d="M745.82 5299.81c27.98,55.46 68.1,100.75 114.22,123.28 46.12,22.53 89.74,18.15 123.4,-7.2 -27.98,-55.46 -68.1,-100.75 -114.22,-123.28 -46.12,-22.53 -89.74,-18.15 -123.4,7.2z"/>
       <path class="fil4" d="M1049.99 5118.7c19.91,60.26 25.71,125.93 12.75,183.53 -12.96,57.61 -42.28,96.52 -79.5,113.26 -19.91,-60.26 -25.71,-125.93 -12.75,-183.53 12.96,-57.61 42.28,-96.52 79.51,-113.26z"/>
      </g>
     </g>
     <g>
      <path class="fil3" d="M2727.01 5465.53c-20.2,27.67 -40.41,55.28 -60.58,82.83 -285.71,390.32 -565.1,772.01 -739.46,1229.78l-41.4 -15.77c176.24,-462.71 457.54,-847.01 745.21,-1240 20.17,-27.56 40.38,-55.16 60.58,-82.83l35.65 25.98z"/>
      <g>
       <path class="fil4" d="M2349.22 6488.7c-37.75,51.06 -94.51,88.17 -162.05,99.67 -67.54,11.5 -133.39,-4.72 -185.91,-40.39 37.75,-51.06 94.51,-88.17 162.05,-99.67 67.54,-11.51 133.39,4.71 185.91,40.39z"/>
       <path class="fil4" d="M1878.32 6216.82c-25.24,58.26 -28.88,125.98 -4.96,190.19 23.92,64.2 70.97,113.04 128.18,140.59 25.24,-58.26 28.88,-125.98 4.97,-190.19 -23.92,-64.2 -70.98,-113.04 -128.19,-140.59z"/>
      </g>
      <g>
       <path class="fil4" d="M2460.95 6273.2c-37.75,51.06 -94.51,88.17 -162.05,99.67 -67.54,11.51 -133.39,-4.71 -185.91,-40.39 37.75,-51.06 94.52,-88.17 162.05,-99.67 67.54,-11.5 133.39,4.72 185.91,40.39z"/>
       <path class="fil4" d="M1990.05 6001.33c-25.24,58.26 -28.88,125.98 -4.96,190.19 23.91,64.2 70.97,113.04 128.18,140.59 25.24,-58.26 28.88,-125.98 4.96,-190.19 -23.91,-64.2 -70.97,-113.04 -128.18,-140.59z"/>
      </g>
      <g>
       <path class="fil4" d="M2591.85 6054.8c-37.75,51.06 -94.51,88.17 -162.05,99.67 -67.54,11.51 -133.39,-4.72 -185.91,-40.39 37.75,-51.06 94.52,-88.17 162.05,-99.67 67.54,-11.51 133.39,4.72 185.91,40.39z"/>
       <path class="fil4" d="M2120.95 5782.92c-25.24,58.26 -28.88,125.98 -4.96,190.19 23.92,64.2 70.97,113.04 128.18,140.59 25.24,-58.26 28.88,-125.98 4.96,-190.19 -23.91,-64.2 -70.97,-113.04 -128.18,-140.59z"/>
      </g>
      <g>
       <path class="fil4" d="M2745.74 5824.53c-37.75,51.06 -94.51,88.17 -162.05,99.67 -67.54,11.5 -133.39,-4.72 -185.91,-40.4 37.75,-51.06 94.51,-88.17 162.05,-99.67 67.54,-11.5 133.39,4.72 185.91,40.4z"/>
       <path class="fil4" d="M2274.83 5552.65c-25.24,58.26 -28.88,125.98 -4.97,190.19 23.92,64.2 70.98,113.04 128.19,140.59 25.24,-58.26 28.88,-125.98 4.96,-190.19 -23.92,-64.2 -70.97,-113.04 -128.18,-140.59z"/>
      </g>
      <g>
       <path class="fil4" d="M2921.63 5578.62c-37.75,51.06 -94.51,88.17 -162.05,99.67 -67.54,11.5 -133.39,-4.72 -185.91,-40.39 37.75,-51.06 94.52,-88.17 162.05,-99.67 67.54,-11.51 133.39,4.71 185.91,40.39z"/>
       <path class="fil4" d="M2450.72 5306.74c-25.24,58.26 -28.88,125.98 -4.96,190.19 23.91,64.2 70.97,113.04 128.18,140.59 25.24,-58.26 28.88,-125.98 4.96,-190.19 -23.91,-64.2 -70.97,-113.04 -128.18,-140.59z"/>
      </g>
      <g>
       <path class="fil4" d="M2942.44 5373.76c-31.99,53.26 -75.33,95.48 -122.98,114.56 -47.65,19.08 -90.82,11.5 -122.53,-16.25 31.98,-53.26 75.33,-95.48 122.98,-114.56 47.65,-19.08 90.82,-11.5 122.54,16.25z"/>
       <path class="fil4" d="M2652.4 5170.78c-24.28,58.63 -34.9,123.69 -26.21,182.09 8.69,58.4 35.07,99.36 70.96,118.79 24.28,-58.63 34.89,-123.69 26.21,-182.09 -8.69,-58.4 -35.07,-99.36 -70.96,-118.79z"/>
      </g>
     </g>
    </g>
    <g>
     <g>
      <path class="fil5" d="M2280.1 7199.89c-17.47,-53.79 -40.09,-104.13 -67.06,-150.02l-10.16 10.16 -194.21 194.21 -194.21 -194.21 -31.32 -31.32 -31.32 31.32 -194.21 194.21 -194.21 -194.21 -10.16 -10.16c-26.97,45.89 -49.59,96.23 -67.06,150.02l45.9 -45.9 194.21 194.21 31.32 31.32 31.32 -31.32 194.21 -194.21 194.21 194.21 31.32 31.32 31.32 -31.32 194.21 -194.21 45.9 45.9z"/>
      <path class="fil5" d="M2309.98 7607.62c6.04,-37.1 9.76,-75.3 10.95,-114.33l-55.41 -55.41 -31.32 -31.32 -31.32 31.32 -194.21 194.21 -194.21 -194.21 -31.32 -31.32 -31.32 31.32 -194.21 194.21 -194.21 -194.21 -31.32 -31.32 -31.31 31.32 -55.41 55.41c1.19,39.03 4.91,77.22 10.95,114.33l75.78 -75.78 194.21 194.21 31.32 31.32 31.32 -31.32 194.21 -194.21 194.21 194.21 31.32 31.32 31.32 -31.32 194.21 -194.21 75.78 75.78z"/>
     </g>
     <path class="fil6" d="M1783.14 7888.71l399.64 0c35.91,-56.89 64.76,-121.69 84.81,-192.18 20.45,-71.92 31.62,-149.67 31.62,-230.87 0,-111.1 -20.87,-215.76 -57.84,-307.85 -38.26,-95.31 -93.63,-177.16 -160.81,-238.72l-7.27 -6.66 0 -9.61 0 -120.8 -580.31 0 0 120.8 0 9.61 -7.27 6.66c-67.18,61.56 -122.56,143.41 -160.81,238.71 -36.97,92.1 -57.84,196.75 -57.84,307.86 0,81.19 11.17,158.94 31.62,230.87 20.05,70.49 48.9,135.3 84.81,192.18l399.65 0zm411.61 44.3l-411.61 0 -411.61 0 -11.83 0 -6.59 -10.04c-41.53,-63.23 -74.6,-135.63 -96.98,-214.33 -21.57,-75.86 -33.35,-157.7 -33.35,-242.98 0,-116.7 22.06,-226.96 61.13,-324.3 39.3,-97.93 95.95,-182.79 164.79,-248.03l0 -133.46 0 -22.15 22.15 0 624.61 0 22.15 0 0 22.15 0 133.46c68.84,65.24 125.48,150.11 164.79,248.03 39.07,97.33 61.13,207.6 61.13,324.3 0,85.28 -11.78,167.12 -33.35,242.98 -22.38,78.7 -55.45,151.1 -96.98,214.33l-6.59 10.04 -11.83 0z"/>
    </g>
   </g>
   <path class="fil7" d="M1783.14 7028.7l31.32 31.32 194.21 194.21 188.23 -188.23c-32.58,-56.54 -71.87,-106.17 -116.33,-146.91l-7.27 -6.66 0 -9.61 0 -120.8 -580.31 0 0 120.8 0 9.61 -7.27 6.66c-44.46,40.74 -83.76,90.38 -116.34,146.92l188.23 188.23 194.21 -194.21 31.32 -31.32z"/>
   <path class="fil7" d="M1322.7 7163.36c-35.59,90.74 -55.64,193.43 -55.64,302.3 0,1.97 0.01,3.93 0.02,5.89l33.67 -33.67 31.31 -31.32 31.32 31.32 194.21 194.21 194.21 -194.21 31.32 -31.32 31.31 31.32 194.21 194.21 194.21 -194.21 31.32 -31.32 31.32 31.32 33.67 33.67c0.01,-1.96 0.02,-3.93 0.02,-5.89 0,-108.88 -20.05,-211.57 -55.64,-302.31l-9.37 -9.37 -194.21 194.21 -31.32 31.32 -31.32 -31.32 -194.21 -194.21 -194.21 194.21 -31.32 31.32 -31.32 -31.32 -194.21 -194.21 -9.37 9.37z"/>
   <path class="fil7" d="M1298.69 7696.53c20.05,70.49 48.91,135.3 84.81,192.18l399.65 0 399.64 0c35.91,-56.89 64.76,-121.69 84.81,-192.18 9.91,-34.83 17.63,-71.03 22.97,-108.33l-56.36 -56.36 -194.21 194.21 -31.32 31.32 -31.32 -31.32 -194.21 -194.21 -194.21 194.21 -31.32 31.32 -31.31 -31.32 -194.21 -194.21 -56.36 56.36c5.33,37.3 13.06,73.5 22.96,108.33z"/>
  </g>
  <g id="_878859712">
   <path class="fil8" d="M6875.85 2603.34l-3053.31 0c-120.96,0 -219.94,98.97 -219.94,219.94l0 71.16 3493.19 0 0 -71.16c0,-120.97 -98.97,-219.94 -219.94,-219.94z"/>
   <path class="fil9" d="M3820.92 2690.67l67.93 0c13.34,0 24.26,10.91 24.26,24.26l0 67.93c0,13.34 -10.91,24.25 -24.26,24.25l-67.93 0c-13.34,0 -24.26,-10.91 -24.26,-24.25l0 -67.93c0,-13.34 10.91,-24.26 24.26,-24.26z"/>
   <path class="fil9" d="M4053.8 2690.67l67.93 0c13.34,0 24.25,10.91 24.25,24.26l0 67.93c0,13.34 -10.91,24.25 -24.25,24.25l-67.93 0c-13.34,0 -24.26,-10.91 -24.26,-24.25l0 -67.93c0,-13.34 10.92,-24.26 24.26,-24.26z"/>
   <path class="fil9" d="M4286.68 2690.67l67.93 0c13.34,0 24.26,10.91 24.26,24.26l0 67.93c0,13.34 -10.91,24.25 -24.26,24.25l-67.93 0c-13.34,0 -24.26,-10.91 -24.26,-24.25l0 -67.93c0,-13.34 10.91,-24.26 24.26,-24.26z"/>
  </g>
  <path class="fil6" d="M6875.85 2614.12l-3053.31 0c-57.5,0 -109.8,23.53 -147.71,61.45 -37.91,37.91 -61.45,90.2 -61.45,147.71l0 3868.39c0,57.51 23.54,109.8 61.45,147.71 37.91,37.91 90.2,61.45 147.71,61.45l3053.31 0c57.51,0 109.8,-23.54 147.71,-61.45 37.92,-37.92 61.45,-90.2 61.45,-147.71l0 -3868.39c0,-57.51 -23.53,-109.8 -61.45,-147.71 -37.91,-37.92 -90.2,-61.45 -147.71,-61.45zm-3053.31 -21.56l3053.31 0c63.46,0 121.14,25.95 162.96,67.76 41.81,41.81 67.76,99.5 67.76,162.96l0 3868.39c0,63.46 -25.95,121.15 -67.76,162.96 -41.81,41.81 -99.5,67.77 -162.96,67.77l-3053.31 0c-63.46,0 -121.14,-25.95 -162.96,-67.77 -41.81,-41.81 -67.76,-99.5 -67.76,-162.96l0 -3868.39c0,-63.46 25.95,-121.14 67.76,-162.96 41.81,-41.81 99.5,-67.76 162.96,-67.76z"/>
  <path class="fil7" d="M7085 2894.44l-3471.63 0 0 3797.23c0,57.51 23.54,109.8 61.45,147.71 37.91,37.91 90.2,61.45 147.71,61.45l3053.31 0c57.51,0 109.8,-23.54 147.71,-61.45 37.92,-37.92 61.45,-90.2 61.45,-147.71l0 -3797.23z"/>
  <path class="fil8" d="M6474.78 2215.21l-3053.31 0c-120.97,0 -219.94,98.97 -219.94,219.94l0 71.16 3493.19 0 0 -71.16c0,-120.97 -98.97,-219.94 -219.94,-219.94z"/>
  <path class="fil6" d="M6474.78 2225.99l-3053.31 0c-57.51,0 -109.8,23.54 -147.71,61.45 -37.91,37.91 -61.45,90.2 -61.45,147.71l0 3868.39c0,57.51 23.54,109.8 61.45,147.71 37.92,37.91 90.2,61.45 147.71,61.45l3053.31 0c57.51,0 109.8,-23.54 147.71,-61.45 37.91,-37.91 61.44,-90.2 61.44,-147.71l0 -3868.39c0,-57.51 -23.53,-109.8 -61.44,-147.71 -37.92,-37.91 -90.2,-61.45 -147.71,-61.45zm-3053.31 -21.56l3053.31 0c63.46,0 121.15,25.95 162.96,67.77 41.81,41.81 67.77,99.5 67.77,162.96l0 3868.39c0,63.46 -25.95,121.14 -67.77,162.96 -41.81,41.81 -99.5,67.76 -162.96,67.76l-3053.31 0c-63.46,0 -121.15,-25.95 -162.96,-67.76 -41.81,-41.81 -67.77,-99.5 -67.77,-162.96l0 -3868.39c0,-63.46 25.95,-121.15 67.77,-162.96 41.81,-41.81 99.5,-67.77 162.96,-67.77z"/>
  <path class="fil7" d="M6683.93 2506.31l-3471.63 0 0 3797.23c0,57.51 23.54,109.8 61.45,147.71 37.92,37.91 90.2,61.45 147.71,61.45l3053.31 0c57.51,0 109.8,-23.54 147.71,-61.45 37.91,-37.91 61.44,-90.2 61.44,-147.71l0 -3797.23z"/>
  <g id="_878853736">
   <path class="fil10" d="M8905.33 3024.56c-15.96,-24.21 -17.88,-44.52 -21.4,-73.89 -4.8,159.67 -151.33,212.45 -286.14,317.87 -327.2,-240.02 -405.41,-403.07 -337.78,-856.67 14.2,-95.24 49.95,-189.81 107.65,-225.81 128.15,-79.93 119.82,-118.41 231.01,-113.42 181.76,8.17 292.99,180.28 335.04,345.63 54.19,213.08 7.99,402.4 -28.38,606.27z"/>
   <path class="fil7 str0" d="M8495.25 2798.43c-6.59,-5.21 -13.33,-11.27 -20.38,-18.34 -36.72,-36.81 -75.67,-95.9 -90.26,-160.56l100.62 -375.76 198.21 120.63 0 -44.25c165.41,138.37 175.9,335.67 20.16,473.66l79.96 340.19 -359.08 2.46 70.76 -338.03z"/>
   <path class="fil11" d="M7549.8 3513.74c-0.4,12.93 98.58,282.32 111.84,322.09 40.56,121.68 197.4,-229.46 222.75,-273.37 33.75,-91.12 124.87,-101.24 124.87,-101.24l-10.13 334.12c0,0 -155.24,259.87 -280.12,371.24 -195.35,174.23 -260.37,-577.9 -283.42,-594.91 -22.18,-16.66 1.37,-19.8 -27.89,-32.58 -23.67,-10.33 -58.92,-42.28 -113.8,-52.81 -38.81,-16.98 -51.22,-42.82 -51.2,-42.79 -21.43,-24.85 -29.48,-56.87 -29.48,-86.37 0,-13.59 1.69,-26.6 4.55,-38.11 2.83,-11.38 6.79,-21.28 11.36,-28.77 5.2,-8.53 10.88,-13.66 16.04,-13.66 9.24,0 17.55,14.26 27.04,31.95 -0.21,-0.05 33.13,44.93 43.8,61.76 6.78,5.3 14.41,9.48 23.14,12.01 17.28,5 40.86,4.43 58.96,-2.96 6.5,-2.65 12.36,-6.18 17.06,-10.62 4.93,-4.66 8.64,-10.31 10.58,-17.02 2.57,-8.85 2,-19.33 -2.95,-31.48l-0.03 0c-2.68,-6.56 -2.56,-11.11 -0.43,-13.63 2.5,-2.96 8.01,-3.98 15.31,-2.92 8.63,1.26 19.18,5.5 30.18,13 20.23,13.79 41.48,38.28 54.95,75.11 -0.57,-0.98 29.24,51.19 27,121.96z"/>
   <path class="fil6" d="M7536.67 3488.07c-0.33,10.63 49.72,150.07 85.48,249.67 16.04,44.69 29.2,81.33 33.5,94.24 9.28,27.86 24.13,35.74 42.38,29.66 55.1,-18.37 141.52,-191.34 184.2,-276.76l-0.02 -0.01c9.79,-19.58 17.23,-34.48 21.41,-41.72l0.48 -1.01c28.56,-77.1 97.12,-97.31 119.8,-101.98l-10.46 344.95c-12.67,21.06 -168.6,278.11 -295.11,390.94 -43.14,38.48 -79.74,31.04 -110.81,-3.8 -80.54,-90.31 -127.19,-355.47 -154.26,-509.32 -11.68,-66.34 -19.81,-112.54 -27.5,-118.35l0.01 -0.01c-11.84,-8.9 -24.65,-18.04 -38.52,-26.72 -13.91,-8.71 -28.75,-16.89 -44.52,-23.78 -10.42,-4.54 -20.77,-7.8 -31.03,-11.02 -14.79,-4.64 -29.4,-9.23 -42.68,-17.34 -41.43,-25.3 -55.78,-69.19 -55.78,-108.59 0,-13.59 1.69,-26.6 4.55,-38.11 2.83,-11.38 6.79,-21.28 11.36,-28.77 5.2,-8.53 10.88,-13.66 16.04,-13.66 9.99,0 18.89,16.67 29.38,36.31 14.64,27.42 32.01,59.96 64.6,69.41 17.28,5 40.86,4.43 58.96,-2.96 6.5,-2.65 12.35,-6.18 17.06,-10.62 4.93,-4.65 8.64,-10.31 10.58,-17.02 2.57,-8.85 2,-19.33 -2.95,-31.48l-0.03 0c-2.68,-6.56 -2.56,-11.11 -0.43,-13.63 2.5,-2.96 8.01,-3.98 15.31,-2.93 8.63,1.26 19.18,5.5 30.18,13 34.42,23.46 71.77,77.89 68.82,171.37l0 0.03zm97.55 245.35c-35.4,-98.61 -84.95,-236.65 -84.73,-244.99 3.12,-98.89 -37.24,-157.02 -74.4,-182.36 -12.69,-8.65 -25.17,-13.59 -35.62,-15.11 -11.78,-1.71 -21.45,0.87 -26.93,7.35 -5.21,6.16 -6.34,15.23 -1.64,26.75l-0.02 0.01c3.79,9.29 4.33,16.93 2.55,23.08 -1.26,4.36 -3.74,8.11 -7.06,11.24 -3.55,3.36 -8.06,6.05 -13.08,8.11 -15.49,6.33 -35.72,6.8 -50.56,2.5 -27.4,-7.94 -43.39,-37.89 -56.86,-63.12 -12.46,-23.35 -23.04,-43.16 -40.69,-43.16 -9.97,0 -19.44,7.45 -27,19.85 -5.24,8.59 -9.73,19.73 -12.87,32.39 -3.12,12.53 -4.95,26.59 -4.95,41.18 0,43.2 15.94,91.45 61.97,119.56 14.65,8.94 30.01,13.77 45.55,18.65 9.97,3.13 20.05,6.3 29.72,10.52 15.26,6.67 29.54,14.52 42.87,22.87 13.37,8.37 25.93,17.33 37.61,26.11l0.05 0.02c3.5,2.59 11.29,46.78 22.46,110.3 27.3,155.18 74.36,422.64 157.33,515.66 36.3,40.69 78.93,49.5 128.98,4.86 133.19,-118.79 297.95,-394.59 298.42,-395.38l0.91 -3.12 10.74 -354.48 0.22 -7.47 -7.41 0.91c-0.29,0.03 -100.19,11.14 -137.54,111.06 -4.21,7.38 -11.7,22.37 -21.49,41.96l-0.03 0c-41.89,83.86 -126.73,253.66 -176.7,270.32 -10.69,3.56 -19.78,-2.27 -26.19,-21.52 -4.43,-13.3 -17.57,-49.9 -33.6,-94.54z"/>
   <rect class="fil11" x="9191.96" y="7570.73" width="188.04" height="133.95"/>
   <path class="fil3" d="M9380 7712.24l-188.04 0 -7.57 0 0 -7.57 0 -133.95 0 -7.57 7.57 0 188.04 0 7.57 0 0 7.57 0 133.95 0 7.57 -7.57 0zm-180.47 -15.14l172.9 0 0 -118.81 -172.9 0 0 118.81z"/>
   <rect class="fil11" x="8070.59" y="7579.53" width="188.04" height="133.95"/>
   <path class="fil3" d="M8258.63 7721.05l-188.04 0 -7.57 0 0 -7.57 0 -133.95 0 -7.57 7.57 0 188.04 0 7.57 0 0 7.57 0 133.95 0 7.57 -7.57 0zm-180.47 -15.14l172.9 0 0 -118.81 -172.9 0 0 118.81z"/>
   <polygon class="fil5" points="8040.7,7602.11 8093.66,4530.26 9016.73,4530.26 9407.28,7602.11 9179.02,7602.11 8547.63,5158.25 8284.44,7602.11 "/>
   <polygon class="fil5" points="9400.22,7546.57 9407.28,7602.11 9179.02,7602.11 9164.67,7546.57 "/>
   <path class="fil4" d="M9057.78 4643.49c0,0 -109.64,-157 4.08,-938.28l64.28 153.29 341.19 -182.96 -250.44 -427.89c-23.94,-40.92 -15.09,-39.19 -58.8,-56.08l-397.31 -154.11c-26.65,34.11 -90.06,57.09 -159.73,57.09 -69.67,0 -130.76,-23.58 -157.35,-57.79l-369.06 98.89c-47.78,12.78 -36.29,7.96 -58.14,51.98l-288.49 580.61 299.23 129.73 37.02 -198.96c0,0 -19.78,810.94 9.89,944.46l983.64 0z"/>
   <path class="fil12" d="M8080.72 3653.61c-0.03,0.05 -21.56,20.09 -16.46,45.42l0 0 0 0c-6.64,-32.94 1.56,-55.81 1.6,-55.87l14.86 10.45z"/>
   <path class="fil12" d="M9108.43 3585.59c-0.15,0.22 -62.56,81.48 -46.57,119.63l0 0 0 0c-19.9,-47.45 31.4,-129.62 31.56,-129.86l15 10.24z"/>
   <polygon class="fil12" points="7765.92,3691.96 7728.01,3768.26 8027.24,3897.99 8041.89,3819.21 "/>
   <path class="fil11" d="M8157.26 3815.87l309.63 0c16.33,0 24.18,14.35 29.69,29.69l162.88 453.84c5.51,15.35 -13.39,29.69 -29.69,29.69l-309.63 0c-16.31,0 -24.18,-14.32 -29.69,-29.69l-162.88 -453.84c-5.51,-15.37 13.36,-29.69 29.69,-29.69z"/>
   <path class="fil6" d="M8157.26 3810.44l309.63 0c9.98,0 17.34,4.34 23.02,11 5.2,6.1 8.82,14.09 11.77,22.3l162.88 453.84c0.9,2.5 1.31,4.95 1.31,7.33 0,6.33 -2.83,12.2 -7.3,17.01 -4.15,4.46 -9.81,8.07 -15.88,10.25 -4.22,1.51 -8.65,2.37 -12.92,2.37l-309.63 0c-9.97,0 -17.33,-4.34 -23.01,-11 -5.2,-6.1 -8.83,-14.09 -11.78,-22.31l-162.88 -453.84 -0.02 0c-0.89,-2.47 -1.3,-4.93 -1.3,-7.34 0,-6.34 2.83,-12.2 7.3,-17.01 4.15,-4.47 9.81,-8.06 15.87,-10.23 4.23,-1.52 8.67,-2.37 12.94,-2.37zm309.63 10.86l-309.63 0c-3.09,0 -6.27,0.61 -9.29,1.69 -4.46,1.6 -8.6,4.21 -11.59,7.43 -2.67,2.87 -4.37,6.22 -4.37,9.63 0,1.2 0.21,2.44 0.66,3.69l-0.02 0 162.88 453.84c2.56,7.15 5.64,14.01 9.82,18.91 3.7,4.34 8.45,7.17 14.78,7.17l309.63 0c3.08,0 6.26,-0.61 9.27,-1.69 4.46,-1.6 8.6,-4.22 11.59,-7.44 2.68,-2.88 4.37,-6.22 4.37,-9.63 0,-1.24 -0.2,-2.47 -0.63,-3.68l-162.88 -453.84c-2.56,-7.13 -5.63,-14 -9.81,-18.9 -3.7,-4.35 -8.44,-7.18 -14.79,-7.18z"/>
   <path class="fil11" d="M9373.6 3684.56l120.53 237.97c0,0 120.52,253.42 -117.44,265.78 -237.97,12.37 -710.81,98.9 -710.81,98.9 0,0 -43.27,-43.26 -105.07,7.73 -61.81,50.99 -173.07,-140.62 -7.73,-162.25 0,0 86.54,-12.36 135.98,57.17l523.84 -188.52c0,0 69.53,-3.09 30.9,-69.54 -38.63,-66.44 -81.89,-128.26 -81.89,-128.26l211.69 -118.98z"/>
   <path class="fil6" d="M9380.34 3681.16l120.53 237.96 0.12 0.21c0.35,0.75 125.35,263.56 -123.91,276.51 -237.53,12.34 -708.49,98.53 -709.85,98.78l-3.81 0.7 -2.78 -2.68c-0.11,-0.1 -38.5,-38.54 -95.05,8.11 -18.65,15.38 -40.67,12.56 -60.05,-0.7 -15.65,-10.71 -29.55,-28.52 -37.98,-48.71 -8.48,-20.33 -11.52,-43.31 -5.39,-64.22 8.69,-29.65 35.28,-54.77 89.93,-61.92l0.06 -0.03c0.25,-0.03 87.04,-12.42 139.61,55.7l518.59 -186.63 2.22 -0.44c0.16,-0 57.06,-2.54 24.7,-58.21 -38.54,-66.28 -81.42,-127.55 -81.54,-127.73l-4.78 -6.82 7.26 -4.08 211.69 -118.98 6.87 -3.85 3.57 7.05zm106.94 244.55l-116.85 -230.7 -197.61 111.07c12.28,17.9 46.41,68.43 77.52,121.94 41.7,71.71 -25.89,79.95 -35.89,80.77l-522.85 188.16 -5.37 1.94 -3.31 -4.66c-46.77,-65.77 -128.69,-54.07 -128.92,-54.04l-0 -0.02c-47.46,6.22 -70.22,26.9 -77.33,51.15 -5.09,17.37 -2.41,36.81 4.86,54.24 7.32,17.56 19.23,32.92 32.54,42.03 13.93,9.54 29.41,11.88 41.95,1.53 57.3,-47.27 100.6,-19.22 112.08,-9.97 43.72,-7.93 481.55,-86.59 708.22,-98.37 226.65,-11.78 111.29,-254.37 110.97,-255.06l0.01 -0z"/>
   <polygon class="fil12" points="9096.2,3787.08 9126.15,3858.5 9467.34,3675.54 9422.39,3598.75 "/>
   <path class="fil12" d="M9057.78 4643.49c0,0 -11.52,-16.55 -23.23,-65.49l-968.41 0c2.14,28.53 4.77,51 7.99,65.49l983.64 0z"/>
   <path class="fil13" d="M8287.44 7690.9l0 242.11 -593.94 0c-43.69,-79.43 56.63,-94.03 107.99,-112.6 91.76,-33.2 208.43,-101.91 240.28,-129.51l245.67 0z"/>
   <path class="fil13" d="M9404.19 7690.9l0 242.11 -430.34 0c-31.65,-79.43 41.04,-94.03 78.24,-112.6 66.49,-33.19 91.91,-98.96 114.99,-126.56l237.11 -2.95z"/>
   <path class="fil12" d="M8816.7 3059.16l-55.92 -21.69c-26.32,33.68 -91.68,57.1 -160.47,57.1 -68.79,0 -130.36,-24.02 -156.61,-57.79l-61.05 16.36c20.27,58.46 111.36,102.94 216.12,102.94 104.76,0 194.07,-41.3 217.93,-96.92z"/>
   <path class="fil6" d="M8698.6 2787.17c-0.21,0.16 -72.75,56.14 -200.19,3.58l-6.31 15.36c136.3,56.21 216.3,-5.49 216.53,-5.66l-10.02 -13.28z"/>
   <path class="fil6" d="M8593.26 2556.83c-0.77,-1.74 0.02,-3.79 1.76,-4.56 1.74,-0.77 3.79,0.02 4.56,1.76 0.13,0.3 47.93,104.81 -17.17,93.97 -1.89,-0.31 -3.16,-2.1 -2.85,-3.99 0.31,-1.89 2.1,-3.16 3.99,-2.85 52.13,8.69 9.82,-84.07 9.7,-84.34z"/>
   <path class="fil6" d="M8737.56 2460.85c1.31,1.39 1.24,3.59 -0.15,4.9 -1.39,1.31 -3.59,1.24 -4.9,-0.15 -0.11,-0.12 -39.07,-43.09 -80.46,0.03 -1.32,1.38 -3.52,1.42 -4.9,0.09 -1.38,-1.32 -1.42,-3.52 -0.09,-4.9 46.53,-48.47 90.38,-0.11 90.5,0.03z"/>
   <path class="fil6" d="M8692.29 2479.91c-7.03,0 -13.4,2.85 -18,7.45l-0.2 0.22c-4.48,4.59 -7.26,10.87 -7.26,17.79 0,7.02 2.85,13.38 7.45,17.98l2.46 -2.44 -2.46 2.45 0 0c4.6,4.6 10.97,7.45 18,7.45 7.03,0 13.4,-2.85 18,-7.45l0.2 -0.22c4.48,-4.59 7.26,-10.87 7.26,-17.78 0,-7.02 -2.85,-13.38 -7.45,-17.99l-2.46 2.44 2.46 -2.45 -0 0 0 -0c-4.6,-4.6 -10.97,-7.45 -18,-7.45zm-13.09 12.37c3.34,-3.34 7.98,-5.42 13.09,-5.42 5.11,0 9.74,2.08 13.09,5.42l0.01 -0.01c3.35,3.35 5.41,7.98 5.41,13.1 0,5.02 -2,9.58 -5.24,12.92l-0.19 0.17c-3.34,3.34 -7.98,5.42 -13.09,5.42 -5.11,0 -9.74,-2.08 -13.09,-5.42l-0.01 0.01c-3.35,-3.35 -5.41,-7.98 -5.41,-13.09 0,-5.02 2,-9.58 5.24,-12.92l0.19 -0.17z"/>
   <path class="fil6" d="M8551.82 2460.85c1.31,1.39 1.24,3.59 -0.15,4.9 -1.39,1.31 -3.59,1.24 -4.9,-0.15 -0.11,-0.12 -39.07,-43.09 -80.46,0.03 -1.32,1.38 -3.52,1.42 -4.9,0.09 -1.38,-1.32 -1.42,-3.52 -0.09,-4.9 46.53,-48.47 90.38,-0.11 90.5,0.03z"/>
   <path class="fil6" d="M8506.56 2479.91c-7.03,0 -13.4,2.85 -18,7.45l-0.2 0.22c-4.48,4.59 -7.26,10.87 -7.26,17.79 0,7.02 2.85,13.38 7.45,17.98l2.46 -2.44 -2.46 2.45 0 0c4.6,4.6 10.97,7.45 18,7.45 7.03,0 13.4,-2.85 18,-7.45l0.2 -0.22c4.48,-4.59 7.26,-10.87 7.26,-17.78 0,-7.02 -2.85,-13.38 -7.45,-17.99l-2.46 2.44 2.46 -2.45 -0 0 0 -0c-4.6,-4.6 -10.97,-7.45 -18,-7.45zm-13.09 12.37c3.34,-3.34 7.98,-5.42 13.09,-5.42 5.11,0 9.74,2.08 13.09,5.42l0.01 -0.01c3.35,3.35 5.41,7.98 5.41,13.1 0,5.02 -2,9.58 -5.24,12.92l-0.19 0.17c-3.34,3.34 -7.98,5.42 -13.09,5.42 -5.11,0 -9.74,-2.08 -13.09,-5.42l-0.01 0.01c-3.35,-3.35 -5.41,-7.98 -5.41,-13.09 0,-5.02 2,-9.58 5.24,-12.92l0.19 -0.17z"/>
   <path class="fil6" d="M8658.09 2697.29l-129.2 0 -1.57 -0.02 0 -0.01 -0.27 0c-2.53,-0.07 -3.85,-0.02 -4.63,2.59l-0.01 -0 -0.02 0.06 -0 0 -0.05 0.2c-0.53,1.98 0.31,2.79 1.89,4.49 0.16,0.17 0.17,0.17 1.18,1.32l1.95 -1.71 -1.95 1.72 0.24 0.24c6.74,7.58 25.56,26.64 50,34.08 25.11,7.64 55.87,3.23 85.26,-37.45l0.01 0.01c1.12,-1.55 0.77,-3.73 -0.78,-4.85 -0.61,-0.44 -1.33,-0.65 -2.03,-0.65l0 -0zm-124.83 6.94l117.86 0c-25.79,32.44 -52.01,35.92 -73.48,29.38 -20.3,-6.18 -36.58,-21.14 -44.38,-29.38zm-6.08 -2.93l0.46 0.13 0 0 -0.46 -0.13zm0.46 0.13l0.76 0.22 -0 0 -0.76 -0.22 0 -0z"/>
  </g>
  <g id="_878853856">
   <rect class="fil14" x="3659.39" y="3024.24" width="2514.07" height="2554.5" rx="54.38" ry="140.7"/>
   <path class="fil6" d="M3797.85 3013.91l2237.14 0c40.93,0 78.14,16.74 105.1,43.7 26.97,26.96 43.7,64.17 43.7,105.1l0 2277.57c0,40.93 -16.74,78.14 -43.7,105.1 -26.96,26.97 -64.17,43.7 -105.1,43.7l-2237.14 0c-40.93,0 -78.15,-16.74 -105.1,-43.7 -26.97,-26.96 -43.7,-64.17 -43.7,-105.1l0 -2277.57c0,-40.93 16.74,-78.14 43.7,-105.1 26.96,-26.97 64.17,-43.7 105.1,-43.7zm2237.14 20.68l-2237.14 0c-35.22,0 -67.26,14.42 -90.48,37.65 -23.22,23.22 -37.65,55.26 -37.65,90.48l0 2277.57c0,35.22 14.42,67.26 37.65,90.48 23.22,23.22 55.26,37.65 90.48,37.65l2237.14 0c35.22,0 67.25,-14.42 90.48,-37.65 23.22,-23.22 37.65,-55.26 37.65,-90.48l0 -2277.57c0,-35.22 -14.42,-67.26 -37.65,-90.48 -23.22,-23.22 -55.26,-37.65 -90.48,-37.65z"/>
  </g>
  <g id="_878849656">
   <polygon class="fil11" points="4469.37,4042.19 4463.13,4258.85 4665.24,4256.59 4661.35,4171.97 4658.7,4070.13 "/>
   <path class="fil6" d="M4476.3 4048.14l-5.93 205.5 191.43 -2.13 -3.64 -79.31 0 -0.1 -2.54 -97.49 -179.31 -26.47zm-16.37 210.57l6.25 -216.66 0.17 -5.81 5.72 0.84 189.33 27.94 4.28 0.64 0.11 4.35 2.65 101.74 0 0 3.89 84.62 0.24 5.31 -5.35 0.06 -202.11 2.26 -5.34 0.06 0.15 -5.35z"/>
   <path class="fil11" d="M4633.78 3681.86c-6.11,-6.52 -216.94,-5.67 -187.54,222.81 0,0 -55.39,-32.89 -41.54,50.2 0,0 0,29.43 41.54,27.7 0,0 47.82,191.93 172.78,173.86 124.96,-18.07 116.31,-137.51 116.31,-137.51l0 -204.27c0,0 24.81,-139.98 -101.56,-132.8z"/>
   <path class="fil6" d="M4630.03 3685.39c-0.81,-0.87 -12.47,-0.96 -30.28,1.33 -14.2,1.83 -31.56,5.67 -49.4,12.82 -17.75,7.12 -35.96,17.54 -51.97,32.56 -34.05,31.96 -58.22,84.98 -47.04,171.93l1.34 10.39 -9.05 -5.29c-0.13,-0.07 -45.88,-27.26 -33.86,44.9l0.06 0.7c0,0.07 -0.04,24.21 36.2,22.7l4.14 -0.17 1.04 4.04c0.14,0.53 46.72,187.43 167.07,170.03 120.2,-17.38 111.91,-131.76 111.89,-132.09l-0.02 -0.32 0 -204.26 0.08 -0.87c0.06,-0.38 23.67,-133.6 -96.19,-126.79l-2.39 0.13 -1.64 -1.75zm-31.57 -8.88c15.92,-2.05 28.82,-1.29 35.13,0.2 128.43,-7.23 108.42,129.05 106.91,138.32l0 203.9 -0 0c0.39,6.8 5.39,124.38 -120.74,142.62 -118.84,17.19 -169.7,-146.13 -177.43,-173.74 -40.04,-0.17 -42.59,-28.72 -42.76,-32.39 -11.87,-71.81 23.36,-65.99 40.5,-59.33 -8.84,-85.48 16.34,-138.71 51.26,-171.48 17.04,-15.99 36.38,-27.07 55.2,-34.62 18.73,-7.52 36.98,-11.55 51.94,-13.47z"/>
   <g>
    <path class="fil3" d="M4534.37 5567.54c-5.85,-33.11 -10.59,-62.94 -13.83,-88.07 -11.09,-85.29 -6.28,-146.79 3.61,-190.25 5.89,-25.66 13.76,-45.04 21.11,-59.22 2.41,-4.28 4.56,-8.15 6.83,-11.63 10.16,-16.04 18.32,-22.32 18.32,-22.32l304.82 0c0,0 4.41,15.24 11.5,45.19 2.4,10.02 5.08,21.79 8.02,35.29 13.48,62.31 31.73,160.09 47.52,291.02l-407.9 0z"/>
    <path class="fil3" d="M4782.72 5244.57l-1.74 50.68 -0.13 5.34 -7.35 221.41c-0.48,15.47 -3,30.74 -7.43,45.55l-518.67 0c-15.17,-145.87 15.86,-250.39 43.18,-310.67 6.29,-13.9 12.31,-25.4 17.65,-34.62 10.03,-17.38 17.11,-26.21 17.11,-26.21l226.76 22.32 119.26 11.76 41.44 5.36 64.04 8.29 5.89 0.8z"/>
   </g>
   <path class="fil4" d="M4275.72 5236.6c0,0 69.74,-99.85 -2.59,-596.75l-40.89 97.49 -217 -116.36 159.28 -272.14c15.23,-26.03 9.6,-24.93 37.4,-35.67l254.97 -98.51c16.96,21.69 55.04,36.81 99.31,36.81 44.35,0 82.5,-15.18 99.41,-36.94l235.4 63.07c30.39,8.13 23.08,5.07 36.98,33.06l183.48 369.28 -179.26 75.48 -34.59 -119.51c0,0 12.58,515.77 -6.29,600.69l-625.61 0z"/>
   <path class="fil12" d="M4241.47 4587.3c0.11,0.02 35.49,5.64 31.66,52.56l0 0 0 0c2.96,-36.2 -33.34,-41.15 -33.42,-41.16l1.76 -11.39z"/>
   <path class="fil12" d="M4429.76 4229.02l37.15 -14.35c16.96,21.69 55.04,36.81 99.31,36.81 44.35,0 82.5,-15.18 99.41,-36.94l40.45 10.84c-13.06,37.65 -70.27,66.01 -138.87,66.01 -66.37,0 -122.07,-26.54 -137.45,-62.37z"/>
   <path class="fil11" d="M4975.79 4580.39l-274.44 0c-14.48,0 -21.44,12.72 -26.32,26.31l-144.37 402.26c-4.89,13.6 11.86,26.32 26.31,26.32l274.44 0c14.45,0 21.43,-12.69 26.32,-26.32l144.37 -402.26c4.89,-13.62 -11.84,-26.31 -26.31,-26.31z"/>
   <path class="fil6" d="M4975.79 4575.57l-274.44 0c-8.85,0 -15.37,3.85 -20.4,9.75 -4.61,5.41 -7.82,12.49 -10.43,19.76l-144.37 402.26c-0.8,2.22 -1.17,4.39 -1.17,6.5 0,5.61 2.51,10.81 6.48,15.07 3.68,3.96 8.7,7.15 14.07,9.08 3.74,1.34 7.67,2.1 11.45,2.1l274.44 0c8.83,0 15.36,-3.85 20.39,-9.74 4.61,-5.41 7.83,-12.49 10.44,-19.77l144.37 -402.26 0.02 0c0.78,-2.19 1.15,-4.37 1.15,-6.5 0,-5.62 -2.5,-10.81 -6.46,-15.07 -3.68,-3.96 -8.69,-7.15 -14.07,-9.07 -3.75,-1.34 -7.69,-2.09 -11.46,-2.09zm-274.44 9.63l274.44 0c2.74,0 5.56,0.54 8.23,1.5 3.96,1.42 7.62,3.73 10.27,6.59 2.37,2.55 3.87,5.51 3.87,8.54 0,1.06 -0.19,2.17 -0.58,3.27l0.01 0 -144.37 402.26c-2.27,6.34 -5,12.42 -8.7,16.76 -3.28,3.85 -7.48,6.36 -13.1,6.36l-274.44 0c-2.73,0 -5.55,-0.54 -8.21,-1.49 -3.96,-1.42 -7.62,-3.74 -10.28,-6.6 -2.37,-2.55 -3.87,-5.51 -3.87,-8.53 0,-1.09 0.18,-2.19 0.56,-3.26l144.37 -402.26c2.27,-6.33 4.99,-12.41 8.69,-16.76 3.28,-3.85 7.49,-6.37 13.11,-6.37z"/>
   <path class="fil11" d="M4907.8 4998.29l-64.39 9.75c0,0 -25.07,1.98 -21.63,-39.3l0 -37.35c0,0 -1.96,-22.61 51.11,-8.84 0,0 27.51,-38.33 62.89,1.96l52.09 0c27.43,0 -23.53,-108.25 -39.54,-168.02l8.06 -22.44 142.54 -69.01 40.18 217.31c14.3,77.34 67.7,203.06 -81.46,162.04 -12.14,-3.34 -23.29,-6.38 -33.5,-9.15 -4.78,-1.3 -116.35,-36.97 -116.36,-36.97z"/>
   <path class="fil6" d="M4907.09 4993.53l-64.18 9.72c-1.7,0.06 -19.15,-0.16 -16.32,-34.12l0.02 -0.39 0 -37.35 -0.02 -0.21c0,-0.04 -1.56,-16.09 45.11,-3.99l3.15 0.81 1.93 -2.62c0.07,-0.09 24.02,-33.47 55.41,2.28l1.45 1.66 2.16 0 52.09 0c9.04,0 12.78,-6.35 12.78,-17.17 0,-19.26 -13.21,-56.14 -26.39,-92.94l-0.02 0c-7.97,-22.24 -15.93,-44.45 -20.87,-62.54l6.87 -19.15 135.12 -65.42 39.04 211.11c2.13,11.54 5.02,23.71 7.98,36.25 8.39,35.46 17.48,73.85 10.5,99.24 -7.02,25.51 -31.79,38.17 -93.96,21.07l-17.47 -4.79 0 -0.02 -16.03 -4.35c-4.37,-1.19 -86.47,-27.41 -109.93,-34.91l-6.24 -1.99 -2.16 -0.19zm-62.96 19.26l63.32 -9.59 5.15 1.65c23.68,7.56 106.5,34.02 110.31,35.05l16.02 4.36 0 -0.02 17.47 4.79c69.17,19.02 97.22,3.14 105.72,-27.8 7.65,-27.79 -1.73,-67.37 -10.38,-103.94 -2.99,-12.63 -5.9,-24.91 -7.91,-35.79l-40.18 -217.32 -1.15 -6.2 -5.66 2.74 -142.54 69.02 -2.43 2.7 -8.05 22.44 -0.13 2.86c4.93,18.41 13.22,41.56 21.51,64.71l-0.01 0.01c12.9,36.01 25.83,72.09 25.83,89.7 0,4.75 -0.92,7.54 -3.15,7.54l-49.98 0c-32.72,-35.63 -59.35,-11.01 -66.8,-2.54 -53.61,-13.01 -54.19,11.7 -54.12,14.24l-0.01 0 0 37.22c-3.77,46.63 26.73,44.22 26.81,44.22l0.34 -0.04z"/>
   <polygon class="fil12" points="5097.36,4631.42 5121.48,4679.95 4955.89,4749.67 4979.2,4684.72 "/>
   <polygon class="fil8" points="4830.11,4768.17 4726.72,4768.17 4702.66,4847.5 4806.05,4847.5 "/>
   <path class="fil11" d="M4074.86 4626.72l-76.66 151.35c0,0 -76.65,161.18 74.7,169.04 151.35,7.86 452.08,62.9 452.08,62.9 0,0 27.52,-27.52 66.83,4.92 39.31,32.43 110.07,-89.44 4.91,-103.2 0,0 -55.04,-7.86 -86.49,36.37l-333.17 -119.9c0,0 -44.22,-1.97 -19.65,-44.22 24.57,-42.26 52.09,-81.57 52.09,-81.57l-134.64 -75.67z"/>
   <path class="fil6" d="M4070.58 4624.55l-76.66 151.35 -0.08 0.13c-0.22,0.48 -79.72,167.63 78.81,175.87 151.07,7.85 450.61,62.67 451.47,62.82l2.43 0.44 1.77 -1.7c0.07,-0.06 24.49,-24.51 60.45,5.16 11.86,9.78 25.87,7.99 38.19,-0.44 9.96,-6.81 18.8,-18.14 24.15,-30.98 5.39,-12.93 7.33,-27.54 3.43,-40.85 -5.52,-18.85 -22.44,-34.83 -57.19,-39.38l-0.04 -0.02c-0.17,-0.02 -55.36,-7.9 -88.8,35.42l-329.83 -118.7 -1.41 -0.28c-0.1,-0 -36.29,-1.62 -15.71,-37.02 24.51,-42.15 51.78,-81.13 51.86,-81.24l3.04 -4.34 -4.61 -2.6 -134.64 -75.67 -4.37 -2.45 -2.27 4.48zm-68.02 155.54l74.32 -146.73 125.69 70.64c-7.81,11.39 -29.52,43.53 -49.3,77.56 -26.52,45.61 16.46,50.85 22.82,51.37l332.54 119.67 3.42 1.23 2.11 -2.96c29.74,-41.83 81.85,-34.39 82,-34.37l0 -0.01c30.19,3.96 44.66,17.11 49.18,32.53 3.24,11.05 1.53,23.41 -3.09,34.5 -4.66,11.17 -12.24,20.94 -20.7,26.73 -8.86,6.07 -18.7,7.56 -26.69,0.97 -36.44,-30.07 -63.98,-12.22 -71.28,-6.34 -27.8,-5.04 -306.27,-55.07 -450.43,-62.57 -144.15,-7.49 -70.78,-161.78 -70.58,-162.22l-0.01 -0z"/>
   <polygon class="fil12" points="4251.29,4691.92 4232.24,4737.34 4015.24,4620.98 4043.83,4572.14 "/>
   <path class="fil12" d="M4298.29 5152.48c1.69,-12.21 3.22,-26.04 4.45,-41.65l607.43 0c-0.38,14.71 -0.84,28.66 -1.38,41.65l-610.5 0z"/>
   <path class="fil12" d="M4275.72 5236.6c0,0 7.33,-10.53 14.78,-41.65l615.91 0c-1.36,18.14 -3.04,32.44 -5.08,41.65l-625.61 0z"/>
   <path class="fil15" d="M4740.5 3902.38c-7.89,-2.22 -6.83,-0.17 -10.33,-6.54l0 -66.45c-14.3,-43.43 -42.43,-71.11 -42.43,-71.11 8.24,-7.15 10.27,-11.43 15.58,-20.84 7.75,-13.69 14.5,-26.72 15.67,-42.17 13.93,12.75 23.76,28.45 28.74,39.91 3.46,7.95 5.3,16.42 5.58,25.07 1.07,32.96 -6.38,118.56 -12.81,142.13z"/>
   <path class="fil15" d="M4533.16 3750.59c-8.89,31.26 -43.87,54.85 -74.39,67.25 -2.11,20.6 -18.44,70.34 -19.09,79.77l-0.2 -0.26c-8.21,-4.12 -19.21,-6.85 -27.86,-2.52 -0.87,0.44 -1.68,0.93 -2.47,1.47 -2.46,-17 -15.93,-118.47 -14.69,-124.33 1.36,-6.48 9.95,-24.56 30.17,-50.09 -11.87,5.39 -14.63,2.55 -14.63,2.55 0,0 6.04,-2.93 26.07,-26.99 20.05,-24.09 49.81,-44.47 89.81,-50.65 10.35,-1.6 24.2,-0.95 39.59,1.09 43.99,5.8 100.49,22.71 123.91,29.51 10.59,3.06 21,10.11 30.76,18.91 0.3,0.24 0.57,0.49 0.87,0.76 -1.17,15.45 -6.18,30.65 -13.93,44.33 -5.31,9.41 -16.67,16.47 -19.33,16.89 -7.6,1.88 -22.92,2.93 -38.69,0.75 -2.25,-0.3 -4.58,-0.62 -6.99,-0.94 -22.98,-3.14 -54.17,-7.29 -91,-11.96 -0.39,-0.05 -17.5,4.52 -17.89,4.48z"/>
   <path class="fil15" d="M4533.93 3713.48c-13.5,41.02 21.2,76.96 61.5,77.35 26.27,0.25 53.65,-8.24 75.59,-22.54 45.72,-29.81 56.06,-95.94 26.62,-140.98 -4.28,-6.55 -9.78,-12.25 -15.55,-17.5 0.71,11.78 1.56,19.26 -4.13,30.56 0.3,-8.59 -5.93,-33.14 -15.74,-42.06 -5.88,17.85 -26.24,44.52 -60.83,56.16 5.62,-6.77 3.45,-21.59 0.57,-29.94 -0.89,8.28 -40.73,33.55 -51.55,38.85 0,0 -16.44,49.99 -16.47,50.08z"/>
   <path class="fil15" d="M4721.17 3652.58c3.35,15.13 2.96,31.13 -0.5,46.47 -2.37,10.54 -6.55,20.78 -12.36,30.01 -0.02,0.01 -0.02,0.01 -0.02,0.01 -2.67,4.2 -5.66,8.17 -9,11.89 -10.59,11.87 -24.15,20.89 -38.77,26.56 -7.28,3 -14.84,5.05 -22.39,6.85 -3.83,0.73 -7.69,1.28 -11.5,1.95 -3.83,0.43 -7.69,0.8 -11.53,1.11 3.74,-0.93 7.49,-1.81 11.24,-2.61 3.7,-1.06 7.4,-2.04 11.07,-3.18 7.28,-2.31 14.52,-4.79 21.35,-8.15 13.71,-6.44 26.36,-15.07 36.26,-26.34 2.72,-2.97 5.2,-6.13 7.48,-9.45 6.19,-9.01 10.79,-19.17 13.93,-29.78 2.2,-7.23 3.55,-14.75 4.28,-22.35 0.52,-4.29 0.77,-8.61 0.78,-12.95 0.02,-3.32 -0.09,-6.68 -0.31,-10.04z"/>
   <path class="fil15" d="M4676.24 3697.69c-0.51,11.29 -3.04,22.5 -6.98,33.2 -3.93,10.72 -9.56,20.89 -16.7,29.95 -7.07,9.15 -16.42,16.52 -26.6,21.83 -10.1,5.77 -21.78,7.57 -32.89,8.49 2.71,-0.85 5.41,-1.65 8.09,-2.38 2.7,-0.7 5.37,-1.45 7.86,-2.72l7.63 -3.19 7.13 -4.09c9.19,-5.81 17.71,-12.81 24.33,-21.53 6.83,-8.5 12.41,-18.03 17.04,-28.06 4.5,-10.08 8.4,-20.57 11.09,-31.51z"/>
   <path class="fil15" d="M4538.09 3724c-3.21,10.61 -4.52,21.16 -2.42,31.23 1.04,4.99 2.58,9.96 5.09,14.57 1.02,2.44 2.64,4.56 3.92,6.94 1.43,2.29 3.12,4.41 4.56,6.87 -2.31,-1.54 -4.61,-3.19 -6.71,-5.07 -1.89,-2.07 -4.1,-3.96 -5.59,-6.43 -3.54,-4.55 -5.62,-10.15 -6.89,-15.81 -1.13,-5.72 -0.97,-11.69 0.45,-17.25 1.36,-5.56 3.86,-10.85 7.59,-15.06z"/>
   <path class="fil2" d="M4463.05 3782.1c-5.31,65.02 -10.37,132.33 -10.37,132.33l-13.21 -17.08 -17.53 -43.55 7.17 -81.83c0,0 34.66,1.3 33.93,10.13z"/>
   <path class="fil15" d="M4524.3 3721.9c-3.21,10.61 -4.52,21.15 -2.42,31.23 1.04,4.98 2.58,9.96 5.09,14.57 1.02,2.44 2.64,4.56 3.93,6.94 1.43,2.3 3.12,4.41 4.56,6.87 -2.31,-1.53 -4.61,-3.19 -6.71,-5.07 -1.89,-2.07 -4.1,-3.96 -5.59,-6.43 -3.54,-4.56 -5.62,-10.15 -6.89,-15.81 -1.13,-5.72 -0.97,-11.69 0.45,-17.26 1.36,-5.56 3.86,-10.85 7.59,-15.06z"/>
  </g>
  <g id="_878848624">
   <g>
    <rect class="fil7" x="3281.19" y="5142.51" width="851.79" height="851.79"/>
    <path class="fil6" d="M3281.19 5131.72l851.79 0 10.79 0 0 10.79 0 851.79 0 10.79 -10.79 0 -851.79 0 -10.79 0 0 -10.79 0 -851.79 0 -10.79 10.79 0zm841 21.58l-830.21 0 0 830.21 830.21 0 0 -830.21z"/>
   </g>
   <g>
    <rect class="fil8" x="3363.65" y="5384.81" width="539.99" height="367.18" rx="74.48" ry="55.3"/>
    <polygon class="fil8" points="4050.52,5714.2 3873.41,5568.41 4050.52,5422.62 "/>
   </g>
  </g>
  <g id="_878846008">
   <rect class="fil5" x="4951.57" y="3401.32" width="190.65" height="188.31" rx="17.97" ry="17.97"/>
   <rect class="fil5" x="5206.61" y="3401.32" width="432.65" height="43.46" rx="4.49" ry="8.99"/>
   <rect class="fil5" x="5206.61" y="3546.18" width="865.29" height="43.46" rx="8.99" ry="8.99"/>
   <rect class="fil5" x="5206.61" y="3473.75" width="630.97" height="43.46" rx="6.55" ry="8.99"/>
   <g>
    <rect class="fil5" x="4951.57" y="3707.41" width="190.65" height="188.31" rx="17.97" ry="17.97"/>
    <rect class="fil5" x="5206.61" y="3707.41" width="432.65" height="43.46" rx="4.49" ry="8.99"/>
    <rect class="fil5" x="5206.61" y="3852.27" width="865.29" height="43.46" rx="8.99" ry="8.99"/>
    <rect class="fil5" x="5206.61" y="3779.84" width="630.97" height="43.46" rx="6.55" ry="8.99"/>
   </g>
   <rect class="fil5" x="4951.57" y="4013.51" width="190.65" height="188.31" rx="17.97" ry="17.97"/>
   <rect class="fil5" x="5206.61" y="4013.51" width="432.65" height="43.46" rx="4.49" ry="8.99"/>
   <rect class="fil5" x="5206.61" y="4158.36" width="865.29" height="43.46" rx="8.99" ry="8.99"/>
   <rect class="fil5" x="5206.61" y="4085.94" width="630.97" height="43.46" rx="6.55" ry="8.99"/>
  </g>
 </g>
</svg>
