<?xml version="1.0" encoding="UTF-8"?>
<!DOCTYPE svg PUBLIC "-//W3C//DTD SVG 1.1//EN" "http://www.w3.org/Graphics/SVG/1.1/DTD/svg11.dtd">
<!-- Creator: CorelDRAW -->
<svg xmlns="http://www.w3.org/2000/svg" xml:space="preserve" width="10in" height="10in" version="1.1" style="shape-rendering:geometricPrecision; text-rendering:geometricPrecision; image-rendering:optimizeQuality; fill-rule:evenodd; clip-rule:evenodd"
viewBox="0 0 10000 10000"
 xmlns:xlink="http://www.w3.org/1999/xlink"
 xmlns:xodm="http://www.corel.com/coreldraw/odm/2003">
 <defs>
  <style type="text/css">
   <![CDATA[
    .str0 {stroke:#3145AD;stroke-width:16.67;stroke-miterlimit:2.61313}
    .fil9 {fill:#1B3165}
    .fil13 {fill:#1C3165}
    .fil19 {fill:#1F1F1F}
    .fil10 {fill:#253793}
    .fil14 {fill:#2B40A3}
    .fil3 {fill:#4E64CA}
    .fil6 {fill:#87A6E3}
    .fil1 {fill:#B7CEF0}
    .fil7 {fill:#EDA39C}
    .fil15 {fill:#FBFBFB}
    .fil0 {fill:#FDFDFD}
    .fil2 {fill:white}
    .fil8 {fill:white}
    .fil18 {fill:#0C0C0C;fill-rule:nonzero}
    .fil17 {fill:#1B3165;fill-rule:nonzero}
    .fil12 {fill:#243793;fill-rule:nonzero}
    .fil16 {fill:#3145AD;fill-rule:nonzero}
    .fil4 {fill:#4E64CA;fill-rule:nonzero}
    .fil11 {fill:#87A6E3;fill-rule:nonzero}
    .fil5 {fill:white;fill-rule:nonzero}
   ]]>
  </style>
 </defs>
 <g id="Layer_x0020_1">
  <metadata id="CorelCorpID_0Corel-Layer"/>
  <rect class="fil0" width="10000" height="10000"/>
  <path class="fil1" d="M3963.7 2677.46c0,0 -2494.58,-517.98 -3438.23,1798.79 0,0 -192.98,2611.42 752.44,3540.91l8055.58 0c0,0 1119.7,-2314.31 -152.9,-3577.61 -623.22,-618.69 -842.06,-514.8 -1623.39,-457.54 -588.11,43.11 -1346.23,45.07 -1571.65,-198.01 0,0 -915.33,-945.42 -2021.86,-1106.54z"/>
  <g id="_903063392">
   <path class="fil2" d="M2923.74 5214.08l0 0zm4612.94 0l0 0zm-188.81 -3056.29l-4428.63 0 -24.69 0 0 2986.17c0,27.28 11.19,52.12 29.13,70.17 18,17.97 42.85,29.13 70.18,29.13l4472.71 0c27.28,0 52.11,-11.19 70.17,-29.13 17.97,-18 29.13,-42.85 29.13,-70.17l0 -2986.17 -218 0z"/>
   <rect class="fil3" x="3100.32" y="2321.03" width="4320.59" height="367.91" rx="91.22" ry="91.22"/>
   <g>
    <rect class="fil2" x="3225.33" y="2426.98" width="3361.69" height="154.6" rx="261.86" ry="237.83"/>
    <ellipse class="fil2" cx="7219.25" cy="2504.99" rx="76.65" ry="78.22"/>
    <ellipse class="fil2" cx="6981.43" cy="2504.99" rx="76.65" ry="78.22"/>
    <ellipse class="fil2" cx="6743.6" cy="2504.98" rx="76.65" ry="78.21"/>
   </g>
   <g>
    <path class="fil4" d="M4105.85 3631.49l1033.2 0c15.83,0 30.22,6.48 40.62,16.88 10.41,10.41 16.89,24.81 16.89,40.63l0 1315.34c0,15.82 -6.48,30.22 -16.89,40.63 -10.41,10.41 -24.79,16.89 -40.62,16.89l-1033.2 0c-15.83,0 -30.21,-6.48 -40.62,-16.89 -10.41,-10.41 -16.88,-24.81 -16.88,-40.63l0 -1315.34c0,-15.82 6.48,-30.22 16.88,-40.63 10.41,-10.41 24.8,-16.88 40.62,-16.88z"/>
    <path class="fil5" d="M4207.94 3739.7l829.03 0c12.57,0 24.01,5.14 32.28,13.41 8.27,8.28 13.41,19.72 13.41,32.28l0 505.95c0,12.57 -5.14,24 -13.41,32.27 -8.27,8.28 -19.7,13.42 -32.28,13.42l-829.03 0c-12.57,0 -24.01,-5.14 -32.28,-13.42 -8.28,-8.27 -13.42,-19.7 -13.42,-32.27l0 -505.95c0,-12.57 5.14,-24.01 13.42,-32.28 8.27,-8.27 19.7,-13.41 32.28,-13.41zm829.03 26.12l-829.03 0c-5.38,0 -10.28,2.21 -13.82,5.75 -3.54,3.54 -5.75,8.45 -5.75,13.83l0 505.95c0,5.37 2.21,10.28 5.75,13.81 3.54,3.54 8.44,5.75 13.82,5.75l829.03 0c5.38,0 10.28,-2.21 13.82,-5.75 3.54,-3.54 5.75,-8.44 5.75,-13.81l0 -505.95c0,-5.37 -2.21,-10.29 -5.75,-13.83 -3.54,-3.54 -8.45,-5.75 -13.82,-5.75z"/>
    <path class="fil2" d="M4994.77 4238.05c-9.91,-51.41 -45.62,-250.35 -82.7,-253.8 -97.25,-9.05 -78.12,69.84 -140.56,76.29 -124.08,12.82 -56.48,-70.11 -160.62,-108.85 -101.93,-37.92 -84.13,202.87 -232.78,196.25 -63,-3.11 -106.06,97.02 -102.51,102.78l707.57 -0.65c17.36,-0.01 14.61,3.57 11.61,-12.02z"/>
    <ellipse class="fil2" cx="4355.21" cy="3919.42" rx="74.86" ry="76.62"/>
    <rect class="fil2" x="4162.24" y="4459.42" width="460.21" height="32.05" rx="35.85" ry="49.31"/>
    <rect class="fil2" x="4162.24" y="4547.54" width="677.93" height="32.05" rx="52.81" ry="49.31"/>
    <rect class="fil2" x="4162.24" y="4635.66" width="920.42" height="32.05" rx="71.7" ry="49.31"/>
    <rect class="fil2" x="4162.24" y="4723.78" width="920.42" height="32.05" rx="71.7" ry="49.31"/>
    <rect class="fil2" x="4162.24" y="4811.9" width="920.42" height="32.05" rx="71.7" ry="49.31"/>
    <rect class="fil2" x="4162.24" y="4900.03" width="920.42" height="32.05" rx="71.7" ry="49.31"/>
    <rect class="fil3" x="3017.97" y="4409.93" width="939.98" height="651.93" rx="95.34" ry="66.13"/>
    <g>
     <rect class="fil3" x="3017.97" y="3631.49" width="939.98" height="651.93" rx="95.34" ry="66.13"/>
     <g>
      <ellipse class="fil2" cx="3158.11" cy="3773.39" rx="74.86" ry="76.62"/>
      <g>
       <path class="fil6" d="M3112.64 3819.66l90.95 0 0 -6.37c0,-25.01 -20.46,-45.47 -45.47,-45.47l-0 0c-25.01,0 -45.47,20.46 -45.47,45.47l0 6.37z"/>
       <ellipse class="fil6" cx="3158.11" cy="3738.67" rx="21.82" ry="22.34"/>
      </g>
     </g>
     <rect class="fil2" x="3083.25" y="3957.45" width="406.34" height="32.05" rx="31.65" ry="49.31"/>
     <rect class="fil2" x="3083.25" y="4057" width="812.68" height="32.05" rx="63.3" ry="49.31"/>
     <rect class="fil2" x="3083.25" y="4156.55" width="812.68" height="32.05" rx="63.3" ry="49.31"/>
    </g>
   </g>
   <g>
    <rect class="fil3" transform="matrix(2.45042 0.656587 -0.298745 1.11493 3321.61 2462.01)" width="526.17" height="526.17" rx="53.37" ry="53.37"/>
    <g>
     <circle class="fil2" transform="matrix(1.69106 0.453119 -0.463761 1.73078 3479.29 2658.43)" r="49.17"/>
     <g>
      <path class="fil6" d="M3415.02 2696.28l101.01 27.07 1.9 -7.07c7.44,-27.78 -9.19,-56.59 -36.97,-64.03l-0 -0c-27.78,-7.44 -56.59,9.19 -64.04,36.97l-1.89 7.07z"/>
      <circle class="fil6" transform="matrix(0.49301 0.132102 -0.135204 0.504587 3489.62 2619.87)" r="49.17"/>
     </g>
    </g>
    <rect class="fil2" transform="matrix(0.622852 0.166893 -0.178334 0.665552 3356.09 2785.63)" width="855.83" height="43.33" rx="66.67" ry="66.67"/>
    <rect class="fil2" transform="matrix(1.2457 0.333785 -0.178334 0.665552 3332.09 2875.21)" width="855.83" height="43.33" rx="66.67" ry="66.67"/>
    <rect class="fil2" transform="matrix(1.2457 0.333785 -0.178334 0.665552 3308.09 2964.79)" width="855.83" height="43.33" rx="66.67" ry="66.67"/>
   </g>
   <path class="fil7" d="M3190.43 2571.53c0,0 12.16,88.17 82.09,129.22 0,0 91.22,-59.28 41.05,-110.97 -50.17,-51.69 -57.77,-53.22 -57.77,-53.22l-65.37 34.97z"/>
   <path class="fil7" d="M4582.59 2736.38c0,0 -12.16,88.17 -82.09,129.22 0,0 -91.22,-59.28 -41.05,-110.98 50.17,-51.69 57.77,-53.21 57.77,-53.21l65.37 34.97z"/>
   <path class="fil3" d="M2894.55 5143.97l0 -2986.17 24.69 0 4428.63 0 218 0 0 2986.17c0,27.32 -11.16,52.17 -29.13,70.17 -8.69,8.63 -18.96,15.71 -30.3,20.72 -12.22,5.4 -25.71,8.41 -39.86,8.41l-4472.71 0c-27.33,0 -52.18,-11.16 -70.18,-29.13 -4.8,-4.83 -9.13,-10.16 -12.88,-15.89 -10.26,-15.65 -16.25,-34.31 -16.25,-54.28zm4572.02 -3223.99l-4472.71 0c-88.06,0 -160.13,72.07 -160.13,160.12l0 3063.87c0,88.06 72.07,160.13 160.13,160.13l4472.71 0c88.04,0 160.12,-72.08 160.12,-160.13l0 -3063.87c0,-88.04 -72.07,-160.12 -160.12,-160.12z"/>
   <path class="fil6" d="M3188.17 2584.21l82.17 -39.62c0,0 40.35,-571.51 247.97,-592.78 62.98,-42.44 713.22,-42.44 776.2,0 240.72,24.66 247.6,568.28 209.36,754.92l82.17 39.62c5.41,-25.69 48.61,-212.78 52.44,-236.98 78.65,-497.16 -163.5,-685.95 -163.5,-685.95 -345.44,-309.97 -791.7,-309.97 -1137.15,0 0,0 -266.31,207.62 -149.66,760.78z"/>
   <path class="fil8 str0" d="M3898.51 1424.3c-9.35,66.6 -114.71,470.94 129.4,242.1l6.26 -171.14 83.48 0c0,0 62.62,-14.61 33.4,-64.7 0,0 -13.57,-17.74 3.13,-35.48l21.92 -18.78 -39.65 -60.53c0,0 3.12,-126.27 -48.01,-151.31 0,0 -112.7,-28.18 -137.75,120.01 0,0 -57.39,-50.09 -68.87,-12.52 -10.91,35.7 44.83,93.27 16.7,152.36z"/>
   <g>
    <g>
     <rect class="fil3" x="5306.69" y="3023.61" width="353.62" height="349.29"/>
     <g>
      <rect class="fil3" x="5779.76" y="3023.61" width="1605" height="80.6"/>
      <rect class="fil3" x="5779.76" y="3157.96" width="1605" height="80.6"/>
      <rect class="fil3" x="5779.76" y="3292.3" width="838.43" height="80.6"/>
     </g>
     <g>
      <rect class="fil3" x="5779.76" y="3591.37" width="1605" height="80.6"/>
      <rect class="fil3" x="5779.76" y="3725.71" width="1605" height="80.6"/>
      <rect class="fil3" x="5779.76" y="3860.06" width="838.43" height="80.6"/>
     </g>
     <rect class="fil3" x="5306.69" y="3591.37" width="353.62" height="349.29"/>
    </g>
    <g>
     <rect class="fil3" x="5306.69" y="4144.8" width="353.62" height="349.29"/>
     <g>
      <rect class="fil3" x="5779.76" y="4144.8" width="1605" height="80.6"/>
      <rect class="fil3" x="5779.76" y="4279.15" width="1605" height="80.6"/>
      <rect class="fil3" x="5779.76" y="4413.49" width="838.43" height="80.6"/>
     </g>
     <g>
      <rect class="fil3" x="5779.76" y="4712.56" width="1605" height="80.6"/>
      <rect class="fil3" x="5779.76" y="4846.91" width="1605" height="80.6"/>
      <rect class="fil3" x="5779.76" y="4981.25" width="838.43" height="80.6"/>
     </g>
     <rect class="fil3" x="5306.69" y="4712.57" width="353.62" height="349.29"/>
    </g>
   </g>
   <path class="fil9" d="M3998.72 1206.35l-24.6 122.38c-13.27,-11.59 -68.18,-44 -65.59,-6.25 -1.11,23.76 32.38,76.28 -1.82,240.82l-153.04 13.19c-33.39,-16.9 -29.35,-33.79 -27.04,-67.6 3.59,-53.18 114.45,-257.93 144.56,-322.42 -96.37,-137.83 230.01,-106.22 284.67,-48.14 97.68,103.79 -114.22,50.38 -157.14,68.03z"/>
  </g>
  <rect class="fil10" y="8017.15" width="10000" height="120.17"/>
  <g id="_171937376">
   <path class="fil11" d="M7546.29 5587c0.5,-0.08 173.21,-29.88 400.85,25.51 225.98,54.98 504.99,194.19 719.61,530.53 158.08,247.72 281.36,602.41 323.34,1109.05l33.56 -2.77c-42.47,-512.53 -167.8,-872.29 -328.61,-1124.31 -220.44,-345.46 -507.46,-488.57 -740,-545.15 -234.5,-57.06 -413.88,-26.11 -414.39,-26.02l5.65 33.17z"/>
   <path class="fil6" d="M7951.08 5596.19l8.29 -161.06c2.83,-54.99 17.4,-122.59 -10.35,-198.2 -23.42,-63.74 -66.45,-147.23 -106.56,-45.52 -58.94,149.49 108.62,404.78 108.62,404.78z"/>
   <path class="fil6" d="M7951.08 5596.19l-44.78 154.93c-15.3,52.9 -23.6,121.54 -74.52,183.94 -42.96,52.6 -110.9,117.44 -115.59,8.22 -6.87,-160.55 234.89,-347.09 234.89,-347.09z"/>
   <path class="fil6" d="M8522.07 5929.39l78.15 -141.06c26.69,-48.17 69.46,-102.5 77.72,-182.62 6.95,-67.56 4.94,-161.45 -75.76,-87.69 -118.59,108.44 -80.12,411.37 -80.12,411.37z"/>
   <path class="fil6" d="M8522.07 5929.39l-108.25 119.54c-36.96,40.81 -74.57,98.84 -147.72,132.55 -61.69,28.4 -151.2,56.83 -107.46,-43.37 64.31,-147.26 363.43,-208.72 363.43,-208.72z"/>
   <path class="fil6" d="M7605.48 5561.89l-199.37 91.59c-68.08,31.27 -146.17,83.74 -255.71,86.76 -92.36,2.51 -219.54,-9.83 -111.2,-111.75 159.25,-149.79 566.29,-66.6 566.29,-66.6z"/>
   <path class="fil3" d="M9724.4 5280.61c0,0 -158.32,184.31 -140.61,350.66 17.71,166.35 -211.02,327.19 -308.56,381.98 -97.55,54.8 -172.22,560.89 -368.19,713.17 -195.97,152.28 -125.13,-274.22 -125.13,-274.22 0,0 203.36,-790.53 385.08,-892.02 181.72,-101.49 244.26,-316.38 244.26,-316.38 0,0 280.38,-189.28 313.16,36.81z"/>
   <path class="fil12" d="M9562.29 5277.75c-2.69,3.33 -941.24,1152.75 -835.34,2296.63l33.43 -3.02c-104.64,-1130.18 825.43,-2269.25 828.09,-2272.56l21.93 -41.47 -48.11 20.42z"/>
   <rect class="fil13" x="8362.55" y="7174.9" width="1078.08" height="195.82"/>
   <polygon class="fil14" points="9246.91,8017.15 8556.27,8017.15 8472.04,7370.72 9331.13,7370.72 "/>
  </g>
  <g id="_738466496">
   <g>
    <polygon class="fil15" points="1613.2,2460.29 1602.83,2819.86 1938.27,2816.11 1931.81,2675.68 1927.42,2506.66 "/>
    <path class="fil16" d="M1621.46 2470.16l-9.84 341.06 317.7 -3.54 -6.04 -131.63 0 -0.17 -4.22 -161.8 -297.6 -43.93zm-27.17 349.46l10.37 -359.57 0.28 -9.64 9.5 1.4 314.21 46.37 7.11 1.05 0.19 7.22 4.4 168.85 0 0 6.45 140.44 0.41 8.81 -8.87 0.1 -335.43 3.74 -8.86 0.1 0.26 -8.87z"/>
    <path class="fil15" d="M1886.05 1862.28c-10.14,-10.81 -360.04,-9.41 -311.24,369.79 0,0 -91.94,-54.59 -68.95,83.31 0,0 0,48.85 68.95,45.98 0,0 79.37,318.54 286.76,288.55 207.39,-29.99 193.03,-228.22 193.03,-228.22l0 -339.01c0,0 41.17,-232.32 -168.54,-220.4z"/>
    <path class="fil16" d="M1879.82 1868.13c-1.35,-1.44 -20.7,-1.59 -50.24,2.21 -23.57,3.04 -52.39,9.4 -81.99,21.28 -29.46,11.82 -59.69,29.12 -86.25,54.04 -56.5,53.04 -96.63,141.04 -78.06,285.33l2.22 17.25 -15.02 -8.78c-0.21,-0.13 -76.15,-45.25 -56.19,74.51l0.1 1.17c0,0.11 -0.07,40.18 60.07,37.67l6.88 -0.28 1.73 6.71c0.23,0.88 77.54,311.06 277.28,282.18 199.49,-28.85 185.73,-218.67 185.7,-219.22l-0.04 -0.53 0 -339 0.14 -1.44c0.1,-0.63 39.28,-221.73 -159.63,-210.43l-3.98 0.23 -2.72 -2.91zm-52.39 -14.73c26.42,-3.41 47.83,-2.15 58.3,0.33 213.15,-12 179.93,214.18 177.44,229.56l0 338.4 -0 0c0.65,11.29 8.95,206.42 -200.39,236.7 -197.24,28.52 -281.65,-242.54 -294.47,-288.35 -66.44,-0.29 -70.69,-47.66 -70.96,-53.76 -19.69,-119.19 38.78,-109.52 67.22,-98.47 -14.67,-141.87 27.12,-230.21 85.07,-284.59 28.28,-26.54 60.37,-44.92 91.61,-57.45 31.09,-12.48 61.38,-19.17 86.2,-22.35z"/>
    <path class="fil9" d="M1572.65 2236.94c-27.24,-21.3 -51.09,-15.72 -64.49,5.41l-35.37 -217.94 -33.36 28.41c5.31,-22.89 14.05,-33.49 8.85,-50.57 -1.91,-6.24 -14.39,0.94 3.24,-37.68 20.25,-44.41 25.74,-62.27 56.37,-85.31 86.57,-65.13 44.89,-46.82 167.3,-113.3 70.72,-38.41 243.59,-117.17 322.39,-54.26l67.43 70.13 -16.41 -49.66c50.96,31.93 53.58,141.97 54.62,191.85 1.24,59.69 -36.59,180.78 -48.99,238.28 -18,-35.52 -25.6,-77.54 -12.64,-149.83l-412.35 -10.17c-2.81,21.27 -9.48,41.38 -12.24,62.61 -14.24,109.63 2.36,54.32 -44.34,172.04z"/>
    <path class="fil17" d="M1535.9 2232.28c-9.07,1.26 -15.12,8.4 -19.83,15.81l-18.96 -5.5 -30.32 -201.85 -21.82 18.58 -13.87 -8.41c1.78,-7.67 3.91,-13.98 5.81,-19.61l0 -0.04c3.23,-9.54 5.67,-16.8 3.57,-25.19 -6.17,-4.29 -12.85,-9.74 3.26,-45.06 2.04,-4.46 4.2,-9.28 6.22,-13.79 16.14,-35.96 23.8,-53 52.8,-74.81 27.18,-20.44 41.56,-32.54 52.38,-41.65 24.38,-20.51 31.37,-26.39 115.94,-72.33 43.29,-23.51 124.48,-61.98 199.74,-74.65 50.57,-8.51 98.74,-5.43 132.07,21.19l0.83 0.78 41.31 42.97 -4.59 -13.89 12.66 -9.91c27.94,17.5 42.38,55.1 49.91,94.85 7.27,38.34 8.2,78.82 8.72,104.06 0.92,44.22 -18.68,119.83 -34.35,180.36 -5.94,22.94 -11.32,43.69 -14.8,59.85l-16.01 2.07c-9.44,-18.62 -16.16,-38.95 -18.81,-64.1 -2.37,-22.49 -1.45,-48.83 3.74,-81.28l-394.97 -9.74c-1.41,8.32 -3.25,16.33 -5.08,24.33l-0.01 0c-2.33,10.23 -4.68,20.48 -6,30.62 -3.41,26.26 -5.05,43.07 -6.21,55.02 -1.38,14.23 -2.13,21.83 -4.41,30.69 -2.61,10.14 -6.91,20.69 -16.11,43.32 -5.15,12.69 -7.96,28.5 -14.36,44.61l1.11 8.63c-17.04,-4.3 -36.45,-17.8 -49.6,-15.97zm-2.34 -16.95c10.77,-1.49 22.69,1.04 35.13,8.49 6.48,-16.24 10.71,-26.68 14.19,-35.24 9.01,-22.16 13.21,-32.5 15.43,-41.11 1.94,-7.52 2.63,-14.67 3.94,-28.07 1.17,-12.02 2.82,-28.93 6.28,-55.56 1.45,-11.17 3.86,-21.71 6.27,-32.26l0 -0.04c2.32,-10.14 4.64,-20.28 5.97,-30.35l1.01 -7.62 7.67 0.19 412.35 10.16 9.96 0.25 -1.76 9.8c-6.33,35.27 -7.64,63.09 -5.2,86.33 1.33,12.62 3.8,23.9 7.18,34.33 2.66,-10.64 5.69,-22.36 8.89,-34.69 15.42,-59.53 34.68,-133.88 33.82,-175.74 -0.52,-24.63 -1.42,-64.12 -8.46,-101.24 -3.43,-18.06 -8.28,-35.53 -15.21,-50.24l2.13 6.45 -14.3 8.6 -66.96 -69.64c-28.93,-22.82 -72.23,-25.17 -118.24,-17.43 -72.95,12.28 -152.11,49.82 -194.38,72.77 -83.16,45.17 -89.84,50.79 -113.13,70.39 -11.07,9.32 -25.8,21.7 -53.12,42.25 -25.46,19.15 -32.53,34.89 -47.44,68.11 -1.85,4.13 -3.83,8.53 -6.28,13.92 -10.47,22.94 -9.55,23.58 -8.76,24.13 2.35,1.62 4.59,3.19 5.92,7.52 3.25,10.65 2.23,18.78 -0.32,27.62l11.13 -9.48 11.54 -9.82 2.43 14.94 32.54 200.55c5.83,-4.4 12.48,-7.25 19.78,-8.26z"/>
   </g>
   <g>
    <path class="fil15" d="M2912.37 3220.52c0.43,14.03 -107,306.43 -121.39,349.6 -44.02,132.07 -214.25,-249.06 -241.77,-296.72 -36.63,-98.91 -135.54,-109.89 -135.54,-109.89l10.99 362.65c0,0 168.5,282.06 304.04,402.94 212.04,189.11 282.61,-627.24 307.62,-645.7 24.07,-18.09 51.89,-37.02 83.65,-50.89 25.69,-11.21 52.38,-14.88 76.2,-29.42 95.11,-58.08 58.04,-205.69 20.95,-205.69 -31.44,0 -42.22,92.27 -97.97,108.44 -35.37,10.25 -98.36,-4.03 -77.65,-54.73 24.39,-59.7 -135.24,-24.13 -129.14,169.41z"/>
    <path class="fil16" d="M2922.71 3220.24c0.36,11.59 -51.04,154.76 -87.72,256.94 -16.38,45.63 -29.81,83.03 -34.19,96.18 -10.35,31.05 -27.22,39.72 -48.13,32.75 -57.88,-19.3 -146.76,-197.18 -190.65,-285.03 -10.11,-20.23 -17.79,-35.61 -21.76,-42.49l-0.77 -1.62c-26.83,-72.45 -88.93,-94.62 -115.07,-100.89l10.52 347.05c16.13,26.74 173.15,284.49 300.68,398.22 42.1,37.55 77.77,30.34 108.02,-3.58 81.67,-91.58 129.29,-362.18 156.91,-519.19 12.12,-68.87 20.55,-116.8 29.63,-123.5l0 0.01c12.16,-9.13 25.33,-18.52 39.63,-27.48 14.4,-9.02 29.75,-17.48 46.04,-24.59 10.88,-4.75 21.55,-8.1 32.13,-11.42 14.91,-4.68 29.64,-9.31 42.82,-17.35 41.03,-25.06 55.24,-68.67 55.24,-107.86 0,-13.61 -1.69,-26.61 -4.54,-38.08 -2.8,-11.26 -6.69,-21.01 -11.18,-28.37 -4.63,-7.59 -9.32,-12.15 -13.18,-12.15 -7.96,0 -16.57,16.12 -26.72,35.14 -15.32,28.69 -33.5,62.74 -68.37,72.85 -18.39,5.33 -43.5,4.72 -62.79,-3.16 -7.09,-2.89 -13.47,-6.74 -18.62,-11.6 -5.52,-5.22 -9.68,-11.57 -11.87,-19.12 -2.85,-9.82 -2.25,-21.37 3.19,-34.68 2.14,-5.25 2.32,-8.57 1.04,-10.08 -1.68,-1.99 -6.08,-2.58 -12.24,-1.69 -8.3,1.21 -18.52,5.34 -29.28,12.68 -34.4,23.45 -71.73,78.02 -68.76,172.07l0 0.04zm-107.19 249.97c36.11,-100.59 86.7,-241.52 86.51,-249.39 -3.23,-102.76 38.93,-163.32 77.76,-189.8 13.48,-9.19 26.81,-14.44 38.04,-16.08 13.38,-1.94 24.49,1.17 30.97,8.82 6.24,7.38 7.69,17.99 2.28,31.24 -3.52,8.63 -4.06,15.61 -2.45,21.14 1.09,3.77 3.26,7.03 6.19,9.79 3.3,3.12 7.5,5.63 12.22,7.55 15.09,6.16 34.78,6.62 49.25,2.43 26.5,-7.69 42.44,-37.55 55.88,-62.72 13.34,-24.98 24.65,-46.17 44.97,-46.17 11.62,0 22.42,8.31 30.86,22.13 5.56,9.1 10.3,20.87 13.61,34.2 3.26,13.12 5.19,27.82 5.19,43.03 0,45.32 -16.78,95.96 -65.22,125.54 -15.4,9.4 -31.32,14.4 -47.44,19.46 -10.13,3.18 -20.34,6.39 -30.02,10.61 -15.46,6.76 -29.9,14.7 -43.36,23.13 -13.54,8.48 -26.31,17.59 -38.22,26.54l-0.04 0.04c-2.4,1.77 -10.24,46.36 -21.52,110.44 -28,159.15 -76.26,433.44 -161.86,529.41 -38.67,43.36 -84.05,52.77 -137.3,5.28 -136.69,-121.9 -305.54,-404.56 -306.03,-405.38l-1.46 -5.03 -10.99 -362.65 -0.37 -12.01 11.92 1.43c0.3,0.04 104.61,11.63 143.72,115.77 4.61,8.11 12.15,23.2 21.97,42.85 42.63,85.33 128.95,258.11 178.56,274.65 8.7,2.9 16.31,-2.46 22.02,-19.61 4.54,-13.64 17.97,-51.04 34.35,-96.67z"/>
    <g>
     <rect class="fil15" x="925.89" y="7623.93" width="204.1" height="145.39"/>
     <path class="fil18" d="M925.89 7777.53l204.09 0 8.22 0 0 -8.22 0 -145.39 0 -8.22 -8.22 0 -204.09 0 -8.22 0 0 8.22 0 145.39 0 8.22 8.22 0zm195.88 -16.43l-187.67 0 0 -128.95 187.67 0 0 128.95z"/>
     <rect class="fil15" x="2143.01" y="7633.49" width="204.1" height="145.39"/>
     <path class="fil18" d="M2143.02 7787.09l204.09 0 8.22 0 0 -8.22 0 -145.39 0 -8.22 -8.22 0 -204.09 0 -8.22 0 0 8.22 0 145.39 0 8.22 8.22 0zm195.88 -16.43l-187.66 0 0 -128.95 187.66 0 0 128.95z"/>
     <polygon class="fil10" points="2379.56,7657.99 2322.07,4323.84 1320.18,4323.84 896.28,7657.99 1144.03,7657.99 1829.34,5005.46 2114.99,7657.99 "/>
     <polygon class="fil10" points="903.94,7597.71 896.28,7657.99 1144.03,7657.99 1159.6,7597.71 "/>
     <path class="fil6" d="M1275.62 4446.73c0,0 119.01,-170.4 -4.43,-1018.39l-69.77 166.37 -370.33 -198.57 271.83 -464.42c25.99,-44.42 16.39,-42.54 63.83,-60.87l431.24 -167.26c28.93,37.02 97.75,61.97 173.37,61.97 75.62,0 141.93,-25.59 170.78,-62.72l400.58 107.33c51.86,13.87 39.39,8.64 63.1,56.41l313.13 630.19 -324.78 140.81 -40.18 -215.95c0,0 21.47,880.19 -10.73,1025.1l-1067.64 0z"/>
     <path class="fil3" d="M2336.12 3372.33c0.04,0.05 23.41,21.81 17.87,49.3l0 0 0 0c7.2,-35.75 -1.69,-60.57 -1.74,-60.64l-16.13 11.35z"/>
     <path class="fil3" d="M1220.65 3298.5c0.17,0.24 67.9,88.44 50.54,129.84l0 0 0 0c21.59,-51.5 -34.08,-140.69 -34.26,-140.95l-16.28 11.11z"/>
     <path class="fil3" d="M1314.22 4302.46c4.08,-29.57 7.59,-64.61 9.93,-106.04 7.28,-1.27 14.74,-1.99 22.48,-1.99 27.99,0 52.38,9.47 77.75,19.93 10.41,4.3 28.78,12.47 40.09,12.47 11.31,0 29.68,-8.18 40.09,-12.47 25.38,-10.46 49.76,-19.93 77.75,-19.93 28,0 52.38,9.47 77.75,19.93 10.41,4.3 28.78,12.47 40.09,12.47 11.31,0 29.69,-8.18 40.09,-12.47 25.37,-10.46 49.76,-19.93 77.75,-19.93 27.99,0 52.37,9.47 77.75,19.93 10.41,4.3 28.78,12.47 40.09,12.47 11.31,0 29.68,-8.18 40.09,-12.47 25.38,-10.46 49.76,-19.93 77.75,-19.93 27.99,0 52.38,9.47 77.75,19.93 10.41,4.3 28.78,12.47 40.09,12.47 11.31,0 29.69,-8.18 40.09,-12.47 25.37,-10.47 49.76,-19.94 77.75,-19.94 24.93,0 47,7.51 69.46,16.55 -0.83,37.87 -1.95,73.2 -3.4,104.77 -8.67,-3.02 -17.26,-6.5 -25.97,-10.09 -10.41,-4.3 -28.78,-12.48 -40.09,-12.48 -11.31,0 -29.69,8.18 -40.09,12.48 -25.37,10.46 -49.76,19.93 -77.75,19.93 -27.99,0 -52.38,-9.47 -77.75,-19.93 -10.41,-4.3 -28.78,-12.48 -40.09,-12.48 -11.31,0 -29.69,8.18 -40.09,12.48 -25.38,10.46 -49.76,19.93 -77.75,19.93 -28,0 -52.38,-9.47 -77.76,-19.93 -10.41,-4.3 -28.78,-12.48 -40.09,-12.48 -11.31,0 -29.69,8.18 -40.09,12.48 -25.37,10.46 -49.76,19.93 -77.75,19.93 -27.99,0 -52.38,-9.47 -77.75,-19.93 -10.41,-4.3 -28.78,-12.48 -40.09,-12.48 -11.31,0 -29.68,8.18 -40.09,12.48 -25.38,10.46 -49.76,19.93 -77.75,19.93 -27.99,0 -52.38,-9.47 -77.75,-19.93 -10.41,-4.3 -28.78,-12.48 -40.09,-12.48 -8.88,0 -22.09,5.03 -32.4,9.28z"/>
     <path class="fil3" d="M1538.48 2727.22l59.5 -23.64c28.93,37.02 97.75,61.97 173.37,61.97 75.62,0 141.93,-25.59 170.78,-62.72l67.89 18.19c-22.29,64.26 -119.92,112.65 -236.98,112.65 -113.27,0 -208.33,-45.3 -234.57,-106.44z"/>
     <polygon class="fil3" points="2677.8,3413.95 2718.94,3496.77 2394.16,3637.58 2378.26,3552.07 "/>
     <path class="fil15" d="M2253.04 3548.44l-336.07 0c-17.73,0 -26.25,15.57 -32.23,32.23l-176.79 492.6c-5.98,16.65 14.53,32.23 32.23,32.23l336.07 0c17.7,0 26.25,-15.55 32.23,-32.23l176.79 -492.6c5.98,-16.68 -14.5,-32.23 -32.23,-32.23z"/>
     <path class="fil16" d="M2253.04 3542.55l-336.07 0c-10.84,0 -18.83,4.72 -24.98,11.94 -5.65,6.63 -9.57,15.3 -12.77,24.2l-176.79 492.6c-0.98,2.71 -1.43,5.37 -1.43,7.95 0,6.88 3.07,13.24 7.93,18.46 4.5,4.85 10.65,8.76 17.23,11.12 4.59,1.64 9.39,2.57 14.02,2.57l336.07 0c10.82,0 18.81,-4.71 24.97,-11.93 5.65,-6.62 9.59,-15.3 12.78,-24.21l176.79 -492.6 0.02 0c0.96,-2.69 1.41,-5.35 1.41,-7.96 0,-6.88 -3.07,-13.24 -7.92,-18.46 -4.51,-4.85 -10.65,-8.75 -17.23,-11.11 -4.59,-1.65 -9.41,-2.57 -14.04,-2.57zm-336.07 11.79l336.07 0c3.35,0 6.81,0.66 10.08,1.83 4.85,1.74 9.33,4.57 12.58,8.06 2.9,3.12 4.74,6.75 4.74,10.45 0,1.3 -0.23,2.65 -0.71,4l0.02 0.01 -176.78 492.59c-2.78,7.76 -6.12,15.2 -10.66,20.53 -4.02,4.71 -9.17,7.78 -16.04,7.78l-336.07 0c-3.34,0 -6.79,-0.66 -10.06,-1.83 -4.84,-1.74 -9.33,-4.58 -12.58,-8.08 -2.91,-3.13 -4.75,-6.75 -4.75,-10.45 0,-1.34 0.22,-2.68 0.69,-3.99l176.79 -492.6c2.78,-7.74 6.11,-15.19 10.65,-20.52 4.02,-4.72 9.17,-7.8 16.06,-7.8z"/>
     <path class="fil15" d="M932.83 3405.93l-130.82 258.28c0,0 -130.81,275.06 127.47,288.48 258.28,13.42 771.51,107.34 771.51,107.34 0,0 46.96,-46.96 114.05,8.39 67.09,55.35 187.85,-152.63 8.39,-176.11 0,0 -93.93,-13.42 -147.6,62.06l-568.57 -204.62c0,0 -75.47,-3.36 -33.54,-75.48 41.93,-72.12 88.89,-139.21 88.89,-139.21l-229.77 -129.14z"/>
     <path class="fil16" d="M925.52 3402.23l-130.82 258.29 -0.13 0.23c-0.38,0.82 -136.06,286.07 134.5,300.13 257.81,13.39 768.98,106.94 770.46,107.21l4.13 0.76 3.02 -2.91c0.11,-0.11 41.79,-41.83 103.17,8.8 20.24,16.69 44.15,13.63 65.18,-0.76 16.99,-11.63 32.07,-30.95 41.22,-52.87 9.2,-22.07 12.5,-47 5.85,-69.71 -9.43,-32.18 -38.3,-59.45 -97.61,-67.21l-0.06 -0.03c-0.28,-0.04 -94.48,-13.48 -151.54,60.45l-562.87 -202.57 -2.41 -0.48c-0.17,-0 -61.94,-2.76 -26.81,-63.18 41.83,-71.94 88.37,-138.44 88.5,-138.63l5.19 -7.41 -7.88 -4.43 -229.77 -129.14 -7.45 -4.19 -3.87 7.65zm-116.08 265.44l126.83 -250.41 214.49 120.55c-13.33,19.43 -50.37,74.28 -84.13,132.35 -45.26,77.84 28.09,86.78 38.94,87.67l567.5 204.23 5.83 2.11 3.6 -5.06c50.76,-71.39 139.68,-58.69 139.93,-58.66l0 -0.02c51.51,6.76 76.22,29.2 83.93,55.52 5.52,18.85 2.61,39.95 -5.27,58.87 -7.95,19.06 -20.88,35.73 -35.32,45.61 -15.12,10.35 -31.92,12.89 -45.54,1.66 -62.2,-51.31 -109.19,-20.87 -121.65,-10.82 -47.45,-8.6 -522.67,-93.98 -768.69,-106.77 -246,-12.78 -120.8,-276.08 -120.44,-276.83l-0.02 -0z"/>
     <polygon class="fil3" points="1233.92,3517.2 1201.42,3594.71 831.09,3396.14 879.88,3312.79 "/>
     <path class="fil3" d="M1275.62 4446.73c0,0 12.51,-17.96 25.21,-71.08l1051.1 0c-2.33,30.96 -5.18,55.36 -8.67,71.08l-1067.64 0z"/>
     <path class="fil19" d="M2111.74 7754.37l0 262.79 644.66 0c47.42,-86.21 -61.47,-102.06 -117.21,-122.22 -99.6,-36.04 -226.23,-110.62 -260.8,-140.57l-266.65 0z"/>
     <path class="fil19" d="M899.64 7754.37l0 262.79 467.09 0c34.35,-86.21 -44.54,-102.06 -84.93,-122.22 -72.17,-36.03 -99.76,-107.41 -124.81,-137.36l-257.35 -3.21z"/>
    </g>
   </g>
  </g>
 </g>
</svg>
