<?xml version="1.0" encoding="UTF-8"?>
<!DOCTYPE svg PUBLIC "-//W3C//DTD SVG 1.1//EN" "http://www.w3.org/Graphics/SVG/1.1/DTD/svg11.dtd">
<!-- Creator: CorelDRAW -->
<svg xmlns="http://www.w3.org/2000/svg" xml:space="preserve" width="20in" height="20in" version="1.1" style="shape-rendering:geometricPrecision; text-rendering:geometricPrecision; image-rendering:optimizeQuality; fill-rule:evenodd; clip-rule:evenodd"
viewBox="0 0 10000 10000"
 xmlns:xlink="http://www.w3.org/1999/xlink"
 xmlns:xodm="http://www.corel.com/coreldraw/odm/2003">
 <defs>
  <style type="text/css">
   <![CDATA[
    .str0 {stroke:#CD6012;stroke-width:16.67;stroke-miterlimit:2.61313}
    .fil0 {fill:none}
    .fil2 {fill:#1F1F1F}
    .fil13 {fill:#201F1F}
    .fil5 {fill:#CD6012}
    .fil6 {fill:#DA9020}
    .fil12 {fill:#E3AE39}
    .fil8 {fill:#E9C462}
    .fil1 {fill:#F2E09E}
    .fil3 {fill:#FAFFFF}
    .fil10 {fill:#FBFBFB}
    .fil9 {fill:white}
    .fil15 {fill:#1F1F1F;fill-rule:nonzero}
    .fil4 {fill:#CD6012;fill-rule:nonzero}
    .fil11 {fill:#DA9020;fill-rule:nonzero}
    .fil7 {fill:#E9C462;fill-rule:nonzero}
    .fil14 {fill:#1F1F1F;fill-rule:nonzero}
   ]]>
  </style>
 </defs>
 <g id="Layer_x0020_1">
  <metadata id="CorelCorpID_0Corel-Layer"/>
  <rect class="fil0" width="20000" height="20000"/>
  <path class="fil1" d="M6459.37 1935.41c-2050.3,0 -2822.89,3647.41 -3011.45,3647.41 -1704.17,0 -4095.96,135.91 -3027.52,2507.06l8234.51 0c727.14,-622.31 1190.02,-1146.53 1190.02,-2607.41 0,-1460.89 -1561.28,-3547.06 -3385.56,-3547.06z"/>
  <rect class="fil2" y="8089.89" width="20000" height="140.17"/>
  <g id="_751439512">
   <rect class="fil3" x="3574.79" y="2408.43" width="3021.96" height="2602.73"/>
   <path class="fil4" d="M3574.79 2400.09l3021.96 0 8.33 0 0 8.33 0 2602.73 0 8.33 -8.33 0 -3021.96 0 -8.33 0 0 -8.33 0 -2602.73 0 -8.33 8.33 -0zm3013.63 16.67l-3005.29 0 0 2586.06 3005.29 0 0 -2586.06z"/>
   <rect class="fil5" x="3469.98" y="2306.12" width="3231.58" height="110.64" rx="4192.68" ry="166.67"/>
   <rect class="fil6" x="5819.42" y="3655.02" width="165.95" height="1123.23"/>
   <rect class="fil6" x="5561.76" y="3933.98" width="165.95" height="844.28"/>
   <polygon class="fil7" points="4440.83,4126.98 4767.13,3535.97 4785.17,3503.31 4812.4,3528.8 5099.96,3797.72 5391.87,3404.57 5407.14,3384.01 5429.39,3396.5 5722.65,3561.06 6018.45,3295.98 6057.1,3339.2 5745.81,3618.15 5730.32,3632.03 5712.28,3621.91 5423.23,3459.71 5127.22,3858.38 5107.87,3884.45 5084.12,3862.25 4800.06,3596.58 4491.78,4154.95 "/>
   <polygon class="fil5" points="6268.4,8089.9 6172.82,8089.89 5085.76,5657.76 5219.01,5596.35 "/>
   <rect class="fil6" x="5304.1" y="3759.3" width="165.95" height="1018.96"/>
   <rect class="fil6" x="5046.44" y="4178.53" width="165.95" height="599.73"/>
   <rect class="fil6" x="4788.78" y="3887.39" width="165.95" height="890.87"/>
   <rect class="fil6" x="4518.69" y="4478.4" width="165.95" height="299.86"/>
   <rect class="fil5" x="5007.16" y="5102.34" width="157.21" height="450.33"/>
   <polygon class="fil5" points="5042.01,8089.89 5129.52,8089.89 5158.69,5657.76 5012.84,5657.76 "/>
   <polygon class="fil5" points="3908.67,8090.67 3998.71,8089.89 5085.78,5657.76 4952.53,5596.35 "/>
   <rect class="fil6" x="4802.38" y="5526.47" width="566.78" height="139.74" rx="2503.34" ry="716.64"/>
   <g>
    <circle class="fil6" cx="4248.57" cy="3116.08" r="406.95"/>
    <path class="fil8" d="M4199.61 2712.07c113.23,-13.65 231.07,20.23 321.28,101.61l0.76 0.68 2.87 2.61 1.86 1.73 2.4 2.26 1.54 1.48 3.02 2.92 0.26 0.25 2.75 2.72c73.63,73.65 119.2,175.37 119.19,287.76l-406.94 -0 -48.96 -404.01z"/>
   </g>
   <rect class="fil5" x="3469.98" y="5002.83" width="3231.58" height="110.64" rx="4192.68" ry="166.67"/>
   <g>
    <path class="fil2" d="M1949.95 3181.43c15.96,-24.21 17.88,-44.52 21.4,-73.89 4.8,159.67 151.33,212.45 286.14,317.87 327.2,-240.02 405.41,-403.07 337.78,-856.67 -14.2,-95.24 -49.95,-189.81 -107.65,-225.81 -128.15,-79.93 -119.82,-118.41 -231.01,-113.42 -181.76,8.17 -292.99,180.28 -335.04,345.63 -54.19,213.08 -7.99,402.4 28.38,606.27z"/>
    <path class="fil9 str0" d="M2360.02 2955.3c6.59,-5.21 13.33,-11.27 20.38,-18.34 36.72,-36.81 75.67,-95.9 90.26,-160.56l-100.62 -375.76 -198.21 120.63 0 -44.25c-165.41,138.37 -175.9,335.67 -20.16,473.66l-79.96 340.19 359.08 2.46 -70.76 -338.03z"/>
    <path class="fil10" d="M3305.48 3670.61c0.4,12.93 -98.58,282.32 -111.84,322.09 -40.56,121.68 -197.4,-229.46 -222.75,-273.37 -33.75,-91.12 -124.87,-101.24 -124.87,-101.24l10.13 334.12c0,0 155.24,259.87 280.12,371.24 195.35,174.23 260.37,-577.9 283.42,-594.91 22.18,-16.66 -1.37,-19.8 27.89,-32.58 23.67,-10.33 58.92,-42.28 113.8,-52.81 38.81,-16.98 51.22,-42.82 51.2,-42.79 21.43,-24.85 29.48,-56.87 29.48,-86.37 0,-13.59 -1.69,-26.6 -4.55,-38.11 -2.83,-11.38 -6.79,-21.28 -11.36,-28.77 -5.2,-8.53 -10.88,-13.66 -16.04,-13.66 -9.24,0 -17.55,14.26 -27.04,31.95 0.21,-0.05 -33.13,44.93 -43.8,61.76 -6.78,5.3 -14.41,9.48 -23.14,12.01 -17.28,5 -40.86,4.43 -58.96,-2.96 -6.5,-2.65 -12.36,-6.18 -17.06,-10.62 -4.93,-4.66 -8.64,-10.31 -10.58,-17.02 -2.57,-8.85 -2,-19.33 2.95,-31.48l0.03 0c2.68,-6.56 2.56,-11.11 0.43,-13.63 -2.5,-2.96 -8.01,-3.98 -15.31,-2.92 -8.63,1.26 -19.18,5.5 -30.18,13 -20.23,13.79 -41.48,38.28 -54.95,75.11 0.57,-0.98 -29.24,51.19 -27,121.96z"/>
    <path class="fil4" d="M3318.61 3644.94c0.33,10.63 -49.72,150.07 -85.48,249.67 -16.04,44.69 -29.2,81.33 -33.5,94.24 -9.28,27.86 -24.13,35.74 -42.38,29.66 -55.1,-18.37 -141.52,-191.34 -184.2,-276.76l0.02 -0.01c-9.79,-19.58 -17.23,-34.48 -21.41,-41.72l-0.48 -1.01c-28.56,-77.1 -97.12,-97.31 -119.8,-101.98l10.46 344.95c12.67,21.06 168.6,278.11 295.11,390.94 43.14,38.48 79.74,31.04 110.81,-3.8 80.54,-90.31 127.19,-355.47 154.26,-509.32 11.68,-66.34 19.81,-112.54 27.5,-118.35l-0.01 -0.01c11.84,-8.9 24.65,-18.04 38.52,-26.72 13.91,-8.71 28.75,-16.89 44.52,-23.78 10.42,-4.54 20.77,-7.8 31.03,-11.02 14.79,-4.64 29.4,-9.23 42.68,-17.34 41.43,-25.3 55.78,-69.19 55.78,-108.59 0,-13.59 -1.69,-26.6 -4.55,-38.11 -2.83,-11.38 -6.79,-21.28 -11.36,-28.77 -5.2,-8.53 -10.88,-13.66 -16.04,-13.66 -9.99,0 -18.89,16.67 -29.38,36.31 -14.64,27.42 -32.01,59.96 -64.6,69.41 -17.28,5 -40.86,4.43 -58.96,-2.96 -6.5,-2.65 -12.35,-6.18 -17.06,-10.62 -4.93,-4.65 -8.64,-10.31 -10.58,-17.02 -2.57,-8.85 -2,-19.33 2.95,-31.48l0.03 0c2.68,-6.56 2.56,-11.11 0.43,-13.63 -2.5,-2.96 -8.01,-3.98 -15.31,-2.93 -8.63,1.26 -19.18,5.5 -30.18,13 -34.42,23.46 -71.77,77.89 -68.82,171.37l0 0.03zm-97.55 245.35c35.4,-98.61 84.95,-236.65 84.73,-244.99 -3.12,-98.89 37.24,-157.02 74.4,-182.36 12.69,-8.65 25.17,-13.59 35.62,-15.11 11.78,-1.71 21.45,0.87 26.93,7.35 5.21,6.16 6.34,15.23 1.64,26.75l0.02 0.01c-3.79,9.29 -4.33,16.93 -2.55,23.08 1.26,4.36 3.74,8.11 7.06,11.24 3.55,3.36 8.06,6.05 13.08,8.11 15.49,6.33 35.72,6.8 50.56,2.5 27.4,-7.94 43.39,-37.89 56.86,-63.12 12.46,-23.35 23.04,-43.16 40.69,-43.16 9.97,0 19.44,7.45 27,19.85 5.24,8.59 9.73,19.73 12.87,32.39 3.12,12.53 4.95,26.59 4.95,41.18 0,43.2 -15.94,91.45 -61.97,119.56 -14.65,8.94 -30.01,13.77 -45.55,18.65 -9.97,3.13 -20.05,6.3 -29.72,10.52 -15.26,6.67 -29.54,14.52 -42.87,22.87 -13.37,8.37 -25.93,17.33 -37.61,26.11l-0.05 0.02c-3.5,2.59 -11.29,46.78 -22.46,110.3 -27.3,155.18 -74.36,422.64 -157.33,515.66 -36.3,40.69 -78.93,49.5 -128.98,4.86 -133.19,-118.79 -297.95,-394.59 -298.42,-395.38l-0.91 -3.12 -10.74 -354.48 -0.22 -7.47 7.41 0.91c0.29,0.03 100.19,11.14 137.54,111.06 4.21,7.38 11.7,22.37 21.49,41.96l0.03 0c41.89,83.86 126.73,253.66 176.7,270.32 10.69,3.56 19.78,-2.27 26.19,-21.52 4.43,-13.3 17.57,-49.9 33.6,-94.54z"/>
    <rect class="fil10" x="1475.28" y="7727.6" width="188.04" height="133.95"/>
    <path class="fil11" d="M1475.28 7869.11l188.04 0 7.57 0 0 -7.57 0 -133.95 0 -7.57 -7.57 0 -188.04 0 -7.57 0 0 7.57 0 133.95 0 7.57 7.57 0zm180.47 -15.14l-172.9 0 0 -118.81 172.9 0 0 118.81z"/>
    <rect class="fil10" x="2596.65" y="7736.4" width="188.04" height="133.95"/>
    <path class="fil11" d="M2596.65 7877.92l188.04 0 7.57 0 0 -7.57 0 -133.95 0 -7.57 -7.57 0 -188.04 0 -7.57 0 0 7.57 0 133.95 0 7.57 7.57 0zm180.47 -15.14l-172.9 0 0 -118.81 172.9 0 0 118.81z"/>
    <polygon class="fil6" points="2814.58,7758.98 2761.62,4687.13 1838.55,4687.13 1448,7758.98 1676.26,7758.98 2307.65,5315.12 2570.83,7758.98 "/>
    <polygon class="fil6" points="1455.06,7703.44 1448,7758.98 1676.26,7758.98 1690.6,7703.44 "/>
    <path class="fil8" d="M1797.49 4800.36c0,0 109.64,-157 -4.08,-938.28l-64.28 153.29 -341.19 -182.96 250.44 -427.89c23.94,-40.92 15.09,-39.19 58.8,-56.08l397.31 -154.11c26.65,34.11 90.06,57.09 159.73,57.09 69.67,0 130.76,-23.58 157.35,-57.79l369.06 98.89c47.78,12.78 36.29,7.96 58.14,51.98l288.49 580.61 -299.23 129.73 -37.02 -198.96c0,0 19.78,810.94 -9.89,944.46l-983.64 0z"/>
    <path class="fil12" d="M2774.56 3810.48c0.03,0.05 21.56,20.09 16.46,45.42l0 0 0 0c6.64,-32.94 -1.56,-55.81 -1.6,-55.87l-14.86 10.45z"/>
    <path class="fil12" d="M1746.84 3742.46c0.15,0.22 62.56,81.48 46.57,119.63l0 0 0 0c19.9,-47.45 -31.4,-129.62 -31.56,-129.86l-15 10.24z"/>
    <polygon class="fil12" points="3089.35,3848.83 3127.27,3925.13 2828.04,4054.86 2813.38,3976.08 "/>
    <path class="fil10" d="M2698.01 3972.74l-309.63 0c-16.33,0 -24.18,14.35 -29.69,29.69l-162.88 453.84c-5.51,15.35 13.39,29.69 29.69,29.69l309.63 0c16.31,0 24.18,-14.32 29.69,-29.69l162.88 -453.84c5.51,-15.37 -13.36,-29.69 -29.69,-29.69z"/>
    <path class="fil4" d="M2698.01 3967.31l-309.63 0c-9.98,0 -17.34,4.34 -23.02,11 -5.2,6.1 -8.82,14.09 -11.77,22.3l-162.88 453.84c-0.9,2.5 -1.31,4.95 -1.31,7.33 0,6.33 2.83,12.2 7.3,17.01 4.15,4.46 9.81,8.07 15.88,10.25 4.22,1.51 8.65,2.37 12.92,2.37l309.63 0c9.97,0 17.33,-4.34 23.01,-11 5.2,-6.1 8.83,-14.09 11.78,-22.31l162.88 -453.84 0.02 0c0.89,-2.47 1.3,-4.93 1.3,-7.34 0,-6.34 -2.83,-12.2 -7.3,-17.01 -4.15,-4.47 -9.81,-8.06 -15.87,-10.23 -4.23,-1.52 -8.67,-2.37 -12.94,-2.37zm-309.63 10.86l309.63 0c3.09,0 6.27,0.61 9.29,1.69 4.46,1.6 8.6,4.21 11.59,7.43 2.67,2.87 4.37,6.22 4.37,9.63 0,1.2 -0.21,2.44 -0.66,3.69l0.02 0 -162.88 453.84c-2.56,7.15 -5.64,14.01 -9.82,18.91 -3.7,4.34 -8.45,7.17 -14.78,7.17l-309.63 0c-3.08,0 -6.26,-0.61 -9.27,-1.69 -4.46,-1.6 -8.6,-4.22 -11.59,-7.44 -2.68,-2.88 -4.37,-6.22 -4.37,-9.63 0,-1.24 0.2,-2.47 0.63,-3.68l162.88 -453.84c2.56,-7.13 5.63,-14 9.81,-18.9 3.7,-4.35 8.44,-7.18 14.79,-7.18z"/>
    <path class="fil10" d="M1481.68 3841.43l-120.53 237.97c0,0 -120.52,253.42 117.44,265.78 237.97,12.37 710.81,98.9 710.81,98.9 0,0 43.27,-43.26 105.07,7.73 61.81,50.99 173.07,-140.62 7.73,-162.25 0,0 -86.54,-12.36 -135.98,57.17l-523.84 -188.52c0,0 -69.53,-3.09 -30.9,-69.54 38.63,-66.44 81.89,-128.26 81.89,-128.26l-211.69 -118.98z"/>
    <path class="fil4" d="M1474.94 3838.03l-120.53 237.96 -0.12 0.21c-0.35,0.75 -125.35,263.56 123.91,276.51 237.53,12.34 708.49,98.53 709.85,98.78l3.81 0.7 2.78 -2.68c0.11,-0.1 38.5,-38.54 95.05,8.11 18.65,15.38 40.67,12.56 60.05,-0.7 15.65,-10.71 29.55,-28.52 37.98,-48.71 8.48,-20.33 11.52,-43.31 5.39,-64.22 -8.69,-29.65 -35.28,-54.77 -89.93,-61.92l-0.06 -0.03c-0.25,-0.03 -87.04,-12.42 -139.61,55.7l-518.59 -186.63 -2.22 -0.44c-0.16,-0 -57.06,-2.54 -24.7,-58.21 38.54,-66.28 81.42,-127.55 81.54,-127.73l4.78 -6.82 -7.26 -4.08 -211.69 -118.98 -6.87 -3.85 -3.57 7.05zm-106.94 244.55l116.85 -230.7 197.61 111.07c-12.28,17.9 -46.41,68.43 -77.52,121.94 -41.7,71.71 25.89,79.95 35.89,80.77l522.85 188.16 5.37 1.94 3.31 -4.66c46.77,-65.77 128.69,-54.07 128.92,-54.04l0 -0.02c47.46,6.22 70.22,26.9 77.33,51.15 5.09,17.37 2.41,36.81 -4.86,54.24 -7.32,17.56 -19.23,32.92 -32.54,42.03 -13.93,9.54 -29.41,11.88 -41.95,1.53 -57.3,-47.27 -100.6,-19.22 -112.08,-9.97 -43.72,-7.93 -481.55,-86.59 -708.22,-98.37 -226.65,-11.78 -111.29,-254.37 -110.97,-255.06l-0.01 -0z"/>
    <polygon class="fil12" points="1759.07,3943.95 1729.13,4015.37 1387.94,3832.41 1432.88,3755.62 "/>
    <path class="fil12" d="M1797.49 4800.36c0,0 11.52,-16.55 23.23,-65.49l968.41 0c-2.14,28.53 -4.77,51 -7.99,65.49l-983.64 0z"/>
    <path class="fil13" d="M2567.83 7847.77l0 242.11 593.94 0c43.69,-79.43 -56.63,-94.03 -107.99,-112.6 -91.76,-33.2 -208.43,-101.91 -240.28,-129.51l-245.67 0z"/>
    <path class="fil13" d="M1451.09 7847.77l0 242.11 430.34 0c31.65,-79.43 -41.04,-94.03 -78.24,-112.6 -66.49,-33.19 -91.91,-98.96 -114.99,-126.56l-237.11 -2.95z"/>
    <path class="fil12" d="M2038.57 3216.03l55.92 -21.69c26.32,33.68 91.68,57.1 160.47,57.1 68.79,0 130.36,-24.02 156.61,-57.79l61.05 16.36c-20.27,58.46 -111.36,102.94 -216.12,102.94 -104.76,0 -194.07,-41.3 -217.93,-96.92z"/>
    <path class="fil4" d="M2156.68 2944.04c0.21,0.16 72.75,56.14 200.19,3.58l6.31 15.36c-136.3,56.21 -216.3,-5.49 -216.53,-5.66l10.02 -13.28z"/>
    <path class="fil4" d="M2262.02 2713.7c0.77,-1.74 -0.02,-3.79 -1.76,-4.56 -1.74,-0.77 -3.79,0.02 -4.56,1.76 -0.13,0.3 -47.93,104.81 17.17,93.97 1.89,-0.31 3.16,-2.1 2.85,-3.99 -0.31,-1.89 -2.1,-3.16 -3.99,-2.85 -52.13,8.69 -9.82,-84.07 -9.7,-84.34z"/>
    <path class="fil4" d="M2117.72 2617.72c-1.31,1.39 -1.24,3.59 0.15,4.9 1.39,1.31 3.59,1.24 4.9,-0.15 0.11,-0.12 39.07,-43.09 80.46,0.03 1.32,1.38 3.52,1.42 4.9,0.09 1.38,-1.32 1.42,-3.52 0.09,-4.9 -46.53,-48.47 -90.38,-0.11 -90.5,0.03z"/>
    <path class="fil4" d="M2162.98 2636.78c7.03,0 13.4,2.85 18,7.45l0.2 0.22c4.48,4.59 7.26,10.87 7.26,17.79 0,7.02 -2.85,13.38 -7.45,17.98l-2.46 -2.44 2.46 2.45 0 0c-4.6,4.6 -10.97,7.45 -18,7.45 -7.03,0 -13.4,-2.85 -18,-7.45l-0.2 -0.22c-4.48,-4.59 -7.26,-10.87 -7.26,-17.78 0,-7.02 2.85,-13.38 7.45,-17.99l2.46 2.44 -2.46 -2.45 0 0 -0 -0c4.6,-4.6 10.97,-7.45 18,-7.45zm13.09 12.37c-3.34,-3.34 -7.98,-5.42 -13.09,-5.42 -5.11,0 -9.74,2.08 -13.09,5.42l-0.01 -0.01c-3.35,3.35 -5.41,7.98 -5.41,13.1 0,5.02 2,9.58 5.24,12.92l0.19 0.17c3.34,3.34 7.98,5.42 13.09,5.42 5.11,0 9.74,-2.08 13.09,-5.42l0.01 0.01c3.35,-3.35 5.41,-7.98 5.41,-13.09 0,-5.02 -2,-9.58 -5.24,-12.92l-0.19 -0.17z"/>
    <path class="fil4" d="M2303.45 2617.72c-1.31,1.39 -1.24,3.59 0.15,4.9 1.39,1.31 3.59,1.24 4.9,-0.15 0.11,-0.12 39.07,-43.09 80.46,0.03 1.32,1.38 3.52,1.42 4.9,0.09 1.38,-1.32 1.42,-3.52 0.09,-4.9 -46.53,-48.47 -90.38,-0.11 -90.5,0.03z"/>
    <path class="fil4" d="M2348.72 2636.78c7.03,0 13.4,2.85 18,7.45l0.2 0.22c4.48,4.59 7.26,10.87 7.26,17.79 0,7.02 -2.85,13.38 -7.45,17.98l-2.46 -2.44 2.46 2.45 0 0c-4.6,4.6 -10.97,7.45 -18,7.45 -7.03,0 -13.4,-2.85 -18,-7.45l-0.2 -0.22c-4.48,-4.59 -7.26,-10.87 -7.26,-17.78 0,-7.02 2.85,-13.38 7.45,-17.99l2.46 2.44 -2.46 -2.45 0 0 -0 -0c4.6,-4.6 10.97,-7.45 18,-7.45zm13.09 12.37c-3.34,-3.34 -7.98,-5.42 -13.09,-5.42 -5.11,0 -9.74,2.08 -13.09,5.42l-0.01 -0.01c-3.35,3.35 -5.41,7.98 -5.41,13.1 0,5.02 2,9.58 5.24,12.92l0.19 0.17c3.34,3.34 7.98,5.42 13.09,5.42 5.11,0 9.74,-2.08 13.09,-5.42l0.01 0.01c3.35,-3.35 5.41,-7.98 5.41,-13.09 0,-5.02 -2,-9.58 -5.24,-12.92l-0.19 -0.17z"/>
    <path class="fil4" d="M2197.18 2854.16l129.2 0 1.57 -0.02 0 -0.01 0.27 0c2.53,-0.07 3.85,-0.02 4.63,2.59l0.01 -0 0.02 0.06 0 0 0.05 0.2c0.53,1.98 -0.31,2.79 -1.89,4.49 -0.16,0.17 -0.17,0.17 -1.18,1.32l-1.95 -1.71 1.95 1.72 -0.24 0.24c-6.74,7.58 -25.56,26.64 -50,34.08 -25.11,7.64 -55.87,3.23 -85.26,-37.45l-0.01 0.01c-1.12,-1.55 -0.77,-3.73 0.78,-4.85 0.61,-0.44 1.33,-0.65 2.03,-0.65l0 -0zm124.83 6.94l-117.86 0c25.79,32.44 52.01,35.92 73.48,29.38 20.3,-6.18 36.58,-21.14 44.38,-29.38zm6.08 -2.93l-0.46 0.13 0 0 0.46 -0.13zm-0.46 0.13l-0.76 0.22 0 0 0.76 -0.22 0 -0z"/>
   </g>
   <g>
    <g>
     <polygon class="fil10" points="7872.73,2747.09 7882.97,3102.31 7551.59,3098.62 7557.96,2959.88 7562.31,2792.9 "/>
     <path class="fil4" d="M7861.38 2756.85l9.72 336.94 -313.86 -3.5 5.97 -130.04 0 -0.17 4.17 -159.84 294 -43.39zm26.84 345.24l-10.25 -355.22 -0.28 -9.52 -9.39 1.39 -310.41 45.81 -7.02 1.04 -0.19 7.13 -4.35 166.81 -0 0 -6.37 138.74 -0.4 8.7 8.77 0.1 331.38 3.69 8.76 0.1 -0.25 -8.77z"/>
     <path class="fil10" d="M7603.18 2156.3c10.02,-10.69 355.69,-9.3 307.48,365.32 0,0 90.83,-53.93 68.12,82.31 0,0 0,48.26 -68.12,45.42 0,0 -78.41,314.69 -283.29,285.06 -204.89,-29.63 -190.7,-225.46 -190.7,-225.46l0 -334.91c0,0 -40.68,-229.52 166.51,-217.74z"/>
     <path class="fil4" d="M7609.33 2162.09c1.33,-1.42 20.45,-1.57 49.64,2.19 23.29,3 51.75,9.28 81,21.02 29.1,11.68 58.96,28.77 85.2,53.39 55.82,52.4 95.46,139.34 77.12,281.89l-2.19 17.05 14.83 -8.68c0.21,-0.12 75.23,-44.7 55.51,73.61l-0.1 1.16c0,0.11 0.07,39.7 -59.35,37.22l-6.8 -0.28 -1.71 6.63c-0.22,0.87 -76.61,307.31 -273.93,278.78 -197.08,-28.5 -183.49,-216.03 -183.45,-216.57l0.04 -0.53 0 -334.91 -0.14 -1.43c-0.1,-0.62 -38.81,-219.05 157.7,-207.89l3.93 0.22 2.69 -2.87zm51.76 -14.56c-26.1,-3.36 -47.25,-2.12 -57.59,0.33 -210.58,-11.85 -177.76,211.59 -175.3,226.79l0 334.31 0 0c-0.64,11.15 -8.84,203.93 197.97,233.83 194.85,28.18 278.25,-239.6 290.91,-284.87 65.64,-0.28 69.83,-47.09 70.1,-53.11 19.46,-117.75 -38.3,-108.2 -66.4,-97.28 14.5,-140.16 -26.8,-227.43 -84.04,-281.16 -27.93,-26.21 -59.64,-44.37 -90.5,-56.76 -30.71,-12.32 -60.64,-18.93 -85.16,-22.08z"/>
     <path class="fil14" d="M7428.2 2517.87c12.93,-3.64 11.2,-0.29 16.94,-10.72l-0 -108.95c23.45,-71.2 69.57,-116.59 69.57,-116.59 -13.5,-11.73 -16.84,-18.75 -25.55,-34.17 -12.71,-22.44 -23.78,-43.8 -25.69,-69.13 -22.85,20.89 -38.95,46.65 -47.11,65.43 -5.67,13.03 -8.69,26.91 -9.15,41.11 -1.76,54.05 10.46,194.39 21,233.04z"/>
     <path class="fil14" d="M7768.15 2269c14.58,51.26 71.94,89.93 121.97,110.26 3.47,33.77 30.24,115.32 31.3,130.78l0.33 -0.43c13.46,-6.76 31.5,-11.24 45.68,-4.13 1.42,0.71 2.75,1.51 4.04,2.4 4.04,-27.86 26.13,-194.24 24.08,-203.84 -2.22,-10.62 -16.31,-40.28 -49.46,-82.13 19.46,8.84 24,4.18 24,4.18 0,0 -9.91,-4.8 -42.74,-44.26 -32.88,-39.5 -81.67,-72.91 -147.25,-83.05 -16.97,-2.62 -39.68,-1.55 -64.91,1.78 -72.12,9.51 -164.76,37.23 -203.15,48.39 -17.37,5.02 -34.43,16.57 -50.43,31.01 -0.49,0.4 -0.94,0.8 -1.42,1.24 1.91,25.33 10.13,50.25 22.84,72.69 8.71,15.42 27.32,27.01 31.69,27.69 12.46,3.08 37.58,4.8 63.44,1.24 3.69,-0.49 7.51,-1.02 11.46,-1.55 37.68,-5.15 88.81,-11.94 149.2,-19.62 0.63,-0.08 28.69,7.42 29.33,7.34z"/>
     <path class="fil14" d="M7766.88 2208.15c22.13,67.26 -34.75,126.19 -100.83,126.83 -43.08,0.41 -87.96,-13.5 -123.93,-36.95 -74.97,-48.88 -91.91,-157.31 -43.65,-231.14 7.02,-10.73 16.04,-20.09 25.5,-28.69 -1.16,19.31 -2.56,31.58 6.78,50.1 -0.49,-14.09 9.72,-54.33 25.8,-68.95 9.64,29.28 43.03,72.99 99.75,92.08 -9.22,-11.1 -5.67,-35.4 -0.95,-49.09 1.46,13.58 66.78,55.02 84.52,63.69 0,0 26.96,81.97 27.01,82.11z"/>
     <path class="fil14" d="M7459.9 2108.29c-5.5,24.8 -4.85,51.04 0.82,76.19 3.87,17.28 10.73,34.07 20.26,49.2 0.04,0.01 0.04,0.01 0.04,0.01 4.37,6.89 9.28,13.39 14.76,19.5 17.37,19.46 39.59,34.25 63.56,43.54 11.94,4.91 24.33,8.28 36.71,11.24 6.28,1.2 12.6,2.09 18.86,3.19 6.29,0.7 12.6,1.3 18.9,1.81 -6.13,-1.53 -12.29,-2.97 -18.44,-4.28 -6.07,-1.74 -12.13,-3.34 -18.15,-5.21 -11.94,-3.8 -23.81,-7.85 -35,-13.37 -22.48,-10.56 -43.21,-24.72 -59.44,-43.19 -4.47,-4.88 -8.52,-10.05 -12.26,-15.49 -10.16,-14.77 -17.7,-31.44 -22.84,-48.82 -3.61,-11.86 -5.83,-24.18 -7.02,-36.66 -0.85,-7.04 -1.26,-14.13 -1.29,-21.24 -0.03,-5.44 0.15,-10.95 0.52,-16.46z"/>
     <path class="fil14" d="M7533.56 2182.25c0.84,18.51 4.98,36.9 11.44,54.44 6.45,17.57 15.67,34.24 27.39,49.11 11.6,15 26.92,27.08 43.61,35.8 16.56,9.46 35.7,12.41 53.93,13.93 -4.44,-1.4 -8.86,-2.71 -13.28,-3.91 -4.42,-1.15 -8.8,-2.38 -12.88,-4.47l-12.5 -5.24 -11.69 -6.7c-15.06,-9.54 -29.04,-21 -39.89,-35.3 -11.21,-13.93 -20.35,-29.56 -27.95,-46 -7.38,-16.53 -13.76,-33.72 -18.19,-51.66z"/>
     <path class="fil14" d="M7760.07 2225.4c5.26,17.4 7.41,34.69 3.96,51.21 -1.7,8.18 -4.22,16.33 -8.34,23.9 -1.67,4 -4.33,7.47 -6.43,11.39 -2.34,3.76 -5.12,7.23 -7.47,11.27 3.78,-2.52 7.56,-5.23 11.01,-8.31 3.09,-3.4 6.73,-6.5 9.16,-10.54 5.81,-7.46 9.22,-16.64 11.29,-25.92 1.85,-9.39 1.59,-19.16 -0.74,-28.29 -2.24,-9.11 -6.33,-17.79 -12.44,-24.7z"/>
     <path class="fil15" d="M7883.09 2320.65c8.7,106.6 17,216.97 17,216.97l21.65 -28 28.74 -71.4 -11.76 -134.17c0,0 -56.82,2.13 -55.64,16.61z"/>
     <path class="fil14" d="M7782.69 2221.95c5.26,17.4 7.41,34.69 3.96,51.21 -1.7,8.18 -4.22,16.33 -8.33,23.9 -1.67,4 -4.33,7.48 -6.44,11.39 -2.34,3.76 -5.11,7.23 -7.47,11.27 3.78,-2.52 7.55,-5.23 11,-8.31 3.09,-3.4 6.73,-6.5 9.16,-10.54 5.81,-7.46 9.22,-16.64 11.29,-25.92 1.85,-9.39 1.59,-19.16 -0.74,-28.29 -2.24,-9.11 -6.33,-17.79 -12.44,-24.7z"/>
    </g>
    <path class="fil10" d="M6627.02 3520.16c-0.41,13.37 101.94,291.94 115.65,333.06 41.94,125.83 204.12,-237.27 230.33,-282.68 34.9,-94.22 129.13,-104.69 129.13,-104.69l-10.47 345.5c0,0 -160.53,268.72 -289.66,383.88 -202.01,180.16 -269.24,-597.57 -293.06,-615.16 -22.94,-17.23 1.41,-20.48 -28.84,-33.69 -24.47,-10.68 -60.93,-43.72 -117.67,-54.61 -40.13,-17.56 -52.96,-44.28 -52.95,-44.24 -22.16,-25.69 -30.48,-58.8 -30.48,-89.31 0,-14.05 1.74,-27.5 4.7,-39.41 2.93,-11.76 7.02,-22 11.75,-29.75 5.38,-8.82 11.25,-14.12 16.59,-14.12 9.55,0 18.14,14.74 27.96,33.04 -0.22,-0.05 34.26,46.46 45.28,63.86 7.02,5.48 14.91,9.81 23.93,12.42 17.87,5.17 42.25,4.59 60.97,-3.06 6.72,-2.74 12.78,-6.39 17.64,-10.98 5.1,-4.81 8.93,-10.66 10.94,-17.6 2.65,-9.15 2.07,-20 -3.06,-32.55l-0.03 0c-2.77,-6.78 -2.65,-11.49 -0.44,-14.09 2.58,-3.06 8.28,-4.12 15.83,-3.02 8.93,1.3 19.83,5.69 31.21,13.44 20.92,14.26 42.89,39.59 56.83,77.67 -0.6,-1.02 30.23,52.93 27.92,126.11z"/>
    <path class="fil4" d="M6613.44 3493.61c-0.34,11 51.42,155.18 88.39,258.17 16.59,46.21 30.2,84.1 34.64,97.44 9.6,28.81 24.95,36.96 43.83,30.67 56.98,-18.99 146.34,-197.85 190.46,-286.18l-0.02 -0.01c10.12,-20.25 17.81,-35.65 22.14,-43.14l0.5 -1.04c29.53,-79.72 100.43,-100.62 123.88,-105.45l-10.81 356.7c-13.1,21.77 -174.34,287.58 -305.16,404.25 -44.61,39.78 -82.46,32.09 -114.58,-3.93 -83.28,-93.38 -131.52,-367.57 -159.52,-526.66 -12.07,-68.6 -20.48,-116.37 -28.44,-122.39l0.01 -0.01c-12.24,-9.2 -25.49,-18.65 -39.83,-27.63 -14.38,-9.01 -29.73,-17.46 -46.04,-24.59 -10.77,-4.7 -21.48,-8.07 -32.08,-11.39 -15.29,-4.8 -30.4,-9.55 -44.13,-17.93 -42.85,-26.16 -57.68,-71.55 -57.68,-112.3 0,-14.05 1.74,-27.5 4.7,-39.41 2.93,-11.76 7.02,-22 11.75,-29.75 5.38,-8.82 11.25,-14.12 16.59,-14.12 10.33,0 19.54,17.23 30.38,37.55 15.14,28.35 33.1,62 66.8,71.77 17.86,5.17 42.24,4.59 60.96,-3.06 6.72,-2.74 12.78,-6.39 17.64,-10.98 5.1,-4.81 8.93,-10.66 10.94,-17.6 2.66,-9.15 2.07,-20 -3.05,-32.55l-0.03 0c-2.77,-6.78 -2.65,-11.49 -0.44,-14.09 2.58,-3.06 8.28,-4.12 15.83,-3.02 8.93,1.3 19.83,5.69 31.21,13.44 35.59,24.27 74.22,80.54 71.17,177.2l0 0.03zm100.87 253.7c-36.6,-101.96 -87.85,-244.7 -87.61,-253.33 3.22,-102.26 -38.51,-162.37 -76.93,-188.57 -13.12,-8.94 -26.03,-14.06 -36.83,-15.62 -12.19,-1.77 -22.19,0.91 -27.84,7.6 -5.39,6.37 -6.56,15.75 -1.69,27.66l-0.02 0.01c3.92,9.6 4.48,17.51 2.64,23.86 -1.3,4.51 -3.87,8.38 -7.3,11.63 -3.67,3.47 -8.33,6.26 -13.53,8.38 -16.02,6.55 -36.93,7.04 -52.28,2.59 -28.33,-8.21 -44.86,-39.18 -58.8,-65.26 -12.89,-24.15 -23.83,-44.63 -42.08,-44.63 -10.31,0 -20.1,7.7 -27.92,20.52 -5.42,8.88 -10.06,20.4 -13.31,33.49 -3.22,12.95 -5.12,27.5 -5.12,42.58 0,44.67 16.48,94.57 64.08,123.63 15.15,9.25 31.03,14.24 47.1,19.28 10.31,3.24 20.73,6.51 30.73,10.88 15.78,6.89 30.55,15.02 44.33,23.65 13.82,8.66 26.81,17.93 38.89,27l0.05 0.02c3.62,2.67 11.67,48.38 23.23,114.05 28.23,160.46 76.89,437.02 162.68,533.22 37.53,42.08 81.61,51.18 133.37,5.02 137.72,-122.83 308.09,-408.02 308.58,-408.84l0.93 -3.22 11.11 -366.55 0.23 -7.73 -7.67 0.94c-0.3,0.04 -103.6,11.52 -142.22,114.84 -4.35,7.63 -12.1,23.14 -22.22,43.39l-0.03 0c-43.32,86.71 -131.05,262.3 -182.72,279.52 -11.05,3.69 -20.45,-2.35 -27.08,-22.24 -4.58,-13.76 -18.17,-51.6 -34.74,-97.76z"/>
    <rect class="fil10" x="8325.08" y="7715.26" width="194.44" height="138.51"/>
    <path class="fil11" d="M8519.52 7861.6l-194.44 0 -7.83 0 0 -7.83 0 -138.51 0 -7.83 7.83 0 194.44 0 7.83 0 0 7.83 0 138.51 0 7.83 -7.83 0zm-186.61 -15.65l178.79 0 0 -122.85 -178.79 0 0 122.85z"/>
    <rect class="fil10" x="7165.54" y="7724.37" width="194.44" height="138.51"/>
    <path class="fil11" d="M7359.98 7870.7l-194.44 0 -7.83 0 0 -7.83 0 -138.51 0 -7.83 7.83 0 194.44 0 7.83 0 0 7.83 0 138.51 0 7.83 -7.83 0zm-186.61 -15.65l178.79 0 0 -122.85 -178.79 0 0 122.85z"/>
    <polygon class="fil6" points="7134.63,7747.72 7189.39,4571.29 8143.89,4571.29 8547.73,7747.72 8311.7,7747.72 7658.81,5220.66 7386.67,7747.72 "/>
    <polygon class="fil6" points="8540.43,7690.28 8547.73,7747.72 8311.7,7747.72 8296.87,7690.28 "/>
    <path class="fil8" d="M8186.34 4688.37c0,0 -113.38,-162.34 4.22,-970.22l66.47 158.51 352.8 -189.19 -258.96 -442.45c-24.76,-42.31 -15.61,-40.53 -60.81,-57.99l-410.83 -159.35c-27.56,35.27 -93.13,59.04 -165.17,59.04 -72.05,0 -135.22,-24.38 -162.7,-59.76l-381.63 102.26c-49.41,13.21 -37.52,8.23 -60.11,53.74l-298.31 600.38 309.42 134.15 38.28 -205.74c0,0 -20.46,838.56 10.22,976.61l1017.13 0z"/>
    <path class="fil12" d="M7176.01 3664.8c-0.04,0.05 -22.3,20.78 -17.02,46.96l0 0 0 0c-6.86,-34.06 1.61,-57.7 1.66,-57.77l15.37 10.81z"/>
    <path class="fil12" d="M8238.71 3594.45c-0.15,0.22 -64.69,84.26 -48.15,123.7l0 0 0 0c-20.57,-49.06 32.46,-134.03 32.64,-134.28l15.51 10.59z"/>
    <path class="fil12" d="M8149.57 4550.93c-3.89,-28.17 -7.23,-61.56 -9.46,-101.02 -6.94,-1.21 -14.04,-1.9 -21.41,-1.9 -26.67,0 -49.9,9.02 -74.07,18.99 -9.92,4.09 -27.42,11.89 -38.2,11.89 -10.78,0 -28.28,-7.79 -38.2,-11.89 -24.17,-9.97 -47.41,-18.99 -74.07,-18.99 -26.67,0 -49.9,9.02 -74.07,18.99 -9.92,4.09 -27.42,11.89 -38.2,11.89 -10.78,0 -28.28,-7.79 -38.2,-11.89 -24.17,-9.97 -47.41,-18.99 -74.07,-18.99 -26.67,0 -49.9,9.02 -74.07,18.99 -9.92,4.09 -27.42,11.89 -38.2,11.89 -10.78,0 -28.28,-7.79 -38.2,-11.89 -24.18,-9.97 -47.41,-18.99 -74.07,-18.99 -26.67,0 -49.9,9.02 -74.07,18.99 -9.92,4.09 -27.42,11.89 -38.2,11.89 -10.78,0 -28.28,-7.8 -38.2,-11.89 -24.17,-9.97 -47.41,-18.99 -74.07,-18.99 -23.76,0 -44.78,7.16 -66.18,15.77 0.8,36.07 1.86,69.73 3.24,99.81 8.26,-2.87 16.44,-6.19 24.74,-9.61 9.92,-4.09 27.41,-11.88 38.2,-11.88 10.78,0 28.28,7.79 38.19,11.88 24.18,9.97 47.41,18.99 74.07,18.99 26.67,0 49.9,-9.02 74.07,-18.99 9.92,-4.09 27.42,-11.88 38.2,-11.88 10.78,0 28.28,7.79 38.2,11.88 24.17,9.97 47.41,18.99 74.07,18.99 26.67,0 49.9,-9.02 74.07,-18.99 9.92,-4.09 27.42,-11.88 38.2,-11.88 10.78,0 28.28,7.79 38.2,11.88 24.18,9.97 47.41,18.99 74.07,18.99 26.67,0 49.9,-9.02 74.07,-18.99 9.92,-4.09 27.42,-11.88 38.2,-11.88 10.78,0 28.28,7.79 38.2,11.88 24.17,9.97 47.41,18.99 74.07,18.99 26.67,0 49.9,-9.02 74.07,-18.99 9.92,-4.09 27.42,-11.88 38.2,-11.88 8.46,0 21.04,4.79 30.87,8.83z"/>
    <path class="fil12" d="M7935.92 3050.2l-56.69 -22.52c-27.57,35.27 -93.13,59.04 -165.17,59.04 -72.05,0 -135.21,-24.39 -162.7,-59.76l-64.68 17.33c21.23,61.22 114.25,107.32 225.77,107.32 107.91,0 198.47,-43.16 223.47,-101.41z"/>
    <polygon class="fil12" points="6850.5,3704.44 6811.3,3783.34 7120.71,3917.49 7135.87,3836.03 "/>
    <path class="fil10" d="M7255.17 3832.57l320.17 0c16.89,0 25.01,14.84 30.7,30.7l168.43 469.29c5.7,15.87 -13.84,30.7 -30.7,30.7l-320.17 0c-16.86,0 -25,-14.81 -30.7,-30.7l-168.43 -469.29c-5.7,-15.89 13.81,-30.7 30.7,-30.7z"/>
    <path class="fil4" d="M7255.17 3826.96l320.17 0c10.32,0 17.93,4.49 23.8,11.38 5.38,6.31 9.12,14.57 12.17,23.06l168.43 469.29c0.93,2.59 1.36,5.12 1.36,7.58 0,6.55 -2.93,12.61 -7.55,17.59 -4.29,4.62 -10.15,8.34 -16.42,10.59 -4.37,1.57 -8.95,2.45 -13.36,2.45l-320.17 0c-10.31,0 -17.92,-4.49 -23.79,-11.37 -5.38,-6.31 -9.13,-14.57 -12.18,-23.06l-168.43 -469.3 -0.02 0c-0.92,-2.56 -1.34,-5.1 -1.34,-7.59 0,-6.56 2.92,-12.62 7.54,-17.59 4.3,-4.62 10.14,-8.33 16.41,-10.58 4.37,-1.57 8.96,-2.44 13.38,-2.44zm320.17 11.23l-320.17 0c-3.19,0 -6.49,0.63 -9.61,1.74 -4.61,1.65 -8.89,4.35 -11.98,7.69 -2.76,2.97 -4.51,6.43 -4.51,9.96 0,1.24 0.22,2.52 0.68,3.81l-0.02 0.01 168.42 469.28c2.65,7.4 5.83,14.49 10.16,19.56 3.83,4.49 8.73,7.42 15.28,7.42l320.17 0c3.18,0 6.47,-0.63 9.58,-1.74 4.61,-1.66 8.89,-4.37 11.99,-7.7 2.77,-2.98 4.52,-6.43 4.52,-9.95 0,-1.28 -0.21,-2.56 -0.66,-3.8l-168.43 -469.3c-2.65,-7.38 -5.82,-14.47 -10.15,-19.55 -3.83,-4.49 -8.73,-7.43 -15.29,-7.43z"/>
    <path class="fil10" d="M8512.91 3696.8l124.63 246.07c0,0 124.63,262.05 -121.44,274.83 -246.07,12.78 -735.02,102.26 -735.02,102.26 0,0 -44.74,-44.74 -108.65,7.99 -63.91,52.73 -178.97,-145.41 -7.99,-167.78 0,0 89.48,-12.78 140.61,59.12l541.68 -194.94c0,0 71.9,-3.2 31.95,-71.91 -39.94,-68.7 -84.68,-132.62 -84.68,-132.62l218.9 -123.04z"/>
    <path class="fil4" d="M8519.88 3693.28l124.63 246.07 0.12 0.22c0.37,0.78 129.63,272.54 -128.13,285.93 -245.61,12.76 -732.61,101.89 -734.01,102.14l-3.94 0.72 -2.87 -2.77c-0.11,-0.11 -39.82,-39.85 -98.29,8.39 -19.28,15.9 -42.06,12.99 -62.09,-0.72 -16.19,-11.07 -30.56,-29.49 -39.27,-50.37 -8.77,-21.03 -11.91,-44.78 -5.57,-66.41 8.98,-30.65 36.48,-56.63 92.99,-64.03l0.06 -0.03c0.26,-0.03 90.01,-12.85 144.37,57.59l536.24 -192.98 2.29 -0.46c0.17,-0 59.01,-2.63 25.54,-60.19 -39.85,-68.54 -84.19,-131.9 -84.32,-132.08l-4.94 -7.06 7.51 -4.22 218.9 -123.04 7.1 -3.99 3.69 7.29zm110.59 252.88l-120.83 -238.56 -204.34 114.85c12.7,18.51 47.99,70.76 80.15,126.09 43.12,74.15 -26.76,82.67 -37.11,83.52l-540.65 194.57 -5.56 2 -3.43 -4.82c-48.36,-68 -133.07,-55.91 -133.31,-55.88l-0 -0.02c-49.07,6.44 -72.61,27.82 -79.96,52.89 -5.26,17.96 -2.49,38.06 5.02,56.08 7.57,18.16 19.89,34.04 33.65,43.46 14.41,9.86 30.41,12.28 43.38,1.58 59.26,-48.89 104.02,-19.88 115.89,-10.31 45.2,-8.19 497.94,-89.54 732.33,-101.72 234.36,-12.17 115.08,-263.02 114.75,-263.74l0.01 -0z"/>
    <polygon class="fil12" points="8226.07,3802.81 8257.04,3876.66 8609.84,3687.47 8563.36,3608.06 "/>
    <path class="fil12" d="M8186.34 4688.37c0,0 -11.92,-17.11 -24.02,-67.71l-1001.37 0c2.22,29.5 4.94,52.74 8.27,67.71l1017.13 0z"/>
    <path class="fil13" d="M7389.78 7839.53l0 250.35 -614.17 0c-45.17,-82.13 58.56,-97.24 111.67,-116.44 94.89,-34.33 215.53,-105.38 248.46,-133.92l254.04 0z"/>
    <path class="fil13" d="M8544.54 7839.53l0 250.35 -444.99 0c-32.73,-82.13 42.44,-97.23 80.91,-116.44 68.75,-34.32 95.04,-102.33 118.91,-130.87l245.18 -3.05z"/>
   </g>
  </g>
  <g id="_994126856">
   <g>
    <g>
     <g>
      <g>
       <path class="fil11" d="M9375.51 6236.36c-6.26,22.93 -12.55,45.82 -18.82,68.67 -88.85,323.63 -175.74,640.11 -175.74,979.98l-30.74 0c0,-343.53 87.48,-662.17 176.94,-988.02 6.27,-22.85 12.56,-45.74 18.82,-68.67l29.54 8.04z"/>
       <g>
        <path class="fil8" d="M9383.25 6993.06c-11.87,42.43 -39.51,80.51 -80.46,104.65 -40.95,24.14 -87.65,29.89 -130.52,19.72 11.87,-42.43 39.51,-80.51 80.46,-104.65 40.95,-24.14 87.65,-29.89 130.52,-19.72z"/>
        <path class="fil8" d="M9010.78 6933.07c-1.98,44.01 12.39,88.82 43.75,124.54 31.36,35.72 73.93,55.76 117.83,59.5 1.98,-44.01 -12.39,-88.82 -43.75,-124.54 -31.36,-35.72 -73.93,-55.76 -117.83,-59.5z"/>
       </g>
       <g>
        <path class="fil8" d="M9402.47 6825.74c-11.87,42.43 -39.51,80.51 -80.46,104.65 -40.95,24.14 -87.65,29.89 -130.52,19.72 11.87,-42.43 39.5,-80.51 80.45,-104.65 40.95,-24.14 87.65,-29.89 130.52,-19.72z"/>
        <path class="fil8" d="M9030.01 6765.76c-1.98,44.01 12.39,88.82 43.75,124.54 31.36,35.72 73.93,55.76 117.83,59.5 1.98,-44.01 -12.39,-88.82 -43.75,-124.54 -31.36,-35.72 -73.93,-55.76 -117.83,-59.5z"/>
       </g>
       <g>
        <path class="fil8" d="M9433.41 6651.81c-11.87,42.43 -39.51,80.5 -80.46,104.65 -40.95,24.14 -87.65,29.88 -130.52,19.72 11.87,-42.43 39.5,-80.51 80.45,-104.65 40.95,-24.14 87.65,-29.88 130.52,-19.72z"/>
        <path class="fil8" d="M9060.94 6591.82c-1.98,44.01 12.39,88.82 43.75,124.54 31.36,35.72 73.93,55.76 117.83,59.5 1.98,-44.01 -12.39,-88.81 -43.75,-124.54 -31.36,-35.72 -73.93,-55.76 -117.83,-59.5z"/>
       </g>
       <g>
        <path class="fil8" d="M9476.31 6464.5c-11.87,42.43 -39.5,80.51 -80.45,104.65 -40.95,24.14 -87.65,29.89 -130.52,19.72 11.87,-42.43 39.51,-80.51 80.46,-104.65 40.95,-24.14 87.65,-29.89 130.52,-19.72z"/>
        <path class="fil8" d="M9103.85 6404.52c-1.98,44.01 12.39,88.82 43.75,124.54 31.36,35.72 73.93,55.76 117.83,59.5 1.98,-44.01 -12.39,-88.82 -43.75,-124.54 -31.36,-35.72 -73.93,-55.76 -117.83,-59.5z"/>
       </g>
       <g>
        <path class="fil8" d="M9529.63 6261.63c-11.87,42.43 -39.5,80.5 -80.45,104.65 -40.95,24.14 -87.65,29.88 -130.52,19.72 11.87,-42.43 39.5,-80.51 80.45,-104.65 40.95,-24.14 87.65,-29.88 130.52,-19.72z"/>
        <path class="fil8" d="M9157.17 6201.64c-1.98,44.01 12.39,88.82 43.75,124.54 31.36,35.72 73.93,55.76 117.83,59.5 1.98,-44.01 -12.39,-88.81 -43.75,-124.54 -31.36,-35.72 -73.93,-55.76 -117.83,-59.5z"/>
       </g>
       <g>
        <path class="fil8" d="M9492.53 6123.66c-7.59,42.43 -25.26,80.5 -51.45,104.65 -26.19,24.14 -56.05,29.88 -83.46,19.72 7.59,-42.43 25.26,-80.51 51.45,-104.65 26.19,-24.14 56.05,-29.89 83.46,-19.72z"/>
        <path class="fil8" d="M9254.35 6063.67c-1.26,44.01 7.92,88.82 27.98,124.54 20.06,35.72 47.28,55.76 75.35,59.5 1.26,-44.01 -7.92,-88.81 -27.98,-124.54 -20.06,-35.72 -47.28,-55.76 -75.35,-59.5z"/>
       </g>
      </g>
      <g>
       <path class="fil11" d="M8588.67 6337.42c12.56,20.18 25.14,40.31 37.69,60.41 177.78,284.65 351.63,563.01 448.93,888.66l29.45 -8.8c-98.34,-329.16 -273.38,-609.42 -452.38,-896.02 -12.55,-20.1 -25.13,-40.23 -37.69,-60.41l-26 16.16z"/>
       <g>
        <path class="fil8" d="M8797.88 7064.66c23.52,37.25 60.9,65.83 107.04,77.23 46.15,11.41 92.54,3.54 130.7,-18.46 -23.52,-37.26 -60.9,-65.83 -107.04,-77.24 -46.15,-11.41 -92.54,-3.54 -130.7,18.47z"/>
        <path class="fil8" d="M9137.58 6900.56c14.49,41.6 13.56,88.65 -6.27,131.85 -19.82,43.2 -54.87,74.59 -95.87,90.74 -14.49,-41.6 -13.56,-88.65 6.27,-131.85 19.82,-43.2 54.87,-74.59 95.87,-90.74z"/>
       </g>
       <g>
        <path class="fil8" d="M8731.56 6909.85c23.52,37.26 60.9,65.83 107.04,77.24 46.15,11.41 92.54,3.54 130.7,-18.47 -23.52,-37.25 -60.9,-65.83 -107.04,-77.23 -46.15,-11.41 -92.54,-3.54 -130.7,18.46z"/>
        <path class="fil8" d="M9071.27 6745.75c14.49,41.6 13.56,88.65 -6.27,131.85 -19.82,43.2 -54.87,74.59 -95.87,90.74 -14.49,-41.6 -13.56,-88.65 6.27,-131.85 19.82,-43.2 54.87,-74.59 95.87,-90.74z"/>
       </g>
       <g>
        <path class="fil8" d="M8652.13 6752.04c23.52,37.26 60.9,65.83 107.04,77.24 46.15,11.41 92.54,3.54 130.7,-18.46 -23.52,-37.26 -60.9,-65.83 -107.04,-77.24 -46.15,-11.41 -92.54,-3.54 -130.7,18.46z"/>
        <path class="fil8" d="M8991.83 6587.94c14.49,41.6 13.56,88.65 -6.27,131.85 -19.82,43.2 -54.87,74.59 -95.87,90.74 -14.49,-41.61 -13.56,-88.65 6.27,-131.85 19.82,-43.2 54.87,-74.59 95.87,-90.74z"/>
       </g>
       <g>
        <path class="fil8" d="M8557.4 6584.86c23.52,37.26 60.9,65.83 107.05,77.24 46.15,11.41 92.54,3.54 130.7,-18.47 -23.52,-37.25 -60.9,-65.83 -107.05,-77.23 -46.14,-11.41 -92.54,-3.54 -130.7,18.46z"/>
        <path class="fil8" d="M8897.1 6420.76c14.5,41.6 13.56,88.65 -6.26,131.85 -19.83,43.2 -54.88,74.59 -95.87,90.74 -14.5,-41.6 -13.56,-88.65 6.26,-131.85 19.83,-43.2 54.88,-74.59 95.87,-90.74z"/>
       </g>
       <g>
        <path class="fil8" d="M8448.24 6405.74c23.52,37.25 60.9,65.83 107.04,77.23 46.15,11.41 92.54,3.54 130.7,-18.46 -23.52,-37.26 -60.9,-65.83 -107.04,-77.24 -46.15,-11.41 -92.54,-3.54 -130.7,18.47z"/>
        <path class="fil8" d="M8787.94 6241.64c14.5,41.61 13.56,88.65 -6.26,131.85 -19.82,43.2 -54.87,74.59 -95.87,90.74 -14.5,-41.6 -13.56,-88.65 6.27,-131.85 19.82,-43.2 54.87,-74.59 95.86,-90.74z"/>
       </g>
       <g>
        <path class="fil8" d="M8444.29 6262.93c19.42,38.48 47.25,69.91 79.25,85.54 32,15.63 62.26,12.59 85.61,-5 -19.42,-38.48 -47.25,-69.91 -79.25,-85.54 -32,-15.63 -62.26,-12.59 -85.61,4.99z"/>
        <path class="fil8" d="M8655.33 6137.27c13.81,41.81 17.83,87.37 8.85,127.33 -8.99,39.97 -29.33,66.96 -55.16,78.58 -13.81,-41.81 -17.84,-87.37 -8.85,-127.33 8.99,-39.97 29.33,-66.96 55.16,-78.58z"/>
       </g>
      </g>
      <g>
       <path class="fil11" d="M9818.87 6377.91c-14.02,19.2 -28.04,38.35 -42.03,57.47 -198.23,270.81 -392.08,535.64 -513.05,853.24l-28.72 -10.94c122.28,-321.03 317.45,-587.67 517.04,-860.33 13.99,-19.12 28.02,-38.27 42.03,-57.47l24.74 18.03z"/>
       <g>
        <path class="fil8" d="M9556.76 7087.8c-26.19,35.43 -65.57,61.17 -112.43,69.16 -46.86,7.98 -92.55,-3.27 -128.99,-28.03 26.19,-35.43 65.57,-61.17 112.43,-69.15 46.86,-7.98 92.54,3.27 128.99,28.02z"/>
        <path class="fil8" d="M9230.04 6899.17c-17.51,40.43 -20.04,87.41 -3.44,131.95 16.59,44.54 49.24,78.43 88.94,97.54 17.51,-40.42 20.04,-87.41 3.44,-131.95 -16.59,-44.54 -49.24,-78.43 -88.94,-97.54z"/>
       </g>
       <g>
        <path class="fil8" d="M9634.28 6938.28c-26.19,35.43 -65.57,61.17 -112.44,69.15 -46.86,7.98 -92.54,-3.27 -128.99,-28.03 26.19,-35.43 65.57,-61.17 112.43,-69.15 46.86,-7.98 92.55,3.27 128.99,28.03z"/>
        <path class="fil8" d="M9307.56 6749.65c-17.52,40.43 -20.04,87.41 -3.44,131.95 16.59,44.54 49.24,78.43 88.93,97.54 17.52,-40.43 20.04,-87.41 3.44,-131.96 -16.59,-44.54 -49.24,-78.43 -88.93,-97.54z"/>
       </g>
       <g>
        <path class="fil8" d="M9725.1 6786.75c-26.19,35.43 -65.57,61.17 -112.43,69.15 -46.86,7.98 -92.55,-3.27 -128.99,-28.02 26.19,-35.43 65.57,-61.17 112.43,-69.16 46.86,-7.98 92.55,3.27 128.99,28.03z"/>
        <path class="fil8" d="M9398.38 6598.11c-17.51,40.43 -20.04,87.41 -3.44,131.96 16.59,44.54 49.24,78.43 88.93,97.54 17.52,-40.43 20.04,-87.41 3.44,-131.95 -16.59,-44.54 -49.24,-78.43 -88.93,-97.54z"/>
       </g>
       <g>
        <path class="fil8" d="M9831.86 6626.98c-26.19,35.43 -65.57,61.17 -112.43,69.15 -46.86,7.98 -92.54,-3.27 -128.99,-28.03 26.19,-35.42 65.57,-61.17 112.43,-69.15 46.86,-7.98 92.55,3.27 128.99,28.03z"/>
        <path class="fil8" d="M9505.15 6438.35c-17.52,40.43 -20.04,87.41 -3.44,131.95 16.59,44.55 49.24,78.43 88.93,97.54 17.52,-40.43 20.04,-87.41 3.44,-131.95 -16.59,-44.55 -49.24,-78.43 -88.93,-97.54z"/>
       </g>
       <g>
        <path class="fil8" d="M9953.9 6456.37c-26.19,35.43 -65.57,61.17 -112.44,69.16 -46.86,7.98 -92.54,-3.27 -128.99,-28.03 26.19,-35.43 65.57,-61.17 112.43,-69.15 46.86,-7.98 92.55,3.27 128.99,28.02z"/>
        <path class="fil8" d="M9627.18 6267.74c-17.51,40.42 -20.04,87.41 -3.44,131.95 16.59,44.54 49.24,78.43 88.93,97.54 17.52,-40.43 20.04,-87.41 3.44,-131.95 -16.59,-44.54 -49.24,-78.43 -88.93,-97.54z"/>
       </g>
       <g>
        <path class="fil8" d="M9968.34 6314.24c-22.19,36.95 -52.26,66.24 -85.33,79.48 -33.06,13.24 -63.02,7.98 -85.02,-11.28 22.19,-36.94 52.26,-66.24 85.33,-79.48 33.06,-13.24 63.02,-7.97 85.02,11.28z"/>
        <path class="fil8" d="M9767.11 6173.4c-16.85,40.68 -24.21,85.82 -18.19,126.34 6.03,40.52 24.33,68.94 49.24,82.42 16.85,-40.68 24.21,-85.82 18.19,-126.34 -6.03,-40.52 -24.33,-68.94 -49.24,-82.42z"/>
       </g>
      </g>
     </g>
     <g>
      <g>
       <path class="fil6" d="M9508.8 7581.23c-12.12,-37.32 -27.81,-72.24 -46.53,-104.09l-7.05 7.05 -134.75 134.74 -134.74 -134.74 -21.73 -21.73 -21.73 21.73 -134.75 134.74 -134.75 -134.74 -7.05 -7.05c-18.71,31.84 -34.41,66.77 -46.53,104.09l31.85 -31.85 134.75 134.75 21.73 21.73 21.73 -21.73 134.75 -134.75 134.75 134.75 21.73 21.73 21.73 -21.73 134.74 -134.75 31.85 31.85z"/>
       <path class="fil6" d="M9529.53 7864.12c4.19,-25.74 6.77,-52.24 7.59,-79.32l-38.44 -38.44 -21.73 -21.73 -21.73 21.73 -134.75 134.74 -134.74 -134.74 -21.73 -21.73 -21.73 21.73 -134.75 134.74 -134.75 -134.74 -21.73 -21.73 -21.73 21.73 -38.44 38.44c0.83,27.08 3.41,53.58 7.59,79.32l52.58 -52.57 134.75 134.75 21.73 21.73 21.73 -21.73 134.75 -134.75 134.75 134.75 21.73 21.73 21.73 -21.73 134.74 -134.75 52.58 52.57z"/>
      </g>
      <path class="fil4" d="M9164 8059.15l277.28 0c24.91,-39.47 44.93,-84.43 58.84,-133.34 14.19,-49.9 21.94,-103.85 21.94,-160.18 0,-77.08 -14.48,-149.7 -40.13,-213.59 -26.54,-66.13 -64.96,-122.91 -111.57,-165.62l-5.04 -4.62 0 -6.67 0 -83.81 -402.63 0 0 83.81 0 6.67 -5.04 4.62c-46.61,42.71 -85.03,99.5 -111.57,165.63 -25.65,63.9 -40.13,136.51 -40.13,213.59 0,56.33 7.75,110.28 21.94,160.18 13.91,48.91 33.93,93.87 58.84,133.34l277.28 0zm285.58 30.74l-285.58 0 -285.58 0 -8.21 0 -4.57 -6.96c-28.81,-43.87 -51.76,-94.1 -67.29,-148.7 -14.97,-52.64 -23.14,-109.42 -23.14,-168.59 0,-80.96 15.31,-157.47 42.41,-225 27.27,-67.94 66.57,-126.82 114.33,-172.09l0 -92.6 0 -15.37 15.37 0 433.36 0 15.37 -0 0 15.37 0 92.6c47.76,45.26 87.06,104.15 114.33,172.09 27.11,67.53 42.41,144.04 42.41,225 0,59.17 -8.17,115.95 -23.14,168.59 -15.53,54.61 -38.48,104.83 -67.29,148.7l-4.58 6.96 -8.21 0z"/>
     </g>
    </g>
    <path class="fil9" d="M9164 7462.46l21.73 21.73 134.75 134.74 130.59 -130.59c-22.6,-39.23 -49.87,-73.66 -80.72,-101.93l-5.04 -4.62 0 -6.67 0 -83.81 -402.63 0 0 83.81 0 6.67 -5.04 4.62c-30.85,28.27 -58.11,62.7 -80.72,101.93l130.59 130.59 134.75 -134.74 21.73 -21.73z"/>
    <path class="fil9" d="M8844.54 7555.89c-24.69,62.96 -38.6,134.2 -38.6,209.74 0,1.36 0,2.72 0.02,4.09l23.36 -23.36 21.72 -21.73 21.73 21.73 134.75 134.75 134.75 -134.75 21.73 -21.73 21.73 21.73 134.75 134.75 134.75 -134.75 21.73 -21.73 21.73 21.73 23.36 23.36c0.01,-1.36 0.02,-2.72 0.02,-4.09 0,-75.54 -13.91,-146.79 -38.61,-209.75l-6.5 -6.5 -134.74 134.75 -21.73 21.73 -21.73 -21.73 -134.75 -134.75 -134.74 134.75 -21.73 21.73 -21.73 -21.73 -134.75 -134.75 -6.5 6.5z"/>
    <path class="fil9" d="M8827.88 7925.81c13.91,48.91 33.93,93.87 58.84,133.34l277.28 0 277.28 0c24.91,-39.47 44.93,-84.43 58.84,-133.34 6.87,-24.17 12.23,-49.28 15.94,-75.16l-39.11 -39.1 -134.74 134.75 -21.73 21.73 -21.73 -21.73 -134.75 -134.75 -134.74 134.75 -21.73 21.73 -21.73 -21.73 -134.75 -134.75 -39.1 39.1c3.7,25.88 9.06,50.99 15.93,75.16z"/>
   </g>
   <g>
    <g>
     <g>
      <g>
       <path class="fil11" d="M962.88 6236.36c-6.26,22.93 -12.55,45.82 -18.82,68.67 -88.85,323.63 -175.74,640.11 -175.74,979.98l-30.74 0c0,-343.53 87.48,-662.17 176.94,-988.02 6.27,-22.85 12.56,-45.74 18.82,-68.67l29.54 8.04z"/>
       <g>
        <path class="fil8" d="M970.61 6993.06c-11.87,42.43 -39.51,80.51 -80.46,104.65 -40.95,24.14 -87.65,29.89 -130.52,19.72 11.87,-42.43 39.51,-80.51 80.46,-104.65 40.95,-24.14 87.65,-29.89 130.52,-19.72z"/>
        <path class="fil8" d="M598.15 6933.07c-1.98,44.01 12.39,88.82 43.75,124.54 31.36,35.72 73.93,55.76 117.83,59.5 1.98,-44.01 -12.39,-88.82 -43.75,-124.54 -31.36,-35.72 -73.93,-55.76 -117.83,-59.5z"/>
       </g>
       <g>
        <path class="fil8" d="M989.84 6825.74c-11.87,42.43 -39.51,80.51 -80.46,104.65 -40.95,24.14 -87.65,29.89 -130.52,19.72 11.87,-42.43 39.5,-80.51 80.45,-104.65 40.95,-24.14 87.65,-29.89 130.52,-19.72z"/>
        <path class="fil8" d="M617.37 6765.76c-1.98,44.01 12.39,88.82 43.75,124.54 31.36,35.72 73.93,55.76 117.83,59.5 1.98,-44.01 -12.39,-88.82 -43.75,-124.54 -31.36,-35.72 -73.93,-55.76 -117.83,-59.5z"/>
       </g>
       <g>
        <path class="fil8" d="M1020.77 6651.81c-11.87,42.43 -39.51,80.5 -80.46,104.65 -40.95,24.14 -87.65,29.88 -130.52,19.72 11.87,-42.43 39.5,-80.51 80.45,-104.65 40.95,-24.14 87.65,-29.88 130.52,-19.72z"/>
        <path class="fil8" d="M648.31 6591.82c-1.98,44.01 12.39,88.82 43.75,124.54 31.36,35.72 73.93,55.76 117.83,59.5 1.98,-44.01 -12.39,-88.81 -43.75,-124.54 -31.36,-35.72 -73.93,-55.76 -117.83,-59.5z"/>
       </g>
       <g>
        <path class="fil8" d="M1063.68 6464.5c-11.87,42.43 -39.5,80.51 -80.45,104.65 -40.95,24.14 -87.65,29.89 -130.52,19.72 11.87,-42.43 39.51,-80.51 80.46,-104.65 40.95,-24.14 87.65,-29.89 130.52,-19.72z"/>
        <path class="fil8" d="M691.21 6404.52c-1.98,44.01 12.39,88.82 43.75,124.54 31.36,35.72 73.93,55.76 117.83,59.5 1.98,-44.01 -12.39,-88.82 -43.75,-124.54 -31.36,-35.72 -73.93,-55.76 -117.83,-59.5z"/>
       </g>
       <g>
        <path class="fil8" d="M1116.99 6261.63c-11.87,42.43 -39.5,80.5 -80.45,104.65 -40.95,24.14 -87.65,29.88 -130.52,19.72 11.87,-42.43 39.5,-80.51 80.45,-104.65 40.95,-24.14 87.65,-29.88 130.52,-19.72z"/>
        <path class="fil8" d="M744.53 6201.64c-1.98,44.01 12.39,88.82 43.75,124.54 31.36,35.72 73.93,55.76 117.83,59.5 1.98,-44.01 -12.39,-88.81 -43.75,-124.54 -31.36,-35.72 -73.93,-55.76 -117.83,-59.5z"/>
       </g>
       <g>
        <path class="fil8" d="M1079.89 6123.66c-7.59,42.43 -25.26,80.5 -51.45,104.65 -26.19,24.14 -56.05,29.88 -83.46,19.72 7.59,-42.43 25.26,-80.51 51.45,-104.65 26.19,-24.14 56.05,-29.89 83.46,-19.72z"/>
        <path class="fil8" d="M841.71 6063.67c-1.26,44.01 7.92,88.82 27.98,124.54 20.06,35.72 47.28,55.76 75.35,59.5 1.26,-44.01 -7.92,-88.81 -27.98,-124.54 -20.06,-35.72 -47.28,-55.76 -75.35,-59.5z"/>
       </g>
      </g>
      <g>
       <path class="fil11" d="M176.04 6337.42c12.56,20.18 25.14,40.31 37.69,60.41 177.78,284.65 351.63,563.01 448.93,888.66l29.45 -8.8c-98.34,-329.16 -273.38,-609.42 -452.38,-896.02 -12.55,-20.1 -25.13,-40.23 -37.69,-60.41l-26 16.16z"/>
       <g>
        <path class="fil8" d="M385.24 7064.66c23.52,37.25 60.9,65.83 107.04,77.23 46.15,11.41 92.54,3.54 130.7,-18.46 -23.52,-37.26 -60.9,-65.83 -107.04,-77.24 -46.15,-11.41 -92.54,-3.54 -130.7,18.47z"/>
        <path class="fil8" d="M724.95 6900.56c14.49,41.6 13.56,88.65 -6.27,131.85 -19.82,43.2 -54.87,74.59 -95.87,90.74 -14.49,-41.6 -13.56,-88.65 6.27,-131.85 19.82,-43.2 54.87,-74.59 95.87,-90.74z"/>
       </g>
       <g>
        <path class="fil8" d="M318.93 6909.85c23.52,37.26 60.9,65.83 107.04,77.24 46.15,11.41 92.54,3.54 130.7,-18.47 -23.52,-37.25 -60.9,-65.83 -107.04,-77.23 -46.15,-11.41 -92.54,-3.54 -130.7,18.46z"/>
        <path class="fil8" d="M658.63 6745.75c14.49,41.6 13.56,88.65 -6.27,131.85 -19.82,43.2 -54.87,74.59 -95.87,90.74 -14.49,-41.6 -13.56,-88.65 6.27,-131.85 19.82,-43.2 54.87,-74.59 95.87,-90.74z"/>
       </g>
       <g>
        <path class="fil8" d="M239.5 6752.04c23.52,37.26 60.9,65.83 107.04,77.24 46.15,11.41 92.54,3.54 130.7,-18.46 -23.52,-37.26 -60.9,-65.83 -107.04,-77.24 -46.15,-11.41 -92.54,-3.54 -130.7,18.46z"/>
        <path class="fil8" d="M579.2 6587.94c14.49,41.6 13.56,88.65 -6.27,131.85 -19.82,43.2 -54.87,74.59 -95.87,90.74 -14.49,-41.61 -13.56,-88.65 6.27,-131.85 19.82,-43.2 54.87,-74.59 95.87,-90.74z"/>
       </g>
       <g>
        <path class="fil8" d="M144.76 6584.86c23.52,37.26 60.9,65.83 107.05,77.24 46.15,11.41 92.54,3.54 130.7,-18.47 -23.52,-37.25 -60.9,-65.83 -107.05,-77.23 -46.14,-11.41 -92.54,-3.54 -130.7,18.46z"/>
        <path class="fil8" d="M484.47 6420.76c14.5,41.6 13.56,88.65 -6.26,131.85 -19.83,43.2 -54.88,74.59 -95.87,90.74 -14.5,-41.6 -13.56,-88.65 6.26,-131.85 19.83,-43.2 54.88,-74.59 95.87,-90.74z"/>
       </g>
       <g>
        <path class="fil8" d="M35.61 6405.74c23.52,37.25 60.9,65.83 107.04,77.23 46.15,11.41 92.54,3.54 130.7,-18.46 -23.52,-37.26 -60.9,-65.83 -107.04,-77.24 -46.15,-11.41 -92.54,-3.54 -130.7,18.47z"/>
        <path class="fil8" d="M375.31 6241.64c14.5,41.61 13.56,88.65 -6.26,131.85 -19.82,43.2 -54.87,74.59 -95.87,90.74 -14.5,-41.6 -13.56,-88.65 6.27,-131.85 19.82,-43.2 54.87,-74.59 95.86,-90.74z"/>
       </g>
       <g>
        <path class="fil8" d="M31.66 6262.93c19.42,38.48 47.25,69.91 79.25,85.54 32,15.63 62.26,12.59 85.61,-5 -19.42,-38.48 -47.25,-69.91 -79.25,-85.54 -32,-15.63 -62.26,-12.59 -85.61,4.99z"/>
        <path class="fil8" d="M242.7 6137.27c13.81,41.81 17.83,87.37 8.85,127.33 -8.99,39.97 -29.33,66.96 -55.16,78.58 -13.81,-41.81 -17.84,-87.37 -8.85,-127.33 8.99,-39.97 29.33,-66.96 55.16,-78.58z"/>
       </g>
      </g>
      <g>
       <path class="fil11" d="M1406.24 6377.91c-14.02,19.2 -28.04,38.35 -42.03,57.47 -198.23,270.81 -392.08,535.64 -513.05,853.24l-28.72 -10.94c122.28,-321.03 317.45,-587.67 517.04,-860.33 13.99,-19.12 28.02,-38.27 42.03,-57.47l24.74 18.03z"/>
       <g>
        <path class="fil8" d="M1144.13 7087.8c-26.19,35.43 -65.57,61.17 -112.43,69.16 -46.86,7.98 -92.55,-3.27 -128.99,-28.03 26.19,-35.43 65.57,-61.17 112.43,-69.15 46.86,-7.98 92.54,3.27 128.99,28.02z"/>
        <path class="fil8" d="M817.41 6899.17c-17.51,40.43 -20.04,87.41 -3.44,131.95 16.59,44.54 49.24,78.43 88.94,97.54 17.51,-40.42 20.04,-87.41 3.44,-131.95 -16.59,-44.54 -49.24,-78.43 -88.94,-97.54z"/>
       </g>
       <g>
        <path class="fil8" d="M1221.65 6938.28c-26.19,35.43 -65.57,61.17 -112.44,69.15 -46.86,7.98 -92.54,-3.27 -128.99,-28.03 26.19,-35.43 65.57,-61.17 112.43,-69.15 46.86,-7.98 92.55,3.27 128.99,28.03z"/>
        <path class="fil8" d="M894.93 6749.65c-17.52,40.43 -20.04,87.41 -3.44,131.95 16.59,44.54 49.24,78.43 88.93,97.54 17.52,-40.43 20.04,-87.41 3.44,-131.96 -16.59,-44.54 -49.24,-78.43 -88.93,-97.54z"/>
       </g>
       <g>
        <path class="fil8" d="M1312.46 6786.75c-26.19,35.43 -65.57,61.17 -112.43,69.15 -46.86,7.98 -92.55,-3.27 -128.99,-28.02 26.19,-35.43 65.57,-61.17 112.43,-69.16 46.86,-7.98 92.55,3.27 128.99,28.03z"/>
        <path class="fil8" d="M985.74 6598.11c-17.51,40.43 -20.04,87.41 -3.44,131.96 16.59,44.54 49.24,78.43 88.93,97.54 17.52,-40.43 20.04,-87.41 3.44,-131.95 -16.59,-44.54 -49.24,-78.43 -88.93,-97.54z"/>
       </g>
       <g>
        <path class="fil8" d="M1419.23 6626.98c-26.19,35.43 -65.57,61.17 -112.43,69.15 -46.86,7.98 -92.54,-3.27 -128.99,-28.03 26.19,-35.42 65.57,-61.17 112.43,-69.15 46.86,-7.98 92.55,3.27 128.99,28.03z"/>
        <path class="fil8" d="M1092.51 6438.35c-17.52,40.43 -20.04,87.41 -3.44,131.95 16.59,44.55 49.24,78.43 88.93,97.54 17.52,-40.43 20.04,-87.41 3.44,-131.95 -16.59,-44.55 -49.24,-78.43 -88.93,-97.54z"/>
       </g>
       <g>
        <path class="fil8" d="M1541.27 6456.37c-26.19,35.43 -65.57,61.17 -112.44,69.16 -46.86,7.98 -92.54,-3.27 -128.99,-28.03 26.19,-35.43 65.57,-61.17 112.43,-69.15 46.86,-7.98 92.55,3.27 128.99,28.02z"/>
        <path class="fil8" d="M1214.55 6267.74c-17.51,40.42 -20.04,87.41 -3.44,131.95 16.59,44.54 49.24,78.43 88.93,97.54 17.52,-40.43 20.04,-87.41 3.44,-131.95 -16.59,-44.54 -49.24,-78.43 -88.93,-97.54z"/>
       </g>
       <g>
        <path class="fil8" d="M1555.7 6314.24c-22.19,36.95 -52.26,66.24 -85.33,79.48 -33.06,13.24 -63.02,7.98 -85.02,-11.28 22.19,-36.94 52.26,-66.24 85.33,-79.48 33.06,-13.24 63.02,-7.97 85.02,11.28z"/>
        <path class="fil8" d="M1354.47 6173.4c-16.85,40.68 -24.21,85.82 -18.19,126.34 6.03,40.52 24.33,68.94 49.24,82.42 16.85,-40.68 24.21,-85.82 18.19,-126.34 -6.03,-40.52 -24.33,-68.94 -49.24,-82.42z"/>
       </g>
      </g>
     </g>
     <g>
      <g>
       <path class="fil6" d="M1096.17 7581.23c-12.12,-37.32 -27.81,-72.24 -46.53,-104.09l-7.05 7.05 -134.75 134.74 -134.74 -134.74 -21.73 -21.73 -21.73 21.73 -134.75 134.74 -134.75 -134.74 -7.05 -7.05c-18.71,31.84 -34.41,66.77 -46.53,104.09l31.85 -31.85 134.75 134.75 21.73 21.73 21.73 -21.73 134.75 -134.75 134.75 134.75 21.73 21.73 21.73 -21.73 134.74 -134.75 31.85 31.85z"/>
       <path class="fil6" d="M1116.9 7864.12c4.19,-25.74 6.77,-52.24 7.59,-79.32l-38.44 -38.44 -21.73 -21.73 -21.73 21.73 -134.75 134.74 -134.74 -134.74 -21.73 -21.73 -21.73 21.73 -134.75 134.74 -134.75 -134.74 -21.73 -21.73 -21.73 21.73 -38.44 38.44c0.83,27.08 3.41,53.58 7.59,79.32l52.58 -52.57 134.75 134.75 21.73 21.73 21.73 -21.73 134.75 -134.75 134.75 134.75 21.73 21.73 21.73 -21.73 134.74 -134.75 52.58 52.57z"/>
      </g>
      <path class="fil4" d="M751.37 8059.15l277.28 0c24.91,-39.47 44.93,-84.43 58.84,-133.34 14.19,-49.9 21.94,-103.85 21.94,-160.18 0,-77.08 -14.48,-149.7 -40.13,-213.59 -26.54,-66.13 -64.96,-122.91 -111.57,-165.62l-5.04 -4.62 0 -6.67 0 -83.81 -402.63 0 0 83.81 0 6.67 -5.04 4.62c-46.61,42.71 -85.03,99.5 -111.57,165.63 -25.65,63.9 -40.13,136.51 -40.13,213.59 0,56.33 7.75,110.28 21.94,160.18 13.91,48.91 33.93,93.87 58.84,133.34l277.28 0zm285.58 30.74l-285.58 0 -285.58 0 -8.21 0 -4.57 -6.96c-28.81,-43.87 -51.76,-94.1 -67.29,-148.7 -14.97,-52.64 -23.14,-109.42 -23.14,-168.59 0,-80.96 15.31,-157.47 42.41,-225 27.27,-67.94 66.57,-126.82 114.33,-172.09l0 -92.6 0 -15.37 15.37 0 433.36 0 15.37 -0 0 15.37 0 92.6c47.76,45.26 87.06,104.15 114.33,172.09 27.11,67.53 42.41,144.04 42.41,225 0,59.17 -8.17,115.95 -23.14,168.59 -15.53,54.61 -38.48,104.83 -67.29,148.7l-4.58 6.96 -8.21 0z"/>
     </g>
    </g>
    <path class="fil9" d="M751.37 7462.46l21.73 21.73 134.75 134.74 130.59 -130.59c-22.6,-39.23 -49.87,-73.66 -80.72,-101.93l-5.04 -4.62 0 -6.67 0 -83.81 -402.63 0 0 83.81 0 6.67 -5.04 4.62c-30.85,28.27 -58.11,62.7 -80.72,101.93l130.59 130.59 134.75 -134.74 21.73 -21.73z"/>
    <path class="fil9" d="M431.91 7555.89c-24.69,62.96 -38.6,134.2 -38.6,209.74 0,1.36 0,2.72 0.02,4.09l23.36 -23.36 21.72 -21.73 21.73 21.73 134.75 134.75 134.75 -134.75 21.73 -21.73 21.73 21.73 134.75 134.75 134.75 -134.75 21.73 -21.73 21.73 21.73 23.36 23.36c0.01,-1.36 0.02,-2.72 0.02,-4.09 0,-75.54 -13.91,-146.79 -38.61,-209.75l-6.5 -6.5 -134.74 134.75 -21.73 21.73 -21.73 -21.73 -134.75 -134.75 -134.74 134.75 -21.73 21.73 -21.73 -21.73 -134.75 -134.75 -6.5 6.5z"/>
    <path class="fil9" d="M415.24 7925.81c13.91,48.91 33.93,93.87 58.84,133.34l277.28 0 277.28 0c24.91,-39.47 44.93,-84.43 58.84,-133.34 6.87,-24.17 12.23,-49.28 15.94,-75.16l-39.11 -39.1 -134.74 134.75 -21.73 21.73 -21.73 -21.73 -134.75 -134.75 -134.74 134.75 -21.73 21.73 -21.73 -21.73 -134.75 -134.75 -39.1 39.1c3.7,25.88 9.06,50.99 15.93,75.16z"/>
   </g>
  </g>
 </g>
</svg>
