<svg xmlns="http://www.w3.org/2000/svg" version="1.1" xmlns:xlink="http://www.w3.org/1999/xlink" xmlns:svgjs="http://svgjs.dev/svgjs" width="2000" height="924" viewBox="0 0 2000 924"><g transform="matrix(1,0,0,1,-1.2121212121212466,-1.2538760995650478)"><svg viewBox="0 0 396 183" data-background-color="#ffffff" preserveAspectRatio="xMidYMid meet" height="924" width="2000" xmlns="http://www.w3.org/2000/svg" xmlns:xlink="http://www.w3.org/1999/xlink"><g id="tight-bounds" transform="matrix(1,0,0,1,0.2400000000000091,0.24833260413463165)"><svg viewBox="0 0 395.52 182.50333479173074" height="182.50333479173074" width="395.52"><g><svg viewBox="0 0 395.52 182.50333479173074" height="182.50333479173074" width="395.52"><g transform="matrix(1,0,0,1,0,119.7506662904053)"><svg viewBox="0 0 395.52 62.752668501325424" height="62.752668501325424" width="395.52"><g id="textblocktransform"><svg viewBox="0 0 395.52 62.752668501325424" height="62.752668501325424" width="395.52" id="textblock"><g><svg viewBox="0 0 395.52 62.752668501325424" height="62.752668501325424" width="395.52"><g transform="matrix(1,0,0,1,0,0)"><svg width="395.52" viewBox="3.91 -38.38 246.48745605778393 39.11" height="62.752668501325424" data-palette-color="#f9d110"><path d="M11.35-25.29L11.35-1.29Q11.35-0.56 11.07-0.28 10.79 0 10.08 0L10.08 0 5.18 0Q4.49 0 4.2-0.28 3.91-0.56 3.91-1.29L3.91-1.29 3.91-32.23Q3.91-33.67 4.47-34.34 5.03-35.01 6.45-35.01L6.45-35.01 8.72-35.01Q9.96-35.01 11.07-34.68 12.18-34.35 13.44-33.2 14.7-32.06 16.37-29.65 18.04-27.25 20.41-23.1L20.41-23.1Q22.68-19.14 24.06-16.77 25.44-14.4 26.2-13.16 26.95-11.91 27.33-11.38 27.71-10.84 27.95-10.5L27.95-10.5 27.95-31.1Q27.95-31.81 28.17-32.18L28.17-32.18Q29.22-33.79 31.08-35.57L31.08-35.57Q31.45-35.86 31.69-35.86L31.69-35.86Q31.96-35.86 32.28-35.57L32.28-35.57Q33.28-34.64 33.97-33.8 34.67-32.96 35.18-32.18L35.18-32.18Q35.4-31.79 35.4-31.1L35.4-31.1 35.4-2.03Q35.4-0.93 34.99-0.46 34.57 0 33.47 0L33.47 0 31.13 0Q30.08 0 28.98-0.35 27.88-0.71 26.49-1.97 25.1-3.22 23.19-5.88 21.29-8.54 18.6-13.16L18.6-13.16Q16.33-17.09 14.98-19.41 13.62-21.73 12.92-22.91 12.21-24.1 11.89-24.57 11.57-25.05 11.35-25.29L11.35-25.29ZM54.86 0.61L54.86 0.61Q50.73 0.61 47.68-0.72 44.63-2.05 42.94-4.86 41.26-7.67 41.26-12.11L41.26-12.11Q41.26-18.77 44.68-22.19 48.09-25.61 53.76-25.61L53.76-25.61Q57.44-25.61 60-24.29 62.55-22.97 63.88-20.65 65.21-18.33 65.21-15.36L65.21-15.36Q65.21-12.45 63.72-11.3 62.23-10.16 59.37-10.16L59.37-10.16 48.9-10.16Q49.09-7.64 50.74-6.32 52.39-5 55.22-5L55.22-5Q57.47-5 58.82-5.68 60.18-6.35 60.72-6.74L60.72-6.74Q61.18-7.08 61.77-7.06L61.77-7.06Q62.23-7.06 63.1-6.87 63.96-6.69 64.82-6.2L64.82-6.2Q65.43-5.88 65.43-5.32L65.43-5.32Q65.43-5 65.31-4.42L65.31-4.42Q65.23-4.08 65.06-3.43 64.89-2.78 64.62-2.22L64.62-2.22Q64.48-1.95 64.16-1.71L64.16-1.71Q63.67-1.37 62.58-0.81 61.5-0.24 59.62 0.18 57.74 0.61 54.86 0.61ZM48.85-15.16L48.85-15.16 56.81-15.16Q58.05-15.16 58.05-16.31L58.05-16.31Q58.05-18.04 56.97-19.23 55.88-20.41 53.71-20.41L53.71-20.41Q51.34-20.41 50.23-18.9 49.12-17.38 48.85-15.16ZM81.12-8.47L81.12-8.47Q78.54-6.98 77.53-5.22 76.53-3.47 76.53-0.9L76.53-0.9Q76.53-0.39 76.39-0.2 76.24 0 75.75 0L75.75 0 70.06 0Q68.99 0 68.99-1.39L68.99-1.39Q68.99-4.71 70.34-7.32 71.7-9.94 75.12-11.99L75.12-11.99Q72.53-13.43 71.05-15.89 69.58-18.36 69.58-21.12L69.58-21.12 69.58-21.51Q69.58-22.09 69.82-22.41L69.82-22.41Q70.84-23.75 72.82-25.32L72.82-25.32Q73.16-25.56 73.43-25.56L73.43-25.56Q73.75-25.56 74.04-25.32L74.04-25.32Q75.09-24.51 75.81-23.8 76.53-23.1 77.05-22.41L77.05-22.41Q77.29-22.09 77.29-21.51L77.29-21.51 77.29-21.12Q77.29-17.63 81.34-15.72L81.34-15.72Q83.2-16.75 83.97-18.09 84.74-19.43 84.74-21.12L84.74-21.12 84.74-21.51Q84.74-22.09 84.98-22.41L84.98-22.41Q85.96-23.75 87.91-25.32L87.91-25.32Q88.23-25.56 88.5-25.56L88.5-25.56Q88.81-25.56 89.08-25.32L89.08-25.32Q90.11-24.51 90.82-23.8 91.52-23.1 92.01-22.41L92.01-22.41Q92.26-22.09 92.26-21.51L92.26-21.51 92.26-21.12Q92.26-18.09 90.91-15.89 89.57-13.7 87.4-12.26L87.4-12.26Q90.42-10.55 91.82-7.75 93.21-4.96 93.21-1.39L93.21-1.39Q93.21-0.56 93.01-0.28 92.82 0 92.16 0L92.16 0 86.35 0Q85.49 0 85.49-1.17L85.49-1.17Q85.49-2.76 85.19-4 84.88-5.25 83.95-6.34 83.03-7.42 81.12-8.47ZM108.1 0.61L108.1 0.61Q99.94 0.61 99.94-7.86L99.94-7.86 99.94-19.31 97.18-19.31Q96.45-19.31 96.17-19.62 95.89-19.92 95.89-20.65L95.89-20.65 95.89-23.66Q95.89-24.39 96.17-24.69 96.45-25 97.18-25L97.18-25 99.94-25 99.94-28.93Q99.94-29.52 100.19-29.83L100.19-29.83Q101.21-31.18 103.19-32.74L103.19-32.74Q103.53-32.98 103.8-32.98L103.8-32.98Q104.09-32.98 104.39-32.74L104.39-32.74Q105.44-31.93 106.16-31.23 106.88-30.52 107.39-29.83L107.39-29.83Q107.63-29.52 107.63-28.93L107.63-28.93 107.63-25 111.96-25Q112.69-25 112.97-24.69 113.25-24.39 113.25-23.66L113.25-23.66 113.25-20.65Q113.25-19.92 112.97-19.62 112.69-19.31 111.96-19.31L111.96-19.31 107.63-19.31 107.63-9.2Q107.63-5.3 110.47-5.3L110.47-5.3Q110.91-5.3 111.27-5.38 111.64-5.47 111.91-5.57L111.91-5.57Q112.42-5.76 112.63-5.71 112.83-5.66 113.01-5.18L113.01-5.18 114.42-1.39Q114.64-0.78 114.13-0.51L114.13-0.51Q113.76-0.34 112.36 0.13 110.95 0.61 108.1 0.61ZM151.06 0L138.93 0Q136.41 0 135.11-0.63 133.8-1.27 133.35-2.71 132.9-4.15 132.9-6.54L132.9-6.54 132.9-31.1Q132.9-31.81 133.14-32.18L133.14-32.18Q134.24-33.79 136.22-35.57L136.22-35.57Q136.58-35.86 136.85-35.86L136.85-35.86Q137.15-35.86 137.46-35.57L137.46-35.57Q138.54-34.64 139.27-33.8 140-32.96 140.54-32.18L140.54-32.18Q140.78-31.79 140.78-31.1L140.78-31.1 140.78-9.45Q140.78-7.81 141.37-7.1 141.96-6.4 143.57-6.4L143.57-6.4 151.06-6.42Q151.65-6.42 151.94-6.23L151.94-6.23Q152.58-5.79 153.26-5.18 153.94-4.57 154.7-3.71L154.7-3.71Q154.94-3.39 154.94-3.2L154.94-3.2Q154.94-2.98 154.7-2.71L154.7-2.71Q153.94-1.86 153.26-1.25 152.58-0.63 151.94-0.2L151.94-0.2Q151.6 0 151.06 0L151.06 0ZM170 0.61L170 0.61Q165.88 0.61 162.83-0.72 159.78-2.05 158.09-4.86 156.41-7.67 156.41-12.11L156.41-12.11Q156.41-18.77 159.82-22.19 163.24-25.61 168.91-25.61L168.91-25.61Q172.59-25.61 175.14-24.29 177.69-22.97 179.03-20.65 180.36-18.33 180.36-15.36L180.36-15.36Q180.36-12.45 178.87-11.3 177.38-10.16 174.52-10.16L174.52-10.16 164.05-10.16Q164.24-7.64 165.89-6.32 167.54-5 170.37-5L170.37-5Q172.62-5 173.97-5.68 175.33-6.35 175.86-6.74L175.86-6.74Q176.33-7.08 176.91-7.06L176.91-7.06Q177.38-7.06 178.24-6.87 179.11-6.69 179.97-6.2L179.97-6.2Q180.58-5.88 180.58-5.32L180.58-5.32Q180.58-5 180.45-4.42L180.45-4.42Q180.38-4.08 180.21-3.43 180.04-2.78 179.77-2.22L179.77-2.22Q179.62-1.95 179.31-1.71L179.31-1.71Q178.82-1.37 177.73-0.81 176.65-0.24 174.77 0.18 172.89 0.61 170 0.61ZM164-15.16L164-15.16 171.96-15.16Q173.2-15.16 173.2-16.31L173.2-16.31Q173.2-18.04 172.12-19.23 171.03-20.41 168.86-20.41L168.86-20.41Q166.49-20.41 165.38-18.9 164.27-17.38 164-15.16ZM191-2.27L191-2.27Q189.66-4.39 188.35-7.17 187.04-9.94 185.98-12.78 184.92-15.63 184.28-17.98 183.65-20.34 183.65-21.61L183.65-21.61Q183.65-22.09 183.92-22.41L183.92-22.41Q185.04-23.8 187.12-25.32L187.12-25.32Q187.48-25.56 187.78-25.56L187.78-25.56Q188.09-25.56 188.43-25.32L188.43-25.32Q189.56-24.51 190.33-23.8 191.1-23.1 191.63-22.41L191.63-22.41Q191.9-22.09 191.9-21.51L191.9-21.51 191.9-21.63Q191.9-20.04 192.48-17.47 193.05-14.89 194.05-12.04 195.05-9.18 196.37-6.79L196.37-6.79 196.49-6.79Q197.59-8.59 198.44-10.69 199.3-12.79 199.88-14.89 200.47-16.99 200.78-18.75 201.08-20.51 201.08-21.61L201.08-21.61 201.08-21.51Q201.08-22.09 201.33-22.41L201.33-22.41Q201.89-23.1 202.64-23.8 203.4-24.51 204.47-25.32L204.47-25.32Q204.82-25.56 205.11-25.56L205.11-25.56Q205.45-25.56 205.74-25.32L205.74-25.32Q206.84-24.51 207.6-23.8 208.36-23.1 208.89-22.41L208.89-22.41Q209.14-22.09 209.14-21.56L209.14-21.56Q209.11-20.24 208.45-17.86 207.8-15.48 206.68-12.63 205.57-9.79 204.21-7.04 202.84-4.3 201.42-2.27L201.42-2.27Q200.57-1.03 199.88-0.51 199.2 0 197.52 0L197.52 0 194.93 0Q193.17 0 192.5-0.49 191.83-0.98 191-2.27ZM183.65-21.51L183.65-21.63 183.65-21.61Q183.65-21.56 183.65-21.51L183.65-21.51ZM209.14-21.61L209.14-21.61 209.14-21.51 209.14-21.56Q209.14-21.58 209.14-21.61ZM225.91 0.61L225.91 0.61Q221.78 0.61 218.73-0.72 215.68-2.05 213.99-4.86 212.31-7.67 212.31-12.11L212.31-12.11Q212.31-18.77 215.73-22.19 219.15-25.61 224.81-25.61L224.81-25.61Q228.5-25.61 231.05-24.29 233.6-22.97 234.93-20.65 236.26-18.33 236.26-15.36L236.26-15.36Q236.26-12.45 234.77-11.3 233.28-10.16 230.42-10.16L230.42-10.16 219.95-10.16Q220.15-7.64 221.79-6.32 223.44-5 226.27-5L226.27-5Q228.52-5 229.88-5.68 231.23-6.35 231.77-6.74L231.77-6.74Q232.23-7.08 232.82-7.06L232.82-7.06Q233.28-7.06 234.15-6.87 235.01-6.69 235.87-6.2L235.87-6.2Q236.48-5.88 236.48-5.32L236.48-5.32Q236.48-5 236.36-4.42L236.36-4.42Q236.28-4.08 236.11-3.43 235.94-2.78 235.67-2.22L235.67-2.22Q235.53-1.95 235.21-1.71L235.21-1.71Q234.72-1.37 233.63-0.81 232.55-0.24 230.67 0.18 228.79 0.61 225.91 0.61ZM219.9-15.16L219.9-15.16 227.86-15.16Q229.11-15.16 229.11-16.31L229.11-16.31Q229.11-18.04 228.02-19.23 226.93-20.41 224.76-20.41L224.76-20.41Q222.39-20.41 221.28-18.9 220.17-17.38 219.9-15.16ZM249.93-1.83L244.83 0.51Q244.31 0.73 244.09 0.73L244.09 0.73Q243.87 0.73 243.63 0.56L243.63 0.56Q243.07 0.17 242.35-1.35 241.63-2.88 241.63-6.05L241.63-6.05 241.63-34.33Q241.63-34.91 241.87-35.23L241.87-35.23Q242.9-36.57 244.87-38.13L244.87-38.13Q245.22-38.38 245.49-38.38L245.49-38.38Q245.8-38.38 246.1-38.13L246.1-38.13Q247.15-37.33 247.87-36.62 248.59-35.91 249.1-35.23L249.1-35.23Q249.34-34.91 249.34-34.33L249.34-34.33 249.34-7.54Q249.34-5.93 249.61-4.8 249.88-3.66 250.25-2.98L250.25-2.98Q250.66-2.17 249.93-1.83L249.93-1.83Z" opacity="1" transform="matrix(1,0,0,1,0,0)" fill="#f9d110" class="wordmark-text-0" data-fill-palette-color="primary" id="text-0"></path></svg></g></svg></g></svg></g></svg></g><g transform="matrix(1,0,0,1,145.29186633935677,0)"><svg viewBox="0 0 104.93626732128642 104.93626732128641" height="104.93626732128641" width="104.93626732128642"><g><svg></svg></g><g id="icon-0"><svg viewBox="0 0 104.93626732128642 104.93626732128641" height="104.93626732128641" width="104.93626732128642"><g><path transform="scale(1.04936,1.04936)" d="M30 100c-16.569 0-30-13.431-30-30v-40c0-16.569 13.431-30 30-30h40c16.569 0 30 13.431 30 30v40c0 16.569-13.431 30-30 30z" fill="#f9d110" fill-rule="nonzero" stroke="none" stroke-width="1" stroke-linecap="butt" stroke-linejoin="miter" stroke-miterlimit="10" stroke-dasharray="" stroke-dashoffset="0" font-family="none" font-weight="none" font-size="none" text-anchor="none" style="mix-blend-mode: normal" data-fill-palette-color="accent"></path></g><g transform="matrix(1,0,0,1,24.764071447045218,20.987253464257282)"><svg viewBox="0 0 55.408124427195986 62.96176039277184" height="62.96176039277184" width="55.408124427195986"><g><svg xmlns="http://www.w3.org/2000/svg" xmlns:xlink="http://www.w3.org/1999/xlink" version="1.1" x="0" y="0" viewBox="13.352360290997312 7.453 75.65867136837888 85.97300824702194" enable-background="new 0 0 100 100" xml:space="preserve" height="62.96176039277184" width="55.408124427195986" class="icon-dxe-0" data-fill-palette-color="quaternary" id="dxe-0"><path d="M87.49 54.077C87.048 54.523 54.162 92.715 54.116 92.739L54.108 92.723C53.345 93.154 52.472 93.426 51.532 93.426A5.19 5.19 0 0 1 46.343 88.232C46.343 86.378 47.329 84.753 48.79 83.839L48.787 83.828 77.676 50.44 48.787 17.051 48.79 17.039A5.18 5.18 0 0 1 46.343 12.647 5.19 5.19 0 0 1 51.532 7.453C52.472 7.453 53.345 7.725 54.108 8.16L54.116 8.14C54.162 8.163 87.048 46.356 87.49 46.802A5.11 5.11 0 0 1 87.49 54.077" fill="#142336" data-fill-palette-color="quaternary"></path><path d="M54.502 54.077C54.061 54.523 21.174 92.715 21.129 92.739L21.117 92.723A5.2 5.2 0 0 1 18.545 93.426 5.183 5.183 0 0 1 15.803 83.839L15.799 83.828 44.689 50.44 15.799 17.052 15.803 17.04A5.18 5.18 0 0 1 13.356 12.648 5.19 5.19 0 0 1 18.545 7.454C19.485 7.454 20.357 7.726 21.117 8.161L21.129 8.141C21.174 8.164 54.061 46.357 54.502 46.803A5.11 5.11 0 0 1 54.502 54.077" fill="#142336" data-fill-palette-color="quaternary"></path></svg></g></svg></g></svg></g></svg></g><g></g></svg></g><defs></defs></svg><rect width="395.52" height="182.50333479173074" fill="none" stroke="none" visibility="hidden"></rect></g></svg></g></svg>