<?xml version="1.0" encoding="UTF-8"?>
<!DOCTYPE svg PUBLIC "-//W3C//DTD SVG 1.1//EN" "http://www.w3.org/Graphics/SVG/1.1/DTD/svg11.dtd">
<!-- Creator: CorelDRAW -->
<svg xmlns="http://www.w3.org/2000/svg" xml:space="preserve" width="1.70666in" height="1.70666in" version="1.1" style="shape-rendering:geometricPrecision; text-rendering:geometricPrecision; image-rendering:optimizeQuality; fill-rule:evenodd; clip-rule:evenodd"
viewBox="0 0 1707 1707"
 xmlns:xlink="http://www.w3.org/1999/xlink">
 <defs>
  <style type="text/css">
   <![CDATA[
    .fil0 {fill:black}
   ]]>
  </style>
 </defs>
 <g id="Layer_x0020_1">
  <metadata id="CorelCorpID_0Corel-Layer"/>
  <g id="_491722248">
   <g>
    <g>
     <path fill="#4587d5" d="M623 1602l-463 0c-14,0 -25,-11 -25,-25l0 -450c0,-14 11,-25 25,-25l462 0c14,0 25,11 25,25 0,13 -11,25 -25,25l-437 0 0 403 438 0c14,0 25,11 25,25 0,14 -12,22 -25,22z"/>
    </g>
    <g>
     <path fill="#4587d5" d="M1085 1602l-462 0c-14,0 -25,-11 -25,-25l0 -647c0,-14 11,-25 25,-25l462 0c14,0 25,11 25,25l0 647c0,14 -11,25 -25,25zm-438 -48l413 0 0 -599 -413 0 0 599z"/>
    </g>
    <g>
     <path fill="#4587d5" d="M1547 1602l-462 0c-14,0 -25,-11 -25,-25 0,-14 11,-25 25,-25l438 0 0 -319 -438 0c-14,0 -25,-11 -25,-25 0,-13 11,-25 25,-25l462 0c14,0 25,12 25,25l0 369c0,14 -11,25 -25,25z"/>
    </g>
    <g>
     <path fill="#4587d5" d="M853 1444c-14,0 -25,-11 -25,-25l0 -279c0,-13 11,-25 25,-25 14,0 25,12 25,25l0 279c0,14 -11,25 -25,25z"/>
    </g>
    <g>
     <path fill="#4587d5" d="M968 817c-13,0 -25,-11 -25,-25l0 -36c0,-8 0,-8 -11,-11 -16,-4 -26,-14 -26,-28l0 -169c0,-4 0,-7 0,-9 0,-23 3,-34 26,-42 3,-1 7,-3 13,-4 84,-36 140,-120 140,-211l0 -233 -463 0 0 232c0,90 54,173 137,210 7,3 13,5 17,6 26,8 27,23 27,44 0,3 0,7 0,11l0 163c0,2 0,7 -1,9 -7,16 -21,21 -29,24 -3,1 -7,3 -7,3l0 0c0,0 -1,1 -1,5l0 36c0,14 -12,25 -25,25 -14,0 -25,-11 -25,-25l0 -36c0,-40 27,-50 38,-54l0 -150c0,-4 0,-8 0,-11 -4,-1 -8,-2 -15,-5 -101,-46 -166,-146 -166,-255l0 -256c0,-13 11,-25 25,-25l512 0c13,0 24,12 24,25l0 256c0,111 -66,212 -169,256 -4,2 -7,3 -9,4 0,3 0,6 0,9l0 154c15,5 37,19 37,55l0 33c0,14 -11,25 -24,25z"/>
    </g>
    <g>
     <path fill="#4587d5" d="M1034 955l-357 0c-14,0 -25,-12 -25,-25l0 -99c0,-36 28,-64 64,-64l279 0c36,0 64,29 64,64l0 99c0,13 -12,25 -25,25zm-333 -49l309 0 0 -73c0,-9 -7,-16 -15,-16l-279 0c-8,0 -15,7 -15,16l0 73z"/>
    </g>
    <g>
     <path fill="#4587d5" d="M1163 308l-53 0c-14,0 -25,-11 -25,-25 0,-14 11,-25 25,-25l53 0c16,0 29,-12 29,-29l0 -130 -83 0c-14,0 -25,-11 -25,-25 0,-14 11,-24 25,-24l106 0c14,0 25,11 25,24l0 155c2,43 -34,79 -77,79z"/>
    </g>
    <g>
     <path fill="#4587d5" d="M598 308l-53 0c-43,0 -77,-34 -77,-77l0 -156c0,-14 11,-23 25,-23l105 0c14,0 25,11 25,23 0,13 -12,24 -25,24l-83 0 0 130c0,17 12,29 29,29l54 0c14,0 25,11 25,25 0,14 -12,25 -25,25z"/>
    </g>
    <g>
     <g>
      <path fill="#4587d5" d="M853 390c-14,0 -25,-11 -25,-25l0 -162 -19 19c-10,10 -25,10 -35,0 -9,-9 -9,-25 0,-34l63 -61c7,-7 18,-10 26,-6 10,4 15,13 15,22l0 222c0,14 -11,25 -25,25z"/>
     </g>
     <g>
      <path fill="#4587d5"  d="M917 390l-126 0c-14,0 -25,-11 -25,-25 0,-14 11,-25 25,-25l126 0c14,0 25,11 25,25 0,14 -11,25 -25,25z"/>
     </g>
    </g>
    <g>
     <path fill="#4587d5" d="M1652 1706l-1597 0c-14,0 -25,-11 -25,-25l0 -104c0,-14 11,-25 25,-25l1597 0c14,0 25,11 25,25l0 104c-1,14 -11,25 -25,25zm-1573 -48l1550 0 0 -56 -1550 0 0 56z"/>
    </g>
   </g>
  </g>
 </g>
</svg>
