<svg width="64" height="64" viewBox="0 0 64 64" fill="#f9d110" xmlns="http://www.w3.org/2000/svg">
<path d="M60 59H55.35V36.67C56.8769 36.4107 58.2632 35.6203 59.264 34.4383C60.2648 33.2563 60.8159 31.7588 60.82 30.21C60.82 30.11 60.82 30.01 60.82 29.91L55.34 12.26V4C55.34 3.73478 55.2346 3.48043 55.0471 3.29289C54.8596 3.10536 54.6052 3 54.34 3H9.66C9.39478 3 9.14043 3.10536 8.95289 3.29289C8.76536 3.48043 8.66 3.73478 8.66 4V12.26L3.22 29.91C3.22 30.01 3.22 30.11 3.22 30.21C3.22407 31.7588 3.77516 33.2563 4.776 34.4383C5.77684 35.6203 7.16307 36.4107 8.69 36.67V59H4C3.73478 59 3.48043 59.1054 3.29289 59.2929C3.10536 59.4804 3 59.7348 3 60C3 60.2652 3.10536 60.5196 3.29289 60.7071C3.48043 60.8946 3.73478 61 4 61H60C60.2652 61 60.5196 60.8946 60.7071 60.7071C60.8946 60.5196 61 60.2652 61 60C61 59.7348 60.8946 59.4804 60.7071 59.2929C60.5196 59.1054 60.2652 59 60 59ZM53.35 59H39.71V54.23H53.35V59ZM10.65 41H24.29V52.23H10.65V41ZM10.65 39V36.71C11.597 36.5796 12.5041 36.2434 13.3074 35.7252C14.1107 35.2069 14.7908 34.5191 15.3 33.71C15.8912 34.6521 16.712 35.4288 17.6853 35.9671C18.6586 36.5054 19.7527 36.7878 20.865 36.7878C21.9773 36.7878 23.0714 36.5054 24.0447 35.9671C25.018 35.4288 25.8388 34.6521 26.43 33.71C27.0225 34.652 27.8442 35.4284 28.8183 35.9666C29.7924 36.5047 30.8871 36.7869 32 36.7869C33.1129 36.7869 34.2076 36.5047 35.1817 35.9666C36.1558 35.4284 36.9775 34.652 37.57 33.71C38.1612 34.6521 38.982 35.4288 39.9553 35.9671C40.9286 36.5054 42.0227 36.7878 43.135 36.7878C44.2473 36.7878 45.3414 36.5054 46.3147 35.9671C47.288 35.4288 48.1088 34.6521 48.7 33.71C49.2092 34.5191 49.8893 35.2069 50.6926 35.7252C51.4959 36.2434 52.403 36.5796 53.35 36.71V39H10.65ZM44.58 13.41L45.42 18L47.49 29.23H38.49L37.49 13.43L44.58 13.41ZM47.58 31.21C47.3537 32.2214 46.7897 33.1256 45.9808 33.7735C45.1719 34.4214 44.1664 34.7745 43.13 34.7745C42.0936 34.7745 41.0881 34.4214 40.2792 33.7735C39.4703 33.1256 38.9063 32.2214 38.68 31.21H47.58ZM35.58 13.41L36.58 29.21H27.58L28.58 13.41H35.58ZM36.5 31.21C36.2737 32.2214 35.7097 33.1256 34.9008 33.7735C34.0919 34.4214 33.0864 34.7745 32.05 34.7745C31.0136 34.7745 30.0081 34.4214 29.1992 33.7735C28.3903 33.1256 27.8263 32.2214 27.6 31.21H36.5ZM25.5 29.21H16.5L18.58 18L19.42 13.43H26.42L25.5 29.21ZM25.32 31.21C25.0937 32.2214 24.5297 33.1256 23.7208 33.7735C22.9119 34.4214 21.9064 34.7745 20.87 34.7745C19.8336 34.7745 18.8281 34.4214 18.0192 33.7735C17.2103 33.1256 16.6463 32.2214 16.42 31.21H25.32ZM39.71 41H53.34V52.23H39.71V41ZM54.36 34.76H54.25C53.2172 34.7575 52.2159 34.4037 51.4108 33.7567C50.6057 33.1097 50.0447 32.2081 49.82 31.2H58.7C58.4788 32.1932 57.9311 33.0837 57.1444 33.729C56.3577 34.3744 55.3773 34.7374 54.36 34.76V34.76ZM49.53 29.21L46.61 13.41H53.61L58.47 29.21H49.53ZM10.66 5H53.34V11.41H10.66V5ZM10.39 13.41H17.39L14.47 29.21H5.53L10.39 13.41ZM5.3 31.21H14.18C13.9553 32.2181 13.3943 33.1197 12.5892 33.7667C11.7841 34.4137 10.7828 34.7675 9.75 34.77H9.64C8.62269 34.7474 7.64234 34.3844 6.8556 33.739C6.06886 33.0937 5.52115 32.2032 5.3 31.21V31.21ZM10.65 54.21H24.29V59H10.65V54.21ZM26.29 59V41H37.71V59H26.29Z" fill="#f9d110"/>
</svg>
