<?xml version="1.0" encoding="UTF-8"?>
<!DOCTYPE svg PUBLIC "-//W3C//DTD SVG 1.1//EN" "http://www.w3.org/Graphics/SVG/1.1/DTD/svg11.dtd">
<!-- Creator: CorelDRAW -->
<svg xmlns="http://www.w3.org/2000/svg" xml:space="preserve" width="7.11111in" height="7.11111in" version="1.1" style="shape-rendering:geometricPrecision; text-rendering:geometricPrecision; image-rendering:optimizeQuality; fill-rule:evenodd; clip-rule:evenodd"
viewBox="0 0 7111 7111"
 xmlns:xlink="http://www.w3.org/1999/xlink">
 <defs>
  <style type="text/css">
   <![CDATA[
    .fil0 {fill:#666666}
    .fil1 {fill:#E6F7DB}
   ]]>
  </style>
 </defs>
 <g id="Layer_x0020_1">
  <metadata id="CorelCorpID_0Corel-Layer"/>
  <path class="fil0" d="M5635 705l0 -64c0,-66 54,-120 120,-120 66,0 120,54 120,120l0 64 143 0c66,0 120,54 120,121 0,66 -54,120 -120,120l-405 0 0 285 405 0c66,0 120,53 120,120l0 525c0,66 -54,120 -120,120l-143 0 0 64c0,66 -54,120 -120,120 -66,0 -120,-54 -120,-120l0 -64 -142 0c-67,0 -120,-54 -120,-120 0,-67 53,-120 120,-120l405 0 0 -285 -405 0c-67,0 -120,-54 -120,-120l0 -525c0,-67 53,-121 120,-121l142 0zm-3590 3591c-1124,-63 -2019,-997 -2019,-2136 0,-1180 959,-2140 2139,-2140 1179,0 2139,960 2139,2140 0,1139 -895,2073 -2019,2136l0 523 336 0c66,0 120,54 120,120l0 2032c0,66 -54,120 -120,120l-912 0c-66,0 -120,-54 -120,-120l0 -2032c0,-66 54,-120 120,-120l336 0 0 -523zm120 -4035c-1047,0 -1899,852 -1899,1899 0,1047 852,1899 1899,1899 1047,0 1899,-852 1899,-1899 0,-1047 -852,-1899 -1899,-1899zm-1209 3084c-300,-305 -485,-724 -485,-1185 0,-934 760,-1694 1694,-1694 934,0 1694,760 1694,1694 0,936 -761,1694 -1694,1694 -452,0 -878,-176 -1199,-497 -3,-4 -7,-7 -10,-12zm1209 -2639c-802,0 -1454,652 -1454,1454 0,359 131,688 347,942 634,-549 1579,-549 2213,0 217,-254 348,-583 348,-942 0,-802 -652,-1454 -1454,-1454zm-936 2566c541,456 1331,456 1872,0 -540,-455 -1333,-455 -1872,0zm600 3579l672 0 0 -1792 -672 0 0 1792zm4772 -2076l-728 0c-66,0 -120,-54 -120,-121l0 -647 -244 0c-105,0 -160,-126 -87,-203l728 -767c47,-50 127,-50 174,0l724 763c23,22 38,53 38,87 0,71 -64,124 -121,120l-244 0 0 648c0,66 -54,120 -120,120zm-608 -241l488 0 0 -647c0,-66 54,-120 120,-120l85 0 -449 -473 -449 473 85 0c66,0 120,54 120,120l0 647zm-3828 -2061c-394,0 -714,-321 -714,-714 0,-394 320,-714 714,-714 393,0 714,320 714,714 0,393 -321,714 -714,714zm0 -1188c-261,0 -474,213 -474,474 0,261 213,473 474,473 261,0 473,-212 473,-473 0,-261 -212,-474 -473,-474zm3590 1396c-733,0 -1330,-597 -1330,-1330 0,-734 597,-1331 1330,-1331 734,0 1330,597 1330,1331 0,733 -596,1330 -1330,1330zm0 -2420c-601,0 -1090,489 -1090,1090 0,601 489,1090 1090,1090 601,0 1090,-489 1090,-1090 0,-601 -489,-1090 -1090,-1090zm1210 6830l-3647 0c-66,0 -120,-54 -120,-120 0,-67 54,-120 120,-120l57 0 0 -2528c0,-66 54,-120 120,-120l709 0c66,0 120,54 120,120l0 2528 343 0 0 -1943c0,-66 54,-120 120,-120l709 0c66,0 120,54 120,120l0 1943 343 0 0 -1459c0,-66 54,-120 121,-120l708 0c66,0 120,54 120,120l0 1459 57 0c67,0 120,53 120,120 0,66 -53,120 -120,120zm-3350 -240l469 0 0 -2408 -469 0 0 2408zm1293 0l468 0 0 -1823 -468 0 0 1823zm1292 0l468 0 0 -1339 -468 0 0 1339z"/>
  <path class="fil1" d="M2638 1759c0,-261 -212,-474 -473,-474 -261,0 -474,213 -474,474 0,261 213,473 474,473 261,0 473,-212 473,-473z"/>
  <path class="fil1" d="M3101 3272c-540,-455 -1333,-455 -1872,0 541,456 1331,456 1872,0z"/>
  <path class="fil1" d="M3859 2160c0,936 -761,1694 -1694,1694 -452,0 -878,-176 -1199,-497 -3,-4 -7,-7 -10,-12 -300,-305 -485,-724 -485,-1185 0,-934 760,-1694 1694,-1694 934,0 1694,760 1694,1694zm-1694 1899c1047,0 1899,-852 1899,-1899 0,-1047 -852,-1899 -1899,-1899 -1047,0 -1899,852 -1899,1899 0,1047 852,1899 1899,1899z"/>
  <path class="fil1" d="M4665 1351c0,601 489,1090 1090,1090 601,0 1090,-489 1090,-1090 0,-601 -489,-1090 -1090,-1090 -601,0 -1090,489 -1090,1090zm708 0l0 -525c0,-67 53,-121 120,-121l142 0 0 -64c0,-66 54,-120 120,-120 66,0 120,54 120,120l0 64 143 0c66,0 120,54 120,121 0,66 -54,120 -120,120l-405 0 0 285 405 0c66,0 120,53 120,120l0 525c0,66 -54,120 -120,120l-143 0 0 64c0,66 -54,120 -120,120 -66,0 -120,-54 -120,-120l0 -64 -142 0c-67,0 -120,-54 -120,-120 0,-67 53,-120 120,-120l405 0 0 -285 -405 0c-67,0 -120,-54 -120,-120z"/>
  <path class="fil1" d="M6237 3294l-449 473 85 0c66,0 120,54 120,120l0 647 488 0 0 -647c0,-66 54,-120 120,-120l85 0 -449 -473z"/>
  <polygon class="fil1" points="6668,5512 6200,5512 6200,6851 6668,6851 "/>
  <polygon class="fil1" points="2501,6851 2501,5059 1829,5059 1829,6851 "/>
 </g>
</svg>
