<?xml version="1.0" encoding="UTF-8" standalone="no"?> <svg id="_1-10" data-name="1-10" xmlns="http://www.w3.org/2000/svg" viewBox="0 0 32 32"><title>Strategy</title><g id="Strategy"><path d="M22,3H10A4.859,4.859,0,0,0,5,7.692V24.308A4.859,4.859,0,0,0,10,29H22a4.859,4.859,0,0,0,5-4.692V7.692A4.859,4.859,0,0,0,22,3Zm3,21.308A2.862,2.862,0,0,1,22,27H10a2.862,2.862,0,0,1-3-2.692V7.692A2.862,2.862,0,0,1,10,5H22a2.862,2.862,0,0,1,3,2.692Z"/><path d="M20.707,7.293a1,1,0,0,0-1.414,0l-2,2a1,1,0,0,0,1.414,1.414L19,10.414V12a3,3,0,0,1-3,3,5,5,0,0,0-4.915,4.158,2.985,2.985,0,1,0,2.031.062A3,3,0,0,1,16,17a5.006,5.006,0,0,0,5-5V10.414l.293.293a1,1,0,0,0,1.414-1.414ZM12,23a1,1,0,1,1,1-1A1,1,0,0,1,12,23Z"/><path d="M22.457,19.543a1,1,0,0,0-1.414,0L20,20.586l-1.043-1.043a1,1,0,0,0-1.414,1.414L18.586,22l-1.043,1.043a1,1,0,1,0,1.414,1.414L20,23.414l1.043,1.043a1,1,0,0,0,1.414-1.414L21.414,22l1.043-1.043A1,1,0,0,0,22.457,19.543Z"/><path d="M9.543,12.457a1,1,0,0,0,1.414,0L12,11.414l1.043,1.043a1,1,0,0,0,1.414-1.414L13.414,10l1.043-1.043a1,1,0,1,0-1.414-1.414L12,8.586,10.957,7.543A1,1,0,1,0,9.543,8.957L10.586,10,9.543,11.043A1,1,0,0,0,9.543,12.457Z"/></g></svg>