<?xml version="1.0" encoding="UTF-8"?>
<!DOCTYPE svg PUBLIC "-//W3C//DTD SVG 1.1//EN" "http://www.w3.org/Graphics/SVG/1.1/DTD/svg11.dtd">
<!-- Creator: CorelDRAW -->
<svg xmlns="http://www.w3.org/2000/svg" xml:space="preserve" width="7.11111in" height="7.11111in" version="1.1" style="shape-rendering:geometricPrecision; text-rendering:geometricPrecision; image-rendering:optimizeQuality; fill-rule:evenodd; clip-rule:evenodd"
viewBox="0 0 7111 7111"
 xmlns:xlink="http://www.w3.org/1999/xlink">
 <defs>
  <style type="text/css">
   <![CDATA[
    .fil0 {fill:black}
   ]]>
  </style>
 </defs>
 <g id="Layer_x0020_1">
  <metadata id="CorelCorpID_0Corel-Layer"/>
  <path class="fil0" d="M2188 6494l-637 0 -28 352 665 0 0 -352zm-268 -4473c-17,0 -34,-4 -50,-11l-997 -459 -508 0c-66,0 -120,-54 -120,-120l0 -1286c0,-66 54,-120 120,-120l2089 0c66,0 120,54 120,120l0 1286c0,66 -54,120 -120,120l-414 0 0 350c0,65 -55,120 -120,120zm-1435 -710l414 0c18,0 35,4 50,11l851 391 0 -282c0,-66 54,-120 120,-120l414 0 0 -1046 -1849 0 0 1046zm660 3104l-401 0c-63,0 -115,-48 -120,-111l-138 -1796c-5,-69 51,-130 120,-130l677 0c69,0 125,61 119,130l-138 1796c-5,63 -57,111 -119,111zm-290 -240l178 0 120 -1556 -418 0 120 1556zm290 1056l-401 0c-67,0 -120,-54 -120,-120l0 -433c0,-66 53,-120 120,-120l401 0c66,0 120,54 120,120l0 433c0,66 -54,120 -120,120zm-281 -240l161 0 0 -193 -161 0 0 193zm5744 -2031l-401 0c-63,0 -115,-48 -120,-111l-138 -1796c-5,-69 51,-130 120,-130l677 0c69,0 125,61 119,130l-138 1796c-5,63 -57,111 -119,111zm-290 -240l178 0 120 -1556 -418 0 120 1556zm290 1056l-401 0c-67,0 -120,-54 -120,-120l0 -433c0,-66 53,-120 120,-120l401 0c66,0 120,54 120,120l0 433c0,66 -54,120 -120,120zm-281 -240l160 0 0 -193 -160 0 0 193zm-5383 -2628l-149 0c-67,0 -120,-54 -120,-120 0,-66 53,-120 120,-120l149 0c66,0 120,54 120,120 0,66 -54,120 -120,120zm546 0l-149 0c-66,0 -120,-54 -120,-120 0,-66 54,-120 120,-120l149 0c67,0 121,54 121,120 0,66 -54,120 -121,120zm547 0l-150 0c-66,0 -120,-54 -120,-120 0,-66 54,-120 120,-120l150 0c66,0 120,54 120,120 0,66 -54,120 -120,120zm3140 2821l-419 0c-56,123 -137,261 -255,403l141 601 1023 246c408,96 471,399 473,426l124 1551c6,69 -50,130 -119,130l-4752 0c-69,0 -126,-61 -120,-130l125 -1551c2,-27 64,-330 473,-426l1022 -246 141 -601c-12,-15 -24,-30 -36,-45l-384 0c-66,0 -120,-54 -120,-120l0 -238 -134 0c-66,0 -120,-54 -120,-120l0 -683c0,-66 54,-120 120,-120l148 0c-124,-520 -15,-958 320,-1238 104,-88 377,-299 666,-376 451,-122 1012,-77 1296,264 157,189 111,321 265,506 192,228 140,544 33,844l89 0c66,0 120,54 120,120l0 683c0,66 -54,120 -120,120zm-613 -155c2,-6 4,-12 7,-18 59,-152 69,-261 71,-291 -94,-623 -329,-958 -504,-958 -42,0 -86,20 -129,60 -167,155 -326,230 -486,230 -108,0 -194,-34 -256,-59 -19,-8 -42,-17 -57,-21 -9,14 -27,49 -49,131 -49,184 -133,432 -259,606 8,91 48,331 220,593l596 0c67,0 121,53 121,120 0,66 -54,120 -121,120l-380 0c103,81 264,180 428,176l15 0c259,0 508,-253 530,-276 126,-150 204,-294 253,-413zm281 -85l212 0 0 -443 -67 0 -109 241c-3,37 -11,108 -36,202zm-2060 240l-51 0 0 118 108 0c-21,-41 -40,-80 -57,-118zm-205 -683l-100 0 0 443 221 0c-30,-114 -39,-202 -41,-244 -30,-67 -57,-134 -80,-199zm-1010 3208l618 0 0 -106c0,-67 54,-120 120,-120 66,0 120,53 120,120l0 698 2681 0 0 -698c0,-67 54,-120 120,-120 66,0 120,53 120,120l0 106 618 0 -66 -820c-9,-30 -64,-170 -289,-221l-1039 -250 -731 569c-43,34 -104,34 -147,0l-730 -569 -1039 249c-226,52 -281,192 -290,222l-66 820zm1557 -1469l642 501 641 -501 -111 -473c-358,256 -704,255 -1060,0l-112 473zm2222 2061l665 0 -28 -352 -637 0 0 352zm-1393 -5476c-132,0 -270,18 -400,54 -243,65 -482,251 -574,328 -388,325 -300,852 -181,1198 47,-101 91,-225 128,-364 27,-101 83,-312 270,-312 199,0 304,234 647,-83 88,-81 189,-124 292,-124 282,0 528,305 666,804 121,-285 211,-584 68,-755 -184,-218 -150,-366 -266,-506 -129,-155 -360,-240 -650,-240zm-176 4777c-66,0 -120,-54 -120,-120l0 -156c0,-66 54,-120 120,-120 66,0 120,54 120,120l0 156c0,66 -54,120 -120,120zm0 513c-66,0 -120,-53 -120,-120l0 -156c0,-66 54,-120 120,-120 66,0 120,54 120,120l0 156c0,67 -54,120 -120,120z"/>
 </g>
</svg>
