<?xml version="1.0" encoding="UTF-8"?>
<!DOCTYPE svg PUBLIC "-//W3C//DTD SVG 1.1//EN" "http://www.w3.org/Graphics/SVG/1.1/DTD/svg11.dtd">
<!-- Creator: CorelDRAW -->
<svg xmlns="http://www.w3.org/2000/svg" xml:space="preserve" width="1.70666in" height="1.70666in" version="1.1" style="shape-rendering:geometricPrecision; text-rendering:geometricPrecision; image-rendering:optimizeQuality; fill-rule:evenodd; clip-rule:evenodd"
viewBox="0 0 1707 1707"
 xmlns:xlink="http://www.w3.org/1999/xlink">
 <defs>
  <style type="text/css">
   <![CDATA[
    .fil0 {fill:black}
   ]]>
  </style>
 </defs>
 <g id="Layer_x0020_1">
  <metadata id="CorelCorpID_0Corel-Layer"/>
  <g id="_518224976">
   <g>
    <g>
     <g>
      <g>
       <path class="fil0" d="M396 1081c-13,0 -24,-10 -24,-23 0,-13 11,-23 24,-23 16,0 29,-14 29,-30 0,-16 -13,-29 -29,-29l-30 0 0 82c0,13 -10,23 -23,23 -13,0 -23,-10 -23,-23l0 -105c0,-13 10,-23 23,-23l53 0c42,0 76,34 76,75 0,42 -34,76 -76,76z"/>
      </g>
      <g>
       <path class="fil0" d="M396 1186l-53 0c-13,0 -23,-10 -23,-23l0 -105c0,-13 10,-23 23,-23l53 0c42,0 76,34 76,76 0,41 -34,75 -76,75zm-30 -46l30 0c16,0 29,-13 29,-29 0,-16 -13,-30 -29,-30l-30 0 0 59z"/>
      </g>
     </g>
     <g>
      <g>
       <path class="fil0" d="M534 1186c-13,0 -23,-10 -23,-23l0 -210c0,-13 10,-23 23,-23 13,0 24,10 24,23l0 210c0,13 -11,23 -24,23z"/>
      </g>
      <g>
       <path class="fil0" d="M610 1095l-75 0c-13,0 -24,-10 -24,-23 0,-13 11,-23 24,-23l75 0c20,0 36,-16 36,-37 0,-20 -16,-36 -36,-36l-75 0c-13,0 -24,-10 -24,-23 0,-13 11,-23 24,-23l75 0c46,0 83,37 83,82 0,46 -37,83 -83,83z"/>
      </g>
      <g>
       <path class="fil0" d="M644 1187c-10,0 -19,-6 -22,-16l-34 -91c-4,-12 2,-25 14,-30 12,-4 26,2 30,14l34 91c4,12 -2,26 -14,30 -3,1 -6,2 -8,2z"/>
      </g>
     </g>
     <g>
      <g>
       <path class="fil0" d="M886 1186c-13,0 -23,-10 -23,-23l0 -145c0,-23 -19,-42 -42,-42 -23,0 -42,19 -42,42l0 145c0,13 -10,24 -23,24 -13,0 -24,-11 -24,-24l0 -145c0,-49 40,-88 89,-88 49,0 88,39 88,88l0 145c0,13 -10,23 -23,23z"/>
      </g>
      <g>
       <path class="fil0" d="M886 1114l-130 0c-13,0 -23,-10 -23,-23 0,-13 10,-24 23,-24l130 0c13,0 23,11 23,24 0,13 -10,23 -23,23z"/>
      </g>
     </g>
     <g>
      <path class="fil0" d="M1125 1186c-8,0 -15,-3 -19,-9l-111 -152 0 138c0,13 -10,23 -23,23 -13,0 -23,-10 -23,-23l0 -209c0,-10 6,-19 16,-22 9,-3 20,0 26,8l110 152 0 -138c0,-13 11,-23 24,-23 13,0 23,10 23,23l0 209c0,10 -6,19 -16,22 -2,1 -5,1 -7,1z"/>
     </g>
     <g>
      <path class="fil0" d="M1287 1186l-76 0c-13,0 -23,-10 -23,-23l0 -209c0,-13 10,-23 23,-23l76 0c55,0 100,44 100,99l0 57c0,55 -45,99 -100,99zm-53 -46l53 0c30,0 53,-24 53,-53l0 -56c0,-30 -23,-53 -53,-53l-53 0 0 162z"/>
     </g>
    </g>
    <g>
     <path class="fil0" d="M1404 1263l-1101 0c-51,0 -92,-41 -92,-92l0 -226c0,-51 41,-92 92,-92l1101 0c51,0 92,41 92,92l0 226c0,51 -41,92 -92,92zm-1101 -364c-25,0 -45,21 -45,46l0 226c0,25 20,46 45,46l1101 0c25,0 45,-21 45,-46l0 -226c0,-25 -20,-46 -45,-46l-1101 0 0 0z"/>
    </g>
    <g>
     <path class="fil0" d="M388 1401l-296 0c-51,0 -92,-41 -92,-92l0 -227c0,-50 41,-92 92,-92l142 0c13,0 23,11 23,24l0 157c0,25 21,46 46,46l153 0c13,0 24,10 24,23l0 69c0,51 -42,92 -92,92zm-296 -364c-25,0 -45,20 -45,45l0 227c0,25 20,45 45,45l296 0c25,0 45,-20 45,-45l0 -46 -130 0c-51,0 -92,-41 -92,-92l0 -134 -119 0z"/>
    </g>
    <g>
     <path class="fil0" d="M1615 1401l-296 0c-51,0 -92,-41 -92,-92l0 -69c0,-13 11,-23 23,-23l154 0c25,0 45,-21 45,-46l0 -157c0,-13 11,-24 24,-24l142 0c50,0 92,42 92,92l0 227c0,51 -42,92 -92,92zm-341 -138l0 46c0,25 20,45 45,45l296 0c25,0 45,-20 45,-45l0 -227c0,-25 -20,-45 -45,-45l-119 0 0 134c0,51 -41,92 -92,92l-130 0z"/>
    </g>
    <g>
     <path class="fil0" d="M734 794c-13,0 -25,-4 -35,-12 -19,-13 -29,-36 -24,-59l20 -102 -76 -71c-17,-16 -23,-40 -16,-62 7,-23 26,-38 49,-41l103 -13 44 -94c10,-21 31,-34 54,-34 24,0 45,13 55,34l43 94 104 13c23,3 42,18 49,41 7,22 1,46 -16,62l-76 71 20 102c4,23 -5,45 -24,59 -19,14 -43,16 -64,4l-91 -50 -90 50c-10,5 -20,8 -29,8zm119 -442c-5,0 -9,3 -11,8l-50 106c-3,7 -10,12 -18,13l-116 14c-5,1 -9,4 -11,9 -2,5 0,10 4,14l85 79c6,6 8,14 7,22l-22 114c-1,6 0,10 5,14 4,3 9,3 14,0l102 -56c7,-4 15,-4 23,0l102 56c4,3 9,3 14,0 4,-4 6,-8 5,-14l-22 -114c-2,-8 1,-16 6,-22l86 -79c4,-4 5,-9 3,-14 -1,-5 -5,-8 -11,-9l-115 -14c-8,-1 -15,-6 -19,-14l-49 -105c-2,-5 -6,-8 -12,-8z"/>
    </g>
    <g>
     <path class="fil0" d="M1200 787c-10,0 -19,-3 -27,-9 -15,-10 -21,-28 -18,-45l11 -57 -42 -39c-13,-12 -18,-30 -13,-47 6,-17 20,-29 38,-31l57 -7 25 -53c7,-16 23,-26 41,-26 18,0 33,10 41,26l24 53 58 7c17,2 32,14 37,31 6,17 1,35 -12,47l-42 39 11 57c3,17 -4,35 -18,45 -15,11 -33,12 -49,3l-50 -28 -51 28c-6,4 -14,6 -21,6zm72 -84c4,0 8,1 11,3l60 33 -13 -67c-2,-7 1,-16 7,-21l49 -46 -67 -9c-8,-1 -15,-6 -19,-13l-28 -61 -29 61c-3,7 -10,12 -18,13l-68 9 50 46c6,5 8,14 7,21l-13 67 59 -33c4,-2 8,-3 12,-3zm117 -98l0 0 0 0z"/>
    </g>
    <g>
     <path class="fil0" d="M362 787c-9,0 -18,-3 -26,-9 -15,-10 -21,-28 -18,-45l11 -57 -42 -39c-13,-12 -18,-30 -13,-47 6,-17 20,-29 38,-31l57 -7 25 -53c7,-16 23,-26 41,-26 18,0 33,10 41,26l24 53 58 7c17,2 32,14 37,31 6,17 1,35 -12,47l-42 39 11 57c3,17 -4,35 -18,45 -15,11 -33,12 -49,3l-50 -28 -51 28c-7,4 -14,6 -22,6zm73 -84c4,0 8,1 11,3l59 33 -13 -67c-1,-7 2,-16 7,-21l50 -46 -67 -9c-8,-1 -15,-6 -19,-13l-28 -61 -29 61c-4,7 -11,12 -19,13l-67 9 50 46c5,5 8,14 7,21l-13 67 59 -33c4,-2 8,-3 12,-3zm117 -98l0 0 0 0z"/>
    </g>
   </g>
  </g>
 </g>
</svg>
