<?xml version="1.0" encoding="UTF-8" standalone="no"?> <svg width="64" height="64" viewBox="0 0 64 64" fill="none" xmlns="http://www.w3.org/2000/svg">
<path d="M26.962 13.99L31.111 14.145L40.9 23.92L40.6 25.656C40.5685 25.8399 40.5891 26.029 40.6594 26.2018C40.7297 26.3746 40.847 26.5243 40.9979 26.634C41.1489 26.7436 41.3275 26.8088 41.5136 26.8223C41.6997 26.8357 41.8859 26.7968 42.051 26.71L43.124 26.146L51.073 34.1C51.2616 34.2822 51.5142 34.383 51.7764 34.3807C52.0386 34.3784 52.2894 34.2732 52.4748 34.0878C52.6602 33.9024 52.7654 33.6516 52.7677 33.3894C52.77 33.1272 52.6692 32.8746 52.487 32.686L44.976 25.175L49 23.056L55.951 26.71C56.1161 26.7963 56.302 26.8347 56.4878 26.821C56.6735 26.8073 56.8518 26.742 57.0024 26.6324C57.153 26.5229 57.2701 26.3734 57.3403 26.2009C57.4106 26.0283 57.4313 25.8396 57.4 25.656L56.073 17.916L61.7 12.435C61.8337 12.3048 61.9283 12.1398 61.9731 11.9586C62.0179 11.7774 62.011 11.5873 61.9534 11.4098C61.8958 11.2323 61.7896 11.0744 61.6469 10.9541C61.5042 10.8338 61.3307 10.7558 61.146 10.729L52.854 9.52901C52.7233 9.50832 52.5897 9.5138 52.4611 9.54512C52.3325 9.57644 52.2114 9.63298 52.1048 9.71146C51.9982 9.78994 51.9083 9.88881 51.8402 10.0023C51.7721 10.1158 51.7272 10.2417 51.7082 10.3727C51.6891 10.5037 51.6962 10.6372 51.7291 10.7654C51.7621 10.8936 51.8201 11.014 51.8999 11.1196C51.9797 11.2252 52.0797 11.3139 52.194 11.3806C52.3084 11.4473 52.4348 11.4906 52.566 11.508L55.498 11.934L50 13.163V7.28501L50.281 7.85401C50.4018 8.08583 50.6086 8.26112 50.8571 8.34234C51.1056 8.42356 51.376 8.40425 51.6104 8.28855C51.8448 8.17284 52.0246 7.96994 52.1113 7.72331C52.1979 7.47667 52.1845 7.20591 52.074 6.96901L49.9 2.55801C49.808 2.4021 49.6769 2.27288 49.5197 2.18311C49.3625 2.09334 49.1846 2.04613 49.0035 2.04613C48.8225 2.04613 48.6446 2.09334 48.4873 2.18311C48.3301 2.27288 48.199 2.4021 48.107 2.55801L44.628 9.60001L36.856 10.729C36.6713 10.7558 36.4978 10.8338 36.3551 10.9541C36.2124 11.0744 36.1063 11.2323 36.0486 11.4098C35.991 11.5873 35.9842 11.7774 36.0289 11.9586C36.0737 12.1398 36.1683 12.3048 36.302 12.435L41.925 17.916L41.309 21.507L32.247 12.453C32.0688 12.2749 31.8298 12.1706 31.578 12.161L27.038 11.991C26.9063 11.9843 26.7745 12.004 26.6506 12.049C26.5266 12.094 26.4129 12.1634 26.3161 12.2531C26.2194 12.3427 26.1416 12.4509 26.0873 12.5711C26.033 12.6913 26.0033 12.8211 26 12.953C25.9951 13.0843 26.016 13.2152 26.0617 13.3384C26.1074 13.4615 26.1768 13.5745 26.2662 13.6708C26.3555 13.7671 26.4629 13.8449 26.5823 13.8996C26.7017 13.9544 26.8307 13.9851 26.962 13.99ZM48.535 21.041L44.51 23.157L49 16.248L53.49 23.157L49.465 21.041C49.3216 20.9657 49.162 20.9263 49 20.9263C48.838 20.9263 48.6784 20.9657 48.535 21.041ZM54.014 17.741L54.614 21.216L50.626 15.078L57.776 13.473L54.3 16.851C54.1842 16.9643 54.0977 17.1041 54.0479 17.2582C53.998 17.4124 53.9864 17.5764 54.014 17.736V17.741ZM45.435 11.5C45.5956 11.4769 45.7482 11.415 45.8796 11.3197C46.011 11.2244 46.1171 11.0985 46.189 10.953L48 7.28601V13.163L42.5 11.929L45.435 11.5ZM40.227 13.465L47.378 15.07L43.39 21.211L43.99 17.736C44.0173 17.5762 44.0054 17.4121 43.9552 17.258C43.9051 17.1038 43.8182 16.9641 43.702 16.851L40.227 13.465Z" fill="black"/>
<path d="M55.317 35.513C55.1295 35.3251 54.875 35.2194 54.6096 35.2191C54.3441 35.2188 54.0894 35.324 53.9015 35.5115C53.7136 35.699 53.6079 35.9535 53.6076 36.2189C53.6073 36.4844 53.7125 36.7391 53.9 36.927L59.118 42.145C59.6788 42.7096 59.9936 43.4732 59.9936 44.269C59.9936 45.0648 59.6788 45.8284 59.118 46.393L46.388 59.123C45.8237 59.6837 45.0605 59.9984 44.265 59.9984C43.4695 59.9984 42.7063 59.6837 42.142 59.123L30.556 47.523L34.7 43.5C34.8337 43.3698 34.9283 43.2047 34.9731 43.0236C35.0179 42.8424 35.011 42.6523 34.9534 42.4748C34.8958 42.2973 34.7896 42.1394 34.6469 42.0191C34.5042 41.8988 34.3307 41.8208 34.146 41.794L23.956 40.313L19.4 31.075C19.3081 30.9189 19.1769 30.7894 19.0196 30.6995C18.8623 30.6096 18.6842 30.5623 18.503 30.5623C18.3218 30.5623 18.1437 30.6096 17.9864 30.6995C17.8291 30.7894 17.698 30.9189 17.606 31.075L16.451 33.414L14.151 31.114L13.762 20.643C14.3138 20.8019 14.8793 20.909 15.451 20.963C15.7722 21.4682 16.2027 21.8948 16.7108 22.2114C17.2189 22.5281 17.7915 22.7266 18.3865 22.7925C18.9816 22.8583 19.5838 22.7897 20.1488 22.5918C20.7138 22.3939 21.2271 22.0717 21.651 21.649C22.1182 21.1835 22.4631 20.6097 22.655 19.9787C22.8468 19.3476 22.8796 18.679 22.7505 18.0322C22.6213 17.3854 22.3343 16.7806 21.9148 16.2716C21.4954 15.7626 20.9566 15.3652 20.3465 15.1148C19.7363 14.8644 19.0737 14.7688 18.4176 14.8364C17.7616 14.904 17.1324 15.1329 16.5862 15.5025C16.0399 15.8721 15.5936 16.3711 15.2868 16.9549C14.9801 17.5388 14.8224 18.1895 14.828 18.849C14.4399 18.7652 14.0578 18.6559 13.684 18.522L13.497 13.491L22.98 13.841C23.1119 13.8487 23.2439 13.8297 23.3682 13.785C23.4925 13.7403 23.6065 13.671 23.7033 13.5811C23.8001 13.4912 23.8777 13.3827 23.9314 13.262C23.9852 13.1414 24.0139 13.0111 24.016 12.879C24.021 12.7477 24 12.6168 23.9543 12.4936C23.9087 12.3705 23.8392 12.2575 23.7498 12.1612C23.6605 12.0649 23.5531 11.9872 23.4337 11.9324C23.3143 11.8776 23.1853 11.8469 23.054 11.842L19.862 11.725C18.9637 9.86619 17.7535 8.17505 16.284 6.725C14.3731 4.73783 12.0049 3.24851 9.38601 2.387C6.84201 1.639 4.69101 1.974 3.33301 3.333C1.97501 4.692 1.63301 6.841 2.38701 9.386C3.24896 12.0021 4.73752 14.3678 6.72301 16.277C8.17341 17.7466 9.86445 18.9574 11.723 19.857L12.159 31.577C12.1676 31.8293 12.272 32.0689 12.451 32.247L15.512 35.308L13.044 40.308L2.85601 41.789C2.67011 41.8148 2.49523 41.8924 2.35136 42.0129C2.20748 42.1334 2.10042 42.292 2.04242 42.4705C1.98442 42.649 1.97782 42.8402 2.02337 43.0222C2.06892 43.2043 2.16479 43.3699 2.30001 43.5L7.67901 48.744C7.86903 48.9297 8.12503 49.0322 8.39067 49.0291C8.65632 49.026 8.90986 48.9175 9.09551 48.7275C9.28116 48.5375 9.38372 48.2815 9.38062 48.0158C9.37753 47.7502 9.26904 47.4967 9.07901 47.311L6.22701 44.528L16.878 46.919L10.726 56.386L11.736 50.502C11.7808 50.2405 11.7199 49.9719 11.5667 49.7553C11.4135 49.5387 11.1805 49.3918 10.919 49.347C10.6575 49.3022 10.3889 49.3631 10.1723 49.5163C9.9557 49.6695 9.80883 49.9025 9.76401 50.164L7.93501 60.831C7.9035 61.0149 7.92407 61.204 7.99439 61.3768C8.06471 61.5496 8.18198 61.6993 8.33294 61.809C8.48389 61.9186 8.66252 61.9838 8.84862 61.9973C9.03471 62.0107 9.22086 61.9718 9.38601 61.885L18.5 57.094L27.614 61.885C27.7792 61.9718 27.9653 62.0107 28.1514 61.9973C28.3375 61.9838 28.5161 61.9186 28.6671 61.809C28.818 61.6993 28.9353 61.5496 29.0056 61.3768C29.076 61.204 29.0965 61.0149 29.065 60.831L27.325 50.682L29.125 48.924L40.735 60.54C41.6751 61.4736 42.9461 61.9975 44.271 61.9975C45.5959 61.9975 46.867 61.4736 47.807 60.54L60.537 47.81C61.4712 46.8699 61.9955 45.5983 61.9955 44.273C61.9955 42.9477 61.4712 41.6761 60.537 40.736L55.317 35.513ZM20.23 20.23C19.9525 20.5073 19.5996 20.6969 19.2152 20.7751C18.8307 20.8533 18.4318 20.8168 18.068 20.67C18.6686 20.4593 19.2141 20.1162 19.6641 19.6661C20.1142 19.2161 20.4573 18.6706 20.668 18.07C20.8146 18.4334 20.8512 18.8318 20.7734 19.2158C20.6955 19.5998 20.5066 19.9525 20.23 20.23V20.23ZM17.4 17.4C17.5855 17.2141 17.806 17.0668 18.0486 16.9664C18.2913 16.866 18.5514 16.8145 18.814 16.815C18.854 16.815 18.893 16.824 18.933 16.827C18.8738 17.3654 18.6329 17.8676 18.2501 18.2508C17.8673 18.634 17.3654 18.8753 16.827 18.935C16.8079 18.6531 16.8491 18.3704 16.9479 18.1057C17.0467 17.841 17.2009 17.6004 17.4 17.4ZM8.13701 14.863C6.38769 13.1909 5.07268 11.1173 4.30601 8.822C3.78101 7.038 3.94201 5.553 4.74701 4.747C5.55201 3.941 7.03801 3.781 8.82201 4.306C11.1173 5.07267 13.1909 6.38769 14.863 8.137C15.9107 9.18187 16.8183 10.3584 17.563 11.637L12.484 11.45C12.3465 11.4439 12.2092 11.4667 12.081 11.517C11.9528 11.5673 11.8367 11.6439 11.74 11.742C11.6428 11.8393 11.5667 11.9555 11.5164 12.0836C11.4662 12.2116 11.4429 12.3486 11.448 12.486L11.637 17.566C10.3581 16.8205 9.18161 15.9119 8.13701 14.863V14.863ZM23.146 42.212L28.497 42.989L19.497 45.009V35.8L22.39 41.662C22.4617 41.8083 22.568 41.9349 22.6998 42.0308C22.8315 42.1266 22.9847 42.1889 23.146 42.212ZM8.50001 42.99L13.851 42.212C14.0115 42.1887 14.1638 42.1267 14.295 42.0314C14.4262 41.9362 14.5322 41.8104 14.604 41.665L17.5 35.8V45.01L8.50001 42.99ZM18.032 55.079L11.844 58.332L18.5 48.094L25.153 58.332L18.965 55.079C18.8217 55.0032 18.6621 54.9635 18.5 54.9635C18.3379 54.9635 18.1783 55.0032 18.035 55.079H18.032ZM25.264 50.5L26.273 56.384L20.122 46.917L30.773 44.526L25.552 49.615C25.4359 49.7281 25.3489 49.8678 25.2988 50.022C25.2486 50.1761 25.2367 50.3402 25.264 50.5V50.5Z" fill="black"/>
<path d="M27.457 27.457C28.0355 27.4282 28.5932 27.2322 29.0625 26.8926C29.5317 26.553 29.8923 26.0845 30.1005 25.544C30.3086 25.0035 30.3554 24.4141 30.2352 23.8475C30.1149 23.2809 29.8328 22.7614 29.423 22.352L28.008 20.938C27.817 20.7573 27.564 20.6567 27.301 20.6567C27.0381 20.6567 26.7851 20.7573 26.594 20.938L20.937 26.594C20.7495 26.7815 20.6442 27.0359 20.6442 27.301C20.6442 27.5662 20.7495 27.8205 20.937 28.008L22.352 29.423C22.7605 29.835 23.2802 30.1191 23.8475 30.2407C24.4148 30.3622 25.0052 30.3159 25.5466 30.1074C26.0881 29.8989 26.557 29.5372 26.8963 29.0665C27.2356 28.5959 27.4304 28.0366 27.457 27.457V27.457ZM27.301 23.057L28.009 23.764C28.1965 23.9517 28.3018 24.2061 28.3017 24.4714C28.3016 24.7366 28.1962 24.991 28.0085 25.1785C27.8209 25.366 27.5664 25.4713 27.3012 25.4712C27.0359 25.4711 26.7815 25.3657 26.594 25.178L25.887 24.471L27.301 23.057ZM25.18 28.007C24.9925 28.1945 24.7382 28.2998 24.473 28.2998C24.2078 28.2998 23.9535 28.1945 23.766 28.007L23.059 27.299L24.473 25.885L25.18 26.592C25.2733 26.6849 25.3473 26.7953 25.3978 26.9169C25.4483 27.0385 25.4743 27.1689 25.4743 27.3005C25.4743 27.4322 25.4483 27.5625 25.3978 27.6841C25.3473 27.8057 25.2733 27.9161 25.18 28.009V28.007Z" fill="black"/>
<path d="M29.423 35.08C29.3275 35.1722 29.2513 35.2826 29.1989 35.4046C29.1465 35.5266 29.1189 35.6578 29.1178 35.7906C29.1166 35.9234 29.1419 36.0551 29.1922 36.178C29.2425 36.3009 29.3167 36.4125 29.4106 36.5064C29.5045 36.6003 29.6162 36.6745 29.7391 36.7248C29.862 36.7751 29.9936 36.8004 30.1264 36.7993C30.2592 36.7981 30.3904 36.7705 30.5124 36.7181C30.6344 36.6657 30.7448 36.5895 30.837 36.494L32.252 35.08C32.7735 34.5545 33.0808 33.8536 33.114 33.114C33.6915 33.0844 34.248 32.888 34.7163 32.5487C35.1845 32.2094 35.5444 31.7417 35.7524 31.2021C35.9604 30.6626 36.0076 30.0743 35.8882 29.5085C35.7689 28.9427 35.4882 28.4236 35.08 28.014L33.665 26.599C33.4775 26.4115 33.2232 26.3062 32.958 26.3062C32.6929 26.3062 32.4385 26.4115 32.251 26.599L26.594 32.257C26.4985 32.3492 26.4223 32.4596 26.3699 32.5816C26.3175 32.7036 26.2899 32.8348 26.2888 32.9676C26.2876 33.1004 26.3129 33.2321 26.3632 33.355C26.4135 33.4779 26.4877 33.5895 26.5816 33.6834C26.6755 33.7773 26.7872 33.8515 26.9101 33.9018C27.033 33.9521 27.1646 33.9774 27.2974 33.9762C27.4302 33.9751 27.5614 33.9475 27.6834 33.8951C27.8054 33.8427 27.9158 33.7665 28.008 33.671L30.13 31.549L30.837 32.257C31.0245 32.4445 31.1298 32.6988 31.1298 32.964C31.1298 33.2292 31.0245 33.4835 30.837 33.671L29.423 35.08ZM32.958 28.716L33.665 29.423C33.8472 29.6116 33.948 29.8642 33.9457 30.1264C33.9434 30.3886 33.8382 30.6394 33.6528 30.8248C33.4674 31.0102 33.2166 31.1154 32.9544 31.1177C32.6922 31.12 32.4396 31.0192 32.251 30.837L31.544 30.13L32.958 28.716Z" fill="black"/>
<path d="M35.08 40.737C34.9845 40.8293 34.9083 40.9396 34.8559 41.0616C34.8035 41.1836 34.7759 41.3148 34.7748 41.4476C34.7736 41.5804 34.7989 41.7121 34.8492 41.835C34.8995 41.9579 34.9737 42.0695 35.0676 42.1634C35.1615 42.2573 35.2732 42.3315 35.3961 42.3818C35.519 42.4321 35.6506 42.4574 35.7834 42.4563C35.9162 42.4551 36.0474 42.4275 36.1694 42.3751C36.2914 42.3227 36.4018 42.2465 36.494 42.151L40.736 37.908C41.2984 37.3454 41.6144 36.5825 41.6144 35.787C41.6144 34.9915 41.2984 34.2286 40.736 33.666C40.1646 33.1201 39.4048 32.8154 38.6145 32.8154C37.8242 32.8154 37.0644 33.1201 36.493 33.666L32.25 37.908C32.0679 38.0966 31.9671 38.3492 31.9693 38.6114C31.9716 38.8736 32.0768 39.1244 32.2622 39.3098C32.4476 39.4952 32.6984 39.6004 32.9606 39.6027C33.2228 39.605 33.4754 39.5042 33.664 39.322L35.787 37.2L37.2 38.615L35.08 40.737ZM37.201 35.787L37.909 35.08C38.0992 34.898 38.3523 34.7965 38.6155 34.7965C38.8787 34.7965 39.1318 34.898 39.322 35.08C39.5095 35.2675 39.6148 35.5218 39.6148 35.787C39.6148 36.0522 39.5095 36.3065 39.322 36.494L38.615 37.201L37.201 35.787Z" fill="black"/>
<path d="M40.918 47.951C41.1096 48.0695 41.3356 48.1199 41.5594 48.094C41.7832 48.068 41.9916 47.9672 42.151 47.808L47.808 42.151C47.9902 41.9624 48.091 41.7098 48.0887 41.4476C48.0864 41.1854 47.9812 40.9346 47.7958 40.7492C47.6104 40.5638 47.3596 40.4586 47.0974 40.4563C46.8352 40.454 46.5826 40.5548 46.394 40.737L43.732 43.4L45.221 38.934C45.2926 38.7202 45.2898 38.4885 45.2132 38.2764C45.1365 38.0644 44.9905 37.8845 44.7987 37.7659C44.6069 37.6473 44.3807 37.5971 44.1568 37.6232C43.9328 37.6494 43.7243 37.7504 43.565 37.91L37.908 43.567C37.7258 43.7556 37.625 44.0082 37.6273 44.2704C37.6296 44.5326 37.7348 44.7834 37.9202 44.9688C38.1056 45.1542 38.3564 45.2594 38.6186 45.2617C38.8808 45.264 39.1334 45.1632 39.322 44.981L41.984 42.319L40.495 46.786C40.4242 46.9995 40.4275 47.2305 40.5042 47.4419C40.581 47.6533 40.7268 47.8327 40.918 47.951Z" fill="black"/>
<path d="M44.979 52.05C45.2576 52.3286 45.5883 52.5497 45.9523 52.7005C46.3163 52.8513 46.7065 52.9289 47.1005 52.9289C47.4945 52.9289 47.8847 52.8513 48.2487 52.7005C48.6127 52.5497 48.9434 52.3286 49.222 52.05L52.05 49.222C52.6124 48.6594 52.9284 47.8965 52.9284 47.101C52.9284 46.3055 52.6124 45.5426 52.05 44.98L50.636 43.565C50.4485 43.3775 50.1942 43.2722 49.929 43.2722C49.6638 43.2722 49.4095 43.3775 49.222 43.565L43.565 49.222C43.3775 49.4095 43.2722 49.6638 43.2722 49.929C43.2722 50.1942 43.3775 50.4485 43.565 50.636L44.979 52.05ZM49.929 45.686L50.636 46.394C50.8235 46.5815 50.9288 46.8358 50.9288 47.101C50.9288 47.3662 50.8235 47.6205 50.636 47.808L47.808 50.636C47.6205 50.8235 47.3662 50.9288 47.101 50.9288C46.8358 50.9288 46.5815 50.8235 46.394 50.636L45.686 49.929L49.929 45.686Z" fill="black"/>
</svg>
